<?xml version="1.0" encoding="iso-8859-1"?>
<!-- Generator: Adobe Illustrator 17.1.0, SVG Export Plug-In . SVG Version: 6.00 Build 0)  -->
<!DOCTYPE svg PUBLIC "-//W3C//DTD SVG 1.1//EN" "http://www.w3.org/Graphics/SVG/1.1/DTD/svg11.dtd">
<svg version="1.1" id="Capa_1" xmlns="http://www.w3.org/2000/svg" xmlns:xlink="http://www.w3.org/1999/xlink" x="0px" y="0px"
	 viewBox="0 0 401.475 401.475" style="enable-background:new 0 0 401.475 401.475;" xml:space="preserve">
<path id="XMLID_213_" d="M209.296,127.782c0-4.971,4.029-9,9-9h2.148c4.971,0,9,4.029,9,9s-4.029,9-9,9h-2.148
	C213.326,136.782,209.296,132.753,209.296,127.782z M353.537,394.938c-0.305,1.071-0.802,2.061-1.452,2.929
	c-0.772,1.035-1.734,1.861-2.807,2.461c-1.088,0.611-2.315,1.003-3.623,1.114c-0.261,0.022-256.804,0.033-256.804,0.033
	c-22.748,0-41.255-18.507-41.255-41.256V39.064C47.596,17.524,65.12,0,86.661,0h228.15c10.398-0.001,20.198,4.07,27.595,11.466
	c7.397,7.396,11.472,17.197,11.472,27.599v288.741c0.005,0.317-0.006,0.634-0.034,0.948c-0.112,1.293-0.498,2.508-1.1,3.586
	c-0.604,1.088-1.44,2.063-2.491,2.844c-0.241,0.18-0.491,0.347-0.75,0.502c-7.747,4.856-12.556,14.243-12.556,24.533
	s4.808,19.677,12.556,24.533c0.261,0.157,0.513,0.326,0.756,0.508h0.001c0.001,0.002,0.003,0.003,0.004,0.004
	c1.047,0.779,1.882,1.754,2.483,2.84c0.599,1.075,0.982,2.285,1.096,3.573C353.94,392.76,353.842,393.865,353.537,394.938z
	 M84.855,360.219c0-4.971,4.029-9,9-9h225.904c0.922-5.053,2.607-9.869,4.956-14.255H88.851c-12.823,0-23.255,10.432-23.255,23.255
	s10.432,23.256,23.255,23.256h235.864c-2.348-4.386-4.034-9.203-4.956-14.256H93.855C88.884,369.219,84.855,365.189,84.855,360.219z
	 M335.878,39.064c0-5.593-2.201-10.873-6.198-14.869s-9.275-6.196-14.865-6.195l-18.179,0.003L86.661,18
	c-11.615,0-21.065,9.449-21.065,21.064v287.095c6.625-4.538,14.636-7.195,23.255-7.195h247.026V39.064z M269.658,201.543
	c-4.71-1.596-9.816,0.938-11.406,5.646c-1.591,4.709,0.938,9.816,5.646,11.406c4.889,1.651,8.173,6.207,8.173,11.335
	c0,6.593-5.362,11.956-11.954,11.956h-81.489c-6.592,0-11.955-5.363-11.955-11.956c0-5.129,3.285-9.684,8.174-11.336
	c4.709-1.591,7.237-6.698,5.646-11.407c-1.591-4.709-6.699-7.235-11.407-5.646c-12.209,4.125-20.413,15.533-20.413,28.389
	c0,16.518,13.438,29.956,29.955,29.956h81.489c16.517,0,29.954-13.438,29.954-29.956
	C290.071,217.075,281.868,205.667,269.658,201.543z M91.032,30.462c-4.971,0-9,4.029-9,9v258.039c0,4.971,4.029,9,9,9s9-4.029,9-9
	V39.462C100.032,34.491,96.003,30.462,91.032,30.462z M194.644,194.383c-16.037-31.517-25.976-53.651-25.976-66.602
	c0-27.957,22.746-50.702,50.704-50.702s50.703,22.745,50.703,50.702c0,12.951-9.938,35.085-25.974,66.601
	c0,0-5.735,11.32-6.021,11.922c-2.314,4.852-6.622,13.884-18.708,13.884c-12.087,0-16.394-9.031-18.707-13.884
	C200.378,205.703,194.644,194.383,194.644,194.383z M186.668,127.781c0,11.236,16.831,44.313,24.018,58.438
	c0,0,5.882,11.616,6.226,12.337c0.576,1.208,1.426,2.989,1.939,3.602c0.215,0.029,0.827,0.029,1.04,0
	c0.515-0.612,1.364-2.395,1.941-3.604c0.343-0.72,6.226-12.336,6.226-12.336c7.187-14.124,24.017-47.201,24.017-58.438
	c0-18.032-14.671-32.702-32.703-32.702C201.339,95.079,186.668,109.749,186.668,127.781z"/>
<g>
</g>
<g>
</g>
<g>
</g>
<g>
</g>
<g>
</g>
<g>
</g>
<g>
</g>
<g>
</g>
<g>
</g>
<g>
</g>
<g>
</g>
<g>
</g>
<g>
</g>
<g>
</g>
<g>
</g>
</svg>
