<?xml version="1.0" encoding="iso-8859-1"?>
<!-- Generator: Adobe Illustrator 19.0.0, SVG Export Plug-In . SVG Version: 6.00 Build 0)  -->
<svg version="1.1" id="Capa_1" xmlns="http://www.w3.org/2000/svg" xmlns:xlink="http://www.w3.org/1999/xlink" x="0px" y="0px"
	 viewBox="0 0 512 512" style="enable-background:new 0 0 512 512;" xml:space="preserve">
<g>
	<g>
		<path d="M488.59,349V62.333H23.41V349H0v100.667h512V349H488.59z M53.41,92.334h405.18V349H292.898l-6.087,18.5h-61.622
			l-6.087-18.5H53.41V92.334z M482,419.667H30V379h167.391l6.087,18.5h105.044l6.087-18.5H482V419.667z"/>
	</g>
</g>
<g>
	<g>
		<path d="M91.666,143v92.667h112V143H91.666z M173.666,205.667h-52V173h52V205.667z"/>
	</g>
</g>
<g>
	<g>
		<rect x="239.67" y="143" width="174" height="30"/>
	</g>
</g>
<g>
	<g>
		<rect x="239.67" y="205.67" width="174" height="30"/>
	</g>
</g>
<g>
	<g>
		<rect x="91" y="268.33" width="322.67" height="30"/>
	</g>
</g>
<g>
</g>
<g>
</g>
<g>
</g>
<g>
</g>
<g>
</g>
<g>
</g>
<g>
</g>
<g>
</g>
<g>
</g>
<g>
</g>
<g>
</g>
<g>
</g>
<g>
</g>
<g>
</g>
<g>
</g>
</svg>
