<svg xmlns="http://www.w3.org/2000/svg" xmlns:xlink="http://www.w3.org/1999/xlink" version="1.1" id="Layer_1" x="0px" y="0px" viewBox="0 0 511.999 511.999" style="enable-background:new 0 0 511.999 511.999;" xml:space="preserve">
<path style="fill:#2D527C;" d="M80.408,464.663c-3.653,0-7.34-0.796-10.812-2.429c-9.422-4.43-15.116-14.006-14.508-24.401  l3.266-55.782H33.326C14.95,382.051,0,367.102,0,348.725V167.088c0-18.377,14.95-33.326,33.326-33.326h283.892  c18.377,0,33.326,14.95,33.326,33.326v181.637c0,18.376-14.95,33.326-33.326,33.326H285.82c-7.631,0-13.817-6.186-13.817-13.817  s6.186-13.817,13.817-13.817h31.399c3.139,0,5.693-2.553,5.693-5.693V167.088c0-3.139-2.553-5.693-5.693-5.693H33.326  c-3.138,0-5.693,2.553-5.693,5.693v181.637c0,3.138,2.553,5.693,5.693,5.693h39.678c3.804,0,7.44,1.568,10.052,4.337  c2.61,2.768,3.964,6.49,3.742,10.288l-3.786,64.655l81.054-75.569c2.559-2.385,5.925-3.711,9.422-3.711h48.656  c7.631,0,13.817,6.186,13.817,13.817s-6.186,13.817-13.817,13.817h-43.215L97.64,457.839  C92.833,462.322,86.669,464.663,80.408,464.663z"></path>
<path style="fill:#CEE8FA;" d="M478.674,61.153H194.781c-10.774,0-19.51,8.735-19.51,19.509v66.918h141.947  c10.774,0,19.509,8.735,19.509,19.51v114.719h1.784l85.268,79.497c7.595,7.081,19.945,1.275,19.338-9.092l-4.123-70.407h39.678  c10.774,0,19.509-8.735,19.509-19.509V80.662C498.183,69.887,489.448,61.153,478.674,61.153z"></path>
<g>
	<path style="fill:#2D527C;" d="M431.548,378.242c-6.361,0-12.464-2.425-17.19-6.83l-82.07-76.515   c-5.452-1.849-9.378-7.011-9.378-13.089V167.089c0-3.138-2.553-5.693-5.693-5.693H175.272c-7.631,0-13.817-6.186-13.817-13.817   V80.662c0-18.377,14.95-33.326,33.326-33.326h283.892c18.376,0,33.326,14.95,33.326,33.326v181.637   c0,18.376-14.95,33.326-33.326,33.326h-25.029l3.266,55.782c0.413,7.054-1.995,13.733-6.781,18.808   C445.319,375.316,438.546,378.242,431.548,378.242z M350.545,274.137l78.443,73.133l-3.786-64.654   c-0.222-3.798,1.132-7.519,3.742-10.288c2.611-2.768,6.247-4.337,10.052-4.337h39.678c3.138,0,5.693-2.553,5.693-5.693V80.662   c0-3.138-2.553-5.693-5.693-5.693H194.781c-3.139,0-5.693,2.553-5.693,5.693v53.101h128.13c18.376,0,33.326,14.95,33.326,33.326   v107.048H350.545z"></path>
	<path style="fill:#2D527C;" d="M256,240.424H90.197c-7.631,0-13.817-6.186-13.817-13.817s6.186-13.817,13.817-13.817H256   c7.631,0,13.817,6.186,13.817,13.817S263.631,240.424,256,240.424z"></path>
	<path style="fill:#2D527C;" d="M234.122,311.272H112.073c-7.631,0-13.817-6.186-13.817-13.817c0-7.631,6.186-13.817,13.817-13.817   h122.049c7.631,0,13.817,6.186,13.817,13.817C247.939,305.086,241.753,311.272,234.122,311.272z"></path>
</g>
</svg>