<?xml version="1.0" encoding="iso-8859-1"?>
<!-- Generator: Adobe Illustrator 19.0.0, SVG Export Plug-In . SVG Version: 6.00 Build 0)  -->
<svg xmlns="http://www.w3.org/2000/svg" xmlns:xlink="http://www.w3.org/1999/xlink" version="1.1" id="Capa_1" x="0px" y="0px" viewBox="0 0 496 496" style="enable-background:new 0 0 496 496;" xml:space="preserve" width="512px" height="512px">
<g>
	<g>
		<g>
			<path d="M352,368v24h-21.496c-14.96,0-29.016-5.824-39.592-16.4l-54.632-54.624c-5.784-5.792-13.464-8.976-21.656-8.976     C197.744,312,184,325.736,184,342.632c0,8.176,3.184,15.864,8.968,21.656l32,32c4.472,4.464,7.032,10.648,7.032,16.968V432h16     v-18.744c0-10.68-4.168-20.728-11.72-28.28l-32-32c-2.76-2.768-4.28-6.44-4.28-10.344c0-8.072,6.56-14.632,14.624-14.632     c3.848,0,7.616,1.56,10.344,4.288l54.632,54.624c13.592,13.6,31.672,21.088,50.904,21.088H352v42.584l-17.808,7.12     c-10.44,4.176-21.432,6.296-32.68,6.296H191.528c-4.568,0-9.184-0.36-13.72-1.08l-48.008-7.576     c-11.768-1.856-22.44-7.296-30.864-15.712L60.28,400.976c-2.76-2.768-4.28-6.44-4.28-10.344C56,382.56,62.56,376,70.624,376     c3.848,0,7.616,1.56,10.344,4.288l27.312,27.32c10.584,10.576,24.648,16.4,39.6,16.4h40.792c8.648,0,17.304-2.04,25.04-5.912     l-7.16-14.312c-5.52,2.752-11.712,4.216-17.88,4.216H147.88c-10.68,0-20.728-4.16-28.288-11.712L92.28,368.976     C86.496,363.184,78.816,360,70.624,360C53.744,360,40,373.736,40,390.632c0,8.176,3.184,15.864,8.968,21.656l38.656,38.664     c10.84,10.832,24.56,17.816,39.68,20.2l48.008,7.576c5.36,0.84,10.824,1.272,16.216,1.272h109.984     c13.288,0,26.28-2.504,38.616-7.44L352,467.816V496h112V368H352z M448,480h-80v-96h16v80h16v-80h48V480z" fill="#32c75c"/>
			<path d="M45.656,301.656l96.52-96.52C149.256,216.416,161.72,224,176,224v16h16v-16c22.056,0,40-17.944,40-40     c0-18.608-12.84-34.16-30.08-38.608L219.312,128H232v-8c0-1.456-0.28-2.84-0.432-4.256L333.656,13.656L322.344,2.344l-36.8,36.8     C257.6,13.944,221.912,0,184,0C100.184,0,32,68.184,32,152c0,37.912,13.936,73.6,39.144,101.544l-36.8,36.8L45.656,301.656z      M216,184c0,13.232-10.768,24-24,24h-16c-9.904,0-18.416-6.032-22.08-14.608L187.312,160H192C205.232,160,216,170.768,216,184z      M180.688,144H176c-13.232,0-24-10.768-24-24s10.768-24,24-24h16c9.904,0,18.416,6.032,22.08,14.608L180.688,144z      M225.816,98.872C218.744,87.584,206.28,80,192,80V64h-16v16c-22.056,0-40,17.944-40,40c0,18.608,12.84,34.16,30.08,38.608     L148.688,176H136v8c0,1.456,0.28,2.84,0.432,4.256l-31.352,31.352C88.904,200.776,80,177.088,80,152c0-57.344,46.656-104,104-104     c25.096,0,48.776,8.896,67.608,25.08L225.816,98.872z M48,152c0-74.992,61.008-136,136-136c33.64,0,65.328,12.264,90.232,34.456     L262.92,61.768C241.048,42.584,213.368,32,184,32C117.832,32,64,85.832,64,152c0,29.36,10.584,57.048,29.768,78.92     l-11.312,11.312C60.264,217.32,48,185.64,48,152z" fill="#32c75c"/>
			<path d="M96.008,275.8C121.92,294.248,152.344,304,184,304c83.816,0,152-68.184,152-152c0-31.656-9.752-62.08-28.192-87.992     l-13.032,9.28C311.272,96.472,320,123.688,320,152c0,74.992-61.008,136-136,136c-28.304,0-55.52-8.728-78.712-25.232     L96.008,275.8z" fill="#32c75c"/>
			<path d="M184,256c-19.84,0-39.208-5.696-56.008-16.472L119.352,253c19.376,12.432,41.736,19,64.648,19     c66.168,0,120-53.832,120-120c0-22.904-6.568-45.256-19-64.648l-13.472,8.632C282.304,112.8,288,132.168,288,152     C288,209.344,241.344,256,184,256z" fill="#32c75c"/>
		</g>
	</g>
</g>
<g>
</g>
<g>
</g>
<g>
</g>
<g>
</g>
<g>
</g>
<g>
</g>
<g>
</g>
<g>
</g>
<g>
</g>
<g>
</g>
<g>
</g>
<g>
</g>
<g>
</g>
<g>
</g>
<g>
</g>
</svg>
