<?xml version="1.0" encoding="iso-8859-1"?>
<!-- Generator: Adobe Illustrator 19.0.0, SVG Export Plug-In . SVG Version: 6.00 Build 0)  -->
<svg version="1.1" id="Capa_1" xmlns="http://www.w3.org/2000/svg" xmlns:xlink="http://www.w3.org/1999/xlink" x="0px" y="0px"
	 viewBox="0 0 479.981 479.981" style="enable-background:new 0 0 479.981 479.981;" xml:space="preserve">
<g>
	<g>
		<path d="M207.99,167.981v16c0,17.673,14.327,32,32,32c17.673,0,32-14.327,32-32v-16H207.99z M239.99,199.981
			c-8.837,0-16-7.163-16-16h32C255.99,192.817,248.827,199.981,239.99,199.981z"/>
	</g>
</g>
<g>
	<g>
		<path d="M207.99,119.981v8c0,4.418-3.582,8-8,8s-8-3.582-8-8v-8h-16v8c0,13.255,10.745,24,24,24s24-10.745,24-24v-8H207.99z"/>
	</g>
</g>
<g>
	<g>
		<path d="M287.99,119.981v8c0,4.418-3.582,8-8,8s-8-3.582-8-8v-8h-16v8c0,13.255,10.745,24,24,24s24-10.745,24-24v-8H287.99z"/>
	</g>
</g>
<g>
	<g>
		<path d="M330.07,264.085v-0.104h-50.08c-4.418,0-8-3.582-8-8v-12.72c47.418-14.189,79.927-57.785,80-107.28v-24
			C352.033,50.178,301.966,0.042,240.163,0c-39.996-0.027-76.965,21.293-96.973,55.925l-1.224,0.32l0.312,1.176
			c-9.372,16.657-14.293,35.448-14.288,54.56v24c0.073,49.495,32.582,93.091,80,107.28v12.72c0,4.418-3.582,8-8,8h-48
			c-39.746,0.044-71.956,32.254-72,72v104c0.026,22.08,17.92,39.974,40,40h280v-144C399.95,297.055,368.98,265.209,330.07,264.085z
			 M294.326,279.981h15.56l-28.232,120h-15.56L294.326,279.981z M332.502,86.709L291.83,59.597l22.176-8.68
			C322.639,61.402,328.944,73.602,332.502,86.709z M239.99,15.981c11.16,0.023,22.229,2.005,32.704,5.856L167.19,49.581
			C185.374,28.271,211.977,15.992,239.99,15.981z M153.966,69.621l140.128-36.84c2.632,1.808,5.168,3.744,7.6,5.8L144.83,99.925
			C146.162,89.384,149.25,79.141,153.966,69.621z M143.99,135.981v-18.536l129.664-50.736l62.144,41.424
			c0.048,1.288,0.192,2.552,0.192,3.848v24c0,53.019-42.981,96-96,96S143.99,189,143.99,135.981z M136.846,415.981l-7.68,48h-9.176
			c-13.255,0-24-10.745-24-24v-104c0.035-30.913,25.087-55.965,56-56h6.616l-19.2,120H127.99v16H136.846z M175.99,463.981h-30.616
			l29.44-184h18.36l29.44,184H175.99z M209.078,278.165c9.01-3.686,14.9-12.449,14.912-22.184v-8h32v8
			c0.04,12.424,9.572,22.755,21.952,23.792l-28.288,120.208h-21.08L209.078,278.165z M303.99,463.981h-65.176l-7.68-48h72.856
			c13.255,0,24,10.745,24,24S317.245,463.981,303.99,463.981z M383.99,463.981h-48.208c5.293-6.884,8.177-15.317,8.208-24
			c-0.026-22.08-17.92-39.974-40-40h-5.896l28.24-120h1.656c30.913,0.035,55.965,25.087,56,56V463.981z"/>
	</g>
</g>
<g>
</g>
<g>
</g>
<g>
</g>
<g>
</g>
<g>
</g>
<g>
</g>
<g>
</g>
<g>
</g>
<g>
</g>
<g>
</g>
<g>
</g>
<g>
</g>
<g>
</g>
<g>
</g>
<g>
</g>
</svg>
