<svg height="496pt" viewBox="0 0 496 496" width="496pt" xmlns="http://www.w3.org/2000/svg"><path d="m416 368c-44.113281 0-80-35.886719-80-80s35.886719-80 80-80 80 35.886719 80 80-35.886719 80-80 80zm0-144c-35.289062 0-64 28.710938-64 64s28.710938 64 64 64 64-28.710938 64-64-28.710938-64-64-64zm0 0"/><path d="m416 320c-17.648438 0-32-14.351562-32-32s14.351562-32 32-32 32 14.351562 32 32-14.351562 32-32 32zm0-48c-8.824219 0-16 7.175781-16 16s7.175781 16 16 16 16-7.175781 16-16-7.175781-16-16-16zm0 0"/><path d="m440 400h-48v-44.183594h16v28.183594h16v-28.183594h16zm0 0"/><path d="m136 80h-56v-80h56c22.054688 0 40 17.945312 40 40s-17.945312 40-40 40zm-40-16h40c13.230469 0 24-10.769531 24-24s-10.769531-24-24-24h-40zm0 0"/><path d="m288 80h-56c-22.054688 0-40-17.945312-40-40s17.945312-40 40-40h56zm-56-64c-13.230469 0-24 10.769531-24 24s10.769531 24 24 24h40v-48zm0 0"/><path d="m249.886719 264h-9.886719v-16h6.113281l66.085938-33.046875c24.554687-12.273437 39.800781-36.945313 39.800781-64.402344v-46.550781c0-39.703125-32.304688-72-72-72v-16c48.519531 0 88 39.480469 88 88v46.550781c0 33.554688-18.640625 63.714844-48.648438 78.714844zm0 0"/><path d="m249.886719 224h-9.886719v-16h6.113281l51.773438-25.886719c13.640625-6.824219 22.113281-20.539062 22.113281-35.777343v-42.335938c0-22.054688-17.945312-40-40-40v-16c30.878906 0 56 25.128906 56 56v42.335938c0 21.34375-11.863281 40.527343-30.960938 50.089843zm0 0"/><path d="m128 264h-9.886719l-69.472656-34.734375c-30-15-48.640625-45.152344-48.640625-78.714844v-46.550781c0-48.519531 39.480469-88 88-88v16c-39.695312 0-72 32.296875-72 72v46.550781c0 27.457031 15.246094 52.128907 39.800781 64.402344l66.085938 33.046875h6.113281zm0 0"/><path d="m128 224h-9.886719l-55.152343-27.574219c-19.097657-9.5625-30.960938-28.746093-30.960938-50.089843v-42.335938c0-30.871094 25.121094-56 56-56v16c-22.054688 0-40 17.945312-40 40v42.335938c0 15.238281 8.472656 28.953124 22.113281 35.777343l51.773438 25.886719h6.113281zm0 0"/><path d="m208 336h-48v-45.769531c0-11.40625-8.113281-21.300781-19.296875-23.535157l-20.703125-4.136718v-54.558594h128v54.558594l-20.710938 4.136718c-11.175781 2.234376-19.289062 12.136719-19.289062 23.535157zm-32-16h16v-29.769531c0-19 13.519531-35.503907 32.152344-39.222657l7.847656-1.566406v-25.441406h-96v25.441406l7.839844 1.566406c18.640625 3.726563 32.160156 20.222657 32.160156 39.222657zm0 0"/><path d="m368 496h-136c-30.878906 0-56-25.128906-56-56v-112h16v112c0 22.054688 17.945312 40 40 40h136c22.054688 0 40-17.945312 40-40v-48h16v48c0 30.871094-25.121094 56-56 56zm0 0"/></svg>