<svg height="512pt" viewBox="0 -38 512 512" width="512pt" xmlns="http://www.w3.org/2000/svg"><path d="m128 435.199219h-119.464844c-4.710937 0-8.535156-3.8125-8.535156-8.53125v-119.46875c0-4.71875 3.824219-8.53125 8.535156-8.53125h119.464844c4.710938 0 8.535156 3.8125 8.535156 8.53125v119.46875c0 4.71875-3.824218 8.53125-8.535156 8.53125zm-110.933594-17.066407h102.398438v-102.398437h-102.398438zm0 0"/><path d="m503.464844 435.199219h-119.464844c-4.710938 0-8.535156-3.8125-8.535156-8.53125v-119.46875c0-4.71875 3.824218-8.53125 8.535156-8.53125h119.464844c4.710937 0 8.535156 3.8125 8.535156 8.53125v119.46875c0 4.71875-3.824219 8.53125-8.535156 8.53125zm-110.929688-17.066407h102.398438v-102.398437h-102.398438zm0 0"/><path d="m315.734375 435.199219h-119.46875c-4.710937 0-8.53125-3.8125-8.53125-8.53125v-119.46875c0-4.71875 3.820313-8.53125 8.53125-8.53125h119.46875c4.710937 0 8.53125 3.8125 8.53125 8.53125v119.46875c0 4.71875-3.820313 8.53125-8.53125 8.53125zm-110.933594-17.066407h102.398438v-102.398437h-102.398438zm0 0"/><path d="m42.667969 366.933594c-4.710938 0-8.535157-3.816406-8.535157-8.535156v-17.066407c0-4.71875 3.824219-8.53125 8.535157-8.53125h17.066406c4.710937 0 8.53125 3.8125 8.53125 8.53125s-3.820313 8.535157-8.53125 8.535157h-8.535156v8.53125c0 4.71875-3.820313 8.535156-8.53125 8.535156zm0 0"/><path d="m93.867188 401.066406h-17.066407c-4.710937 0-8.535156-3.8125-8.535156-8.53125 0-4.722656 3.824219-8.535156 8.535156-8.535156h8.53125v-8.535156c0-4.71875 3.824219-8.53125 8.535157-8.53125 4.710937 0 8.53125 3.8125 8.53125 8.53125v17.070312c0 4.71875-3.820313 8.53125-8.53125 8.53125zm0 0"/><path d="m230.398438 366.933594c-4.707032 0-8.53125-3.816406-8.53125-8.535156v-17.066407c0-4.71875 3.824218-8.53125 8.53125-8.53125h17.066406c4.710937 0 8.535156 3.8125 8.535156 8.53125s-3.824219 8.535157-8.535156 8.535157h-8.53125v8.53125c0 4.71875-3.824219 8.535156-8.535156 8.535156zm0 0"/><path d="m281.601562 401.066406h-17.066406c-4.710937 0-8.535156-3.8125-8.535156-8.53125 0-4.722656 3.824219-8.535156 8.535156-8.535156h8.53125v-8.535156c0-4.71875 3.824219-8.53125 8.535156-8.53125 4.707032 0 8.53125 3.8125 8.53125 8.53125v17.070312c0 4.71875-3.824218 8.53125-8.53125 8.53125zm0 0"/><path d="m315.734375 136.535156h-119.46875c-4.710937 0-8.53125-3.816406-8.53125-8.535156v-119.464844c0-4.722656 3.820313-8.535156 8.53125-8.535156h119.46875c4.710937 0 8.53125 3.8125 8.53125 8.535156v119.464844c0 4.71875-3.820313 8.535156-8.53125 8.535156zm-110.933594-17.070312h102.398438v-102.398438h-102.398438zm0 0"/><path d="m230.398438 68.265625c-4.707032 0-8.53125-3.8125-8.53125-8.53125v-17.066406c0-4.71875 3.824218-8.535157 8.53125-8.535157h17.066406c4.710937 0 8.535156 3.816407 8.535156 8.535157s-3.824219 8.53125-8.535156 8.53125h-8.53125v8.535156c0 4.71875-3.824219 8.53125-8.535156 8.53125zm0 0"/><path d="m281.601562 102.398438h-17.066406c-4.710937 0-8.535156-3.8125-8.535156-8.53125s3.824219-8.535157 8.535156-8.535157h8.53125v-8.53125c0-4.71875 3.824219-8.535156 8.535156-8.535156 4.707032 0 8.53125 3.816406 8.53125 8.535156v17.066407c0 4.71875-3.824218 8.53125-8.53125 8.53125zm0 0"/><path d="m418.132812 366.933594c-4.710937 0-8.53125-3.816406-8.53125-8.535156v-17.066407c0-4.71875 3.820313-8.53125 8.53125-8.53125h17.066407c4.710937 0 8.535156 3.8125 8.535156 8.53125s-3.824219 8.535157-8.535156 8.535157h-8.53125v8.53125c0 4.71875-3.824219 8.535156-8.535157 8.535156zm0 0"/><path d="m469.332031 401.066406h-17.066406c-4.710937 0-8.53125-3.8125-8.53125-8.53125 0-4.722656 3.820313-8.535156 8.53125-8.535156h8.535156v-8.535156c0-4.71875 3.820313-8.53125 8.53125-8.53125 4.710938 0 8.535157 3.8125 8.535157 8.53125v17.070312c0 4.71875-3.824219 8.53125-8.535157 8.53125zm0 0"/><path d="m68.265625 315.734375c-4.710937 0-8.53125-3.816406-8.53125-8.535156v-59.734375c0-4.71875 3.820313-8.53125 8.53125-8.53125s8.535156 3.8125 8.535156 8.53125v59.734375c0 4.71875-3.824219 8.535156-8.535156 8.535156zm0 0"/><path d="m443.734375 315.734375c-4.710937 0-8.535156-3.816406-8.535156-8.535156v-59.734375c0-4.71875 3.824219-8.53125 8.535156-8.53125s8.53125 3.8125 8.53125 8.53125v59.734375c0 4.71875-3.820313 8.535156-8.53125 8.535156zm0 0"/><path d="m443.734375 256c-4.710937 0-8.535156-3.8125-8.535156-8.535156 0-14.113282-11.484375-25.597656-25.597657-25.597656h-307.203124c-14.113282 0-25.597657 11.484374-25.597657 25.597656 0 4.722656-3.824219 8.535156-8.535156 8.535156s-8.53125-3.8125-8.53125-8.535156c0-23.523438 19.140625-42.664063 42.664063-42.664063h307.203124c23.523438 0 42.664063 19.140625 42.664063 42.664063 0 4.722656-3.820313 8.535156-8.53125 8.535156zm0 0"/><path d="m256 315.734375c-4.710938 0-8.535156-3.816406-8.535156-8.535156v-179.199219c0-4.71875 3.824218-8.535156 8.535156-8.535156s8.535156 3.816406 8.535156 8.535156v179.199219c0 4.71875-3.824218 8.535156-8.535156 8.535156zm0 0"/></svg>