<?xml version="1.0" encoding="utf-8"?><svg xmlns="http://www.w3.org/2000/svg" xmlns:xlink="http://www.w3.org/1999/xlink"><symbol viewBox="0 0 512 512" id="admission_" xmlns="http://www.w3.org/2000/svg"><path d="M481.082 123.718V72.825c0-11.757-9.531-21.287-21.287-21.287H36c-11.756 0-21.287 9.53-21.287 21.287v50.893h466.369z"/><path d="M481.082 138.431H14.713C6.587 138.431 0 131.843 0 123.718V72.825c0-19.85 16.151-36 36-36h423.793c19.851 0 36 16.151 36 36v50.894c.002 8.125-6.585 14.712-14.711 14.712zM29.426 109.005h436.942v-36.18a6.581 6.581 0 0 0-6.574-6.574H36a6.581 6.581 0 0 0-6.574 6.574v36.18zm114.812 173.41H74.93c-8.126 0-14.713-6.589-14.713-14.713v-61.765c0-8.125 6.587-14.713 14.713-14.713h69.308c8.126 0 14.713 6.589 14.713 14.713 0 8.125-6.587 14.713-14.713 14.713H89.643v32.338h54.595c8.126 0 14.713 6.589 14.713 14.713s-6.587 14.714-14.713 14.714zM213.238 205.94h69.314v61.765h-69.314z"/><path d="M282.552 282.415h-69.308c-8.126 0-14.713-6.589-14.713-14.713v-61.765c0-8.125 6.587-14.713 14.713-14.713h69.308c8.126 0 14.713 6.589 14.713 14.713v61.765c0 8.124-6.587 14.713-14.713 14.713zm-54.595-29.427h39.882V220.65h-39.882v32.338zM144.238 406.06H74.93c-8.126 0-14.713-6.589-14.713-14.713v-61.765c0-8.125 6.587-14.713 14.713-14.713h69.308c8.126 0 14.713 6.589 14.713 14.713s-6.587 14.713-14.713 14.713H89.643v32.338h54.595c8.126 0 14.713 6.589 14.713 14.713s-6.587 14.714-14.713 14.714zM213.238 329.575h69.314v61.765h-69.314z"/><path d="M282.552 406.06h-69.308c-8.126 0-14.713-6.589-14.713-14.713v-61.765c0-8.125 6.587-14.713 14.713-14.713h69.308c8.126 0 14.713 6.589 14.713 14.713v61.765c0 8.124-6.587 14.713-14.713 14.713zm-54.595-29.427h39.882v-32.338h-39.882v32.338zM351.557 205.94h69.314v61.765h-69.314z"/><path d="M420.864 282.415h-69.308c-8.126 0-14.713-6.589-14.713-14.713v-61.765c0-8.125 6.587-14.713 14.713-14.713h69.308c8.126 0 14.713 6.589 14.713 14.713v61.765c0 8.124-6.587 14.713-14.713 14.713zm-54.595-29.427h39.882V220.65h-39.882v32.338zM99.532 92.878c-8.126 0-14.713-6.589-14.713-14.713V22.06c0-8.125 6.587-14.713 14.713-14.713s14.713 6.589 14.713 14.713v56.106c0 8.125-6.587 14.712-14.713 14.712zm148.365 0c-8.126 0-14.713-6.589-14.713-14.713V22.06c0-8.125 6.587-14.713 14.713-14.713s14.713 6.589 14.713 14.713v56.106c0 8.125-6.587 14.712-14.713 14.712zm148.366 0c-8.126 0-14.713-6.589-14.713-14.713V22.06c0-8.125 6.587-14.713 14.713-14.713s14.713 6.589 14.713 14.713v56.106c0 8.125-6.587 14.712-14.713 14.712z"/><path d="M389.88 504.653c-67.338 0-122.12-54.782-122.12-122.12s54.782-122.12 122.12-122.12c36.752 0 71.2 16.321 94.512 44.78 5.15 6.285 4.229 15.556-2.058 20.706-6.285 5.148-15.556 4.229-20.706-2.058-17.7-21.608-43.851-33.999-71.747-33.999-51.111 0-92.693 41.582-92.693 92.693s41.582 92.693 92.693 92.693 92.693-41.582 92.693-92.693c0-8.125 6.587-14.713 14.713-14.713S512 374.411 512 382.535c0 67.335-54.782 122.118-122.12 122.118z"/><path d="M228.475 490.606H36c-19.85 0-36-16.151-36-36V72.825c0-19.85 16.151-36 36-36h423.793c19.851 0 36 16.151 36 36v164.701c0 8.125-6.587 14.713-14.713 14.713s-14.713-6.589-14.713-14.713V72.825a6.581 6.581 0 0 0-6.574-6.574H36a6.581 6.581 0 0 0-6.574 6.574v381.781A6.581 6.581 0 0 0 36 461.18h192.474c8.126 0 14.713 6.589 14.713 14.713 0 8.125-6.586 14.713-14.712 14.713z"/><path d="M429.606 382.533H389.88v-39.725"/><path d="M429.606 397.247H389.88c-8.126 0-14.713-6.589-14.713-14.713v-39.726c0-8.125 6.587-14.713 14.713-14.713s14.713 6.589 14.713 14.713v25.012h25.012c8.126 0 14.713 6.589 14.713 14.713s-6.586 14.714-14.712 14.714z"/></symbol><symbol id="arrow-left" viewBox="0 0 438.533 438.533" xml:space="preserve" xmlns="http://www.w3.org/2000/svg"><g transform="matrix(-1 0 0 1 438.533 0)"><script id="abtinyhippos-injected"/><path d="M409.133 109.203c-19.608-33.592-46.205-60.189-79.798-79.796C295.736 9.801 259.058 0 219.273 0c-39.781 0-76.47 9.801-110.063 29.407-33.595 19.604-60.192 46.201-79.8 79.796C9.801 142.8 0 179.489 0 219.267c0 39.78 9.804 76.463 29.407 110.062 19.607 33.592 46.204 60.189 79.799 79.798 33.597 19.605 70.283 29.407 110.063 29.407s76.47-9.802 110.065-29.407c33.593-19.602 60.189-46.206 79.795-79.798 19.603-33.596 29.403-70.284 29.403-110.062.001-39.782-9.8-76.472-29.399-110.064zm-74.801 122.908L204.71 361.736c-3.617 3.613-7.896 5.428-12.847 5.428-4.952 0-9.235-1.814-12.85-5.428l-29.121-29.13c-3.617-3.613-5.426-7.898-5.426-12.847 0-4.941 1.809-9.232 5.426-12.847l87.653-87.646-87.657-87.65c-3.617-3.612-5.426-7.898-5.426-12.845 0-4.949 1.809-9.231 5.426-12.847l29.121-29.13c3.619-3.615 7.898-5.424 12.85-5.424 4.95 0 9.233 1.809 12.85 5.424l129.622 129.621c3.613 3.614 5.42 7.898 5.42 12.847.001 4.951-1.806 9.236-5.419 12.849z" data-original="#000000"/></g></symbol><symbol viewBox="0 0 438.533 438.533" id="arrow-right" xmlns="http://www.w3.org/2000/svg"><path d="M409.133 109.203c-19.608-33.592-46.205-60.189-79.798-79.796C295.736 9.801 259.058 0 219.273 0c-39.781 0-76.47 9.801-110.063 29.407-33.595 19.604-60.192 46.201-79.8 79.796C9.801 142.8 0 179.489 0 219.267c0 39.78 9.804 76.463 29.407 110.062 19.607 33.592 46.204 60.189 79.799 79.798 33.597 19.605 70.283 29.407 110.063 29.407s76.47-9.802 110.065-29.407c33.593-19.602 60.189-46.206 79.795-79.798 19.603-33.596 29.403-70.284 29.403-110.062.001-39.782-9.8-76.472-29.399-110.064zm-74.801 122.908L204.71 361.736c-3.617 3.613-7.896 5.428-12.847 5.428-4.952 0-9.235-1.814-12.85-5.428l-29.121-29.13c-3.617-3.613-5.426-7.898-5.426-12.847 0-4.941 1.809-9.232 5.426-12.847l87.653-87.646-87.657-87.65c-3.617-3.612-5.426-7.898-5.426-12.845 0-4.949 1.809-9.231 5.426-12.847l29.121-29.13c3.619-3.615 7.898-5.424 12.85-5.424 4.95 0 9.233 1.809 12.85 5.424l129.622 129.621c3.613 3.614 5.42 7.898 5.42 12.847.001 4.951-1.806 9.236-5.419 12.849z"/></symbol><symbol viewBox="0 0 438.533 438.533" id="arrow-up" xmlns="http://www.w3.org/2000/svg"><path d="M409.133 109.203c-19.608-33.592-46.205-60.189-79.798-79.796C295.736 9.801 259.058 0 219.273 0c-39.781 0-76.47 9.801-110.063 29.407-33.595 19.604-60.192 46.201-79.8 79.796C9.801 142.8 0 179.489 0 219.267c0 39.78 9.804 76.463 29.407 110.062 19.607 33.592 46.204 60.189 79.799 79.798 33.597 19.605 70.283 29.407 110.063 29.407s76.47-9.802 110.065-29.407c33.593-19.602 60.189-46.206 79.795-79.798 19.603-33.596 29.403-70.284 29.403-110.062.001-39.782-9.8-76.472-29.399-110.064zm-47.684 122.628l-25.981 25.981c-3.613 3.613-7.901 5.42-12.847 5.42-4.948 0-9.229-1.807-12.847-5.42l-53.954-53.961v143.32c0 4.948-1.813 9.232-5.428 12.847-3.613 3.62-7.898 5.427-12.847 5.427h-36.547c-4.948 0-9.231-1.807-12.847-5.427-3.617-3.614-5.426-7.898-5.426-12.847v-143.32l-53.959 53.961c-3.431 3.425-7.708 5.133-12.85 5.133-5.14 0-9.423-1.708-12.85-5.133l-25.981-25.981c-3.422-3.429-5.137-7.714-5.137-12.852 0-5.137 1.709-9.419 5.137-12.847l103.356-103.353 25.981-25.981c3.427-3.425 7.71-5.14 12.847-5.14 5.142 0 9.423 1.715 12.849 5.14l25.98 25.981 103.35 103.353c3.432 3.427 5.14 7.71 5.14 12.847.001 5.138-1.707 9.423-5.139 12.852z"/></symbol><symbol viewBox="0 0 60 60" id="clock" xmlns="http://www.w3.org/2000/svg"><path d="M30 0C13.458 0 0 13.458 0 30s13.458 30 30 30 30-13.458 30-30S46.542 0 30 0zm0 58C14.561 58 2 45.439 2 30S14.561 2 30 2s28 12.561 28 28-12.561 28-28 28z"/><path d="M31 26.021V15.879a1 1 0 1 0-2 0v10.142a3.995 3.995 0 0 0-2.858 2.858H19a1 1 0 1 0 0 2h7.142c.447 1.72 2 3 3.858 3 2.206 0 4-1.794 4-4 0-1.859-1.28-3.411-3-3.858zm-1 5.858c-1.103 0-2-.897-2-2s.897-2 2-2 2 .897 2 2-.897 2-2 2zm0-22a1 1 0 0 0 1-1v-1a1 1 0 1 0-2 0v1a1 1 0 0 0 1 1zm0 40a1 1 0 0 0-1 1v1a1 1 0 1 0 2 0v-1a1 1 0 0 0-1-1zm22-21h-1a1 1 0 1 0 0 2h1a1 1 0 1 0 0-2zm-43 0H8a1 1 0 1 0 0 2h1a1 1 0 1 0 0-2zm35.849-15.264l-.707.707a.999.999 0 1 0 1.414 1.414l.707-.707a.999.999 0 1 0-1.414-1.414zM14.444 44.021l-.707.707a.999.999 0 1 0 1.414 1.414l.707-.707a.999.999 0 1 0-1.414-1.414zm31.112 0a.999.999 0 1 0-1.414 1.414l.707.707a.997.997 0 0 0 1.414 0 .999.999 0 0 0 0-1.414l-.707-.707zM15.151 13.615a.999.999 0 1 0-1.414 1.414l.707.707a.997.997 0 0 0 1.414 0 .999.999 0 0 0 0-1.414l-.707-.707z"/></symbol><symbol viewBox="0 0 299.997 299.997" id="email" xmlns="http://www.w3.org/2000/svg"><path d="M149.996 0C67.157 0 .001 67.158.001 149.997c0 82.837 67.156 150 149.995 150s150-67.163 150-150C299.996 67.158 232.835 0 149.996 0zm.003 52.686l88.763 55.35H61.236l88.763-55.35zm89.869 143.737h-.009c0 8.878-7.195 16.072-16.072 16.072H76.211c-8.878 0-16.072-7.195-16.072-16.072v-84.865c0-.939.096-1.852.252-2.749l84.808 52.883c.104.065.215.109.322.169.112.062.226.122.34.179a8.903 8.903 0 0 0 1.847.721c.065.018.13.026.195.041a9.148 9.148 0 0 0 2.093.265h.015c.7 0 1.401-.099 2.093-.265.065-.016.13-.023.195-.041a8.99 8.99 0 0 0 1.847-.721 9.19 9.19 0 0 0 .34-.179c.106-.06.218-.104.322-.169l84.808-52.883c.156.897.252 1.808.252 2.749v84.865z"/></symbol><symbol viewBox="0 0 511.999 511.999" id="feedback" xmlns="http://www.w3.org/2000/svg"><path d="M80.408 464.663a25.37 25.37 0 0 1-10.812-2.429c-9.422-4.43-15.116-14.006-14.508-24.401l3.266-55.782H33.326C14.95 382.051 0 367.102 0 348.725V167.088c0-18.377 14.95-33.326 33.326-33.326h283.892c18.377 0 33.326 14.95 33.326 33.326v181.637c0 18.376-14.95 33.326-33.326 33.326H285.82c-7.631 0-13.817-6.186-13.817-13.817s6.186-13.817 13.817-13.817h31.399a5.699 5.699 0 0 0 5.693-5.693V167.088a5.699 5.699 0 0 0-5.693-5.693H33.326a5.7 5.7 0 0 0-5.693 5.693v181.637a5.7 5.7 0 0 0 5.693 5.693h39.678a13.817 13.817 0 0 1 13.794 14.625l-3.786 64.655 81.054-75.569a13.818 13.818 0 0 1 9.422-3.711h48.656c7.631 0 13.817 6.186 13.817 13.817s-6.186 13.817-13.817 13.817h-43.215L97.64 457.839c-4.807 4.483-10.971 6.824-17.232 6.824z"/><path d="M478.674 61.153H194.781c-10.774 0-19.51 8.735-19.51 19.509v66.918h141.947c10.774 0 19.509 8.735 19.509 19.51v114.719h1.784l85.268 79.497c7.595 7.081 19.945 1.275 19.338-9.092l-4.123-70.407h39.678c10.774 0 19.509-8.735 19.509-19.509V80.662c.002-10.775-8.733-19.509-19.507-19.509z"/><path d="M431.548 378.242c-6.361 0-12.464-2.425-17.19-6.83l-82.07-76.515c-5.452-1.849-9.378-7.011-9.378-13.089V167.089a5.7 5.7 0 0 0-5.693-5.693H175.272c-7.631 0-13.817-6.186-13.817-13.817V80.662c0-18.377 14.95-33.326 33.326-33.326h283.892c18.376 0 33.326 14.95 33.326 33.326v181.637c0 18.376-14.95 33.326-33.326 33.326h-25.029l3.266 55.782c.413 7.054-1.995 13.733-6.781 18.808-4.81 5.101-11.583 8.027-18.581 8.027zm-81.003-104.105l78.443 73.133-3.786-64.654a13.818 13.818 0 0 1 13.794-14.625h39.678a5.7 5.7 0 0 0 5.693-5.693V80.662a5.7 5.7 0 0 0-5.693-5.693H194.781a5.699 5.699 0 0 0-5.693 5.693v53.101h128.13c18.376 0 33.326 14.95 33.326 33.326v107.048h.001z"/><path d="M256 240.424H90.197c-7.631 0-13.817-6.186-13.817-13.817s6.186-13.817 13.817-13.817H256c7.631 0 13.817 6.186 13.817 13.817s-6.186 13.817-13.817 13.817zm-21.878 70.848H112.073c-7.631 0-13.817-6.186-13.817-13.817s6.186-13.817 13.817-13.817h122.049c7.631 0 13.817 6.186 13.817 13.817s-6.186 13.817-13.817 13.817z"/></symbol><symbol viewBox="0 0 588.601 588.6" id="file--doc" xmlns="http://www.w3.org/2000/svg"><path d="M181.285 256.98c-15.915.274-25.088 15.952-25.088 36.698 0 20.903 9.471 35.807 25.239 36.08 16.158.29 25.537-15.445 25.537-36.713-.006-19.633-9.224-36.344-25.688-36.065zm-113.023 2.241c-4.736.076-7.781.577-9.574 1.062v66.564c1.793.484 4.704.543 7.338.585 19.388.485 32.234-10.99 32.234-35.78.145-21.549-11.572-32.75-29.998-32.431z"/><path d="M359.031 537.78c.781.042 1.551.111 2.342.111h178.2c20.846 0 37.8-16.96 37.8-37.801V86.994c0-20.838-16.954-37.8-37.8-37.8h-178.2c-.786 0-1.561.077-2.342.113V0L11.228 46.417v494.564L359.031 588.6v-50.82zm2.342-466.982h178.2c8.933 0 16.2 7.27 16.2 16.2v413.103c0 8.928-7.268 16.2-16.2 16.2h-178.2c-.796 0-1.571-.127-2.342-.242V383.991h160.145c3.955 0 7.161-3.201 7.161-7.15a7.152 7.152 0 0 0-7.161-7.151H359.031v-43.886h160.145c3.955 0 7.161-3.206 7.161-7.15 0-3.955-3.206-7.15-7.161-7.15H359.031V268.98h160.145c3.955 0 7.161-3.199 7.161-7.151s-3.206-7.148-7.161-7.148H359.031v-42.926h75.252a7.153 7.153 0 0 0 7.151-7.151 7.154 7.154 0 0 0-7.151-7.153h-75.252V71.036c.771-.114 1.54-.238 2.342-.238zM105.464 333.06c-10.223 8.87-25.574 12.762-44.01 12.276-10.887-.295-18.512-1.239-23.67-2.12V244.35c7.604-1.54 17.595-2.544 28.242-2.813 17.961-.472 29.787 2.764 39.15 10.102 10.18 7.868 16.611 20.692 16.611 39.227.001 20.088-6.884 33.841-16.323 42.194zm74.714 16.063c-30.649-.817-48.157-24.928-48.157-54.986 0-31.622 19.322-55.764 49.884-56.576 32.74-.862 51.057 24.113 51.057 54.662 0 36.302-21.679 57.728-52.784 56.9zm128.092-18.162c8.068.137 17.107-1.424 22.465-3.392l4.103 20.53c-5.01 2.277-16.189 4.556-30.586 4.166-39.92-1.055-59.927-25.534-59.927-57.244 0-37.966 27.433-59.827 62.543-60.75 13.9-.367 24.574 2.102 29.415 4.39l-5.548 20.909c-5.526-2.144-13.152-4.076-22.645-3.921-20.975.351-37.009 12.825-37.009 37.9 0 22.573 13.624 37.006 37.189 37.412z"/><path d="M477.394 226.081l6.629-26.935c1.693-6.544 2.806-12.062 3.829-18.183h.163c.675 6.199 1.692 11.639 3.138 18.183l5.959 26.935h11.222l15.367-57.268H513.08l-5.948 25.917c-1.529 6.963-2.89 13.505-3.907 19.796h-.18c-.839-6.204-2.035-12.577-3.476-19.377l-5.695-26.336h-10.958l-6.196 25.917c-1.624 7.219-3.254 14.017-4.171 20.049h-.158c-.938-5.693-2.3-13.004-3.75-19.965l-5.437-25.995h-11.127l14.022 57.267h11.295v-.005z"/></symbol><symbol viewBox="0 0 585.918 585.918" id="file--docx" xmlns="http://www.w3.org/2000/svg"><path d="M62.308 274.521c-3.226.056-5.323.398-6.554.737v46.331c1.231.337 3.237.378 5.042.409 13.263.347 22.05-7.621 22.05-24.87.097-14.996-7.921-22.799-20.538-22.607z"/><path d="M357.396 535.33c.776.047 1.542.109 2.329.109h177.39c20.75 0 37.627-16.883 37.627-37.627V86.597c0-20.743-16.877-37.628-37.627-37.628h-177.39c-.781 0-1.553.077-2.329.113V0L11.176 46.206v492.311l346.22 47.401V535.33zm0-297.377h187.009V365.17H357.396V237.953zm125.954-10.751H357.396v-50.308H483.35v50.308zm53.765 286.747h-177.39c-.792 0-1.563-.127-2.329-.243V375.921H553.24v121.901c0 8.893-7.232 16.127-16.125 16.127zM359.726 70.476h177.39c8.893 0 16.125 7.236 16.125 16.126v140.6h-59.14v-61.059H357.396V70.711c.766-.112 1.533-.235 2.33-.235zM87.786 325.94c-7.003 6.163-17.512 8.861-30.129 8.51-7.455-.199-12.681-.861-16.21-1.479v-68.836c5.207-1.058 12.05-1.746 19.349-1.918 12.284-.31 20.379 1.953 26.783 7.076 6.961 5.489 11.368 14.416 11.368 27.304 0 13.978-4.715 23.545-11.161 29.343zm51.067 11.219c-20.943-.578-32.924-17.365-32.924-38.269 0-22 13.217-38.77 34.113-39.292 22.352-.559 34.864 16.819 34.864 38.059-.001 25.224-14.815 40.105-36.053 39.502zm87.42-12.525c5.499.104 11.664-.981 15.31-2.347l2.8 14.263c-3.415 1.575-11.037 3.149-20.851 2.877-27.223-.767-40.879-17.791-40.879-39.821 0-26.39 18.717-41.544 42.675-42.141 9.47-.236 16.743 1.488 20.044 3.092l-3.79 14.507c-3.759-1.494-8.956-2.848-15.433-2.745-14.311.221-25.227 8.863-25.227 26.289.002 15.68 9.291 25.72 25.351 26.026zm76.172 15.779l-7.98-15.265c-3.251-5.838-5.322-10.164-7.766-14.981h-.265c-1.806 4.761-3.986 9.019-6.664 14.719l-7.129 14.704-21.733-.594 24.4-40.866-23.539-39.999 21.887-.527 7.514 14.858a255.465 255.465 0 0 1 6.554 13.648h.252c2.082-5.293 3.758-9.005 5.961-13.836l7.457-15.341 23.16-.56-25.261 41.289 26.614 43.382-23.462-.631z"/><path d="M139.605 273.097c-10.875.171-17.142 11.061-17.142 25.495 0 14.53 6.478 24.897 17.25 25.103 11.047.21 17.438-10.715 17.438-25.497 0-13.651-6.288-25.279-17.546-25.101zm247.25-19.469a7.168 7.168 0 0 1 7.17 7.165c0 3.955-3.212 7.165-7.17 7.165s-7.16-3.21-7.16-7.165a7.16 7.16 0 0 1 7.16-7.165zm18.164 4.477h109.304v5.375H405.019zm-18.164 21.508a7.168 7.168 0 0 1 7.17 7.165c0 3.955-3.212 7.168-7.17 7.168s-7.16-3.213-7.16-7.168a7.16 7.16 0 0 1 7.16-7.165zm18.164 4.472h109.304v5.375H405.019zm-18.164 23.477c3.958 0 7.17 3.212 7.17 7.165 0 3.958-3.212 7.167-7.17 7.167s-7.16-3.209-7.16-7.167a7.163 7.163 0 0 1 7.16-7.165zm18.164 4.478h109.304v5.375H405.019zm-18.164 21.953a7.169 7.169 0 0 1 7.17 7.165c0 3.958-3.212 7.166-7.17 7.166s-7.16-3.208-7.16-7.166a7.16 7.16 0 0 1 7.16-7.165zm18.164 4.473h109.304v5.375H405.019z"/></symbol><symbol viewBox="0 0 585.918 585.918" id="file--html" xmlns="http://www.w3.org/2000/svg"><path d="M357.4 535.325c.767.052 1.543.114 2.33.114h177.39c20.745 0 37.627-16.883 37.627-37.627V86.597c0-20.743-16.882-37.628-37.627-37.628H359.73c-.782 0-1.563.07-2.33.113V0L11.17 46.206v492.311l346.23 47.401v-50.593zm2.33-464.849h177.39c8.892 0 16.125 7.236 16.125 16.126v411.22c0 8.893-7.233 16.127-16.125 16.127H359.73c-.792 0-1.563-.127-2.33-.243V331.248l24.326 11.308v-18.194L357.4 313.715v-33.598l24.326-10.654v-18.189L357.4 262.577V70.707c.767-.113 1.533-.231 2.33-.231zM92.99 343.238l-15.95-.399V310.85l-25.597-.096v31.443l-15.17-.377v-74.369l15.17-.396v28.869l25.597-.163v-29.383l15.95-.416v77.276zm66.424-63.702l-20.974.339v64.496l-17.029-.431v-63.774l-19.665.333v-14.762l57.673-1.522v15.32h-.005zm79.824 67.377l-1.28-32.474c-.365-10.184-.756-22.5-.756-34.816l-.388.011c-2.667 10.826-6.203 22.88-9.494 32.748l-10.244 32.6-14.66-.348-8.745-32.143c-2.636-9.663-5.396-21.359-7.315-32.063l-.244.005c-.473 11.087-.836 23.748-1.438 33.964l-1.42 31.108-16.633-.415 5.042-81.204 24.19-.632 8.031 27.488c2.564 9.597 5.145 19.959 6.995 29.733l.365.005c2.354-9.643 5.208-20.679 7.94-30l9.018-28.087 25.46-.671 4.811 85.672-19.235-.481zm92.64 2.315l-57.951-1.449V261.19l20.609-.542v70.989l37.342.579v17.012z"/><path d="M448.478 225.013h-17.323L394.44 349.411h17.323zm92.315 64.001l-82.352-37.746v18.184l63.664 27.286v.348l-63.664 27.27v18.189l82.352-37.743z"/></symbol><symbol viewBox="0 0 588.6 588.6" id="file--jpg" xmlns="http://www.w3.org/2000/svg"><path d="M155.629 270.005c-5.071.092-8.511.659-10.304 1.197v33.813c2.112.517 4.714.675 8.332.664 13.365-.011 21.687-7.088 21.687-18.969-.005-10.68-7.166-16.921-19.715-16.705z"/><path d="M359.036 537.78c.771.042 1.551.111 2.342.111h178.2c20.84 0 37.8-16.96 37.8-37.801V86.994c0-20.838-16.96-37.8-37.8-37.8h-178.2c-.786 0-1.571.077-2.342.113V0L11.222 46.417v494.564L359.036 588.6v-50.82zm2.342-466.982h178.2c8.933 0 16.199 7.27 16.199 16.2v332.535c-13.837-35.596-30.797-83.547-56.389-77.003-30.575 7.815-45.837 79.229-45.837 79.229h102.236v78.342c0 8.934-7.271 16.2-16.2 16.2H361.389c-.802 0-1.572-.121-2.347-.232v-94.32h94.505s-15.641-80.584-58.788-123.757c-12.329-12.332-24.554-7.483-35.723 5.706V199.76c4.73 7.549 13.062 12.604 22.645 12.604 14.776 0 26.747-11.965 26.747-26.744 0-14.781-11.971-26.736-26.747-26.736-9.582 0-17.914 5.055-22.645 12.599V71.036c.771-.114 1.54-.238 2.342-.238zM100.965 323.583c0 31.973-14.288 42.757-36.893 42.161-5.265-.132-12.161-1.308-16.643-3.037l2.555-19.939c3.132 1.197 7.172 2.072 11.686 2.141 9.682.164 15.789-4.503 15.789-21.811v-69.859l23.512-.606v70.951h-.006zm89.353-9.982c-8.775 8.442-21.642 12.149-36.492 12.039-3.267-.021-6.22-.216-8.5-.564v40.943l-24.311-.622V253.626c7.512-1.54 18.138-2.824 33.296-3.227 15.525-.401 26.736 2.407 34.312 8.456 7.317 5.745 12.248 15.406 12.248 26.892-.006 11.506-3.748 21.262-10.553 27.854zm38.433 39.751c-10.8-10.395-16.698-25.882-16.52-43.211.169-39.208 28.669-62.369 68.473-63.41 16.032-.422 28.54 2.354 34.742 5.112l-6.022 22.407c-6.93-2.816-15.456-5.033-29.099-4.807-23.014.382-40.131 13.423-40.131 39.289 0 24.633 15.49 39.42 38.129 39.799 6.402.105 11.559-.537 13.774-1.582v-25.533l-19.066-.111v-21.379l46.585-.179V364.8c-8.875 2.716-25.463 6.297-41.839 5.88-22.258-.59-38.108-6.496-49.026-17.328z"/><path d="M472.004 276.734c5.4 0 10.452-.556 14.945-1.466 5.236 2.247 11.591 3.591 18.515 3.591 17.671 0 32.01-8.654 32.01-19.309 0-10.676-14.328-19.322-32.01-19.322-6.645 0-12.793 1.215-17.919 3.298-2.089-2.02-4.91-3.298-8.042-3.298h-4.641c-5.928 0-10.632 4.503-11.307 10.249-14.364 1.497-24.975 6.671-24.975 12.88-.01 7.387 14.956 13.377 33.424 13.377z"/></symbol><symbol viewBox="0 0 588.6 588.6" id="file--pdf" xmlns="http://www.w3.org/2000/svg"><path d="M162.643 247.503c-5.719.084-9.384.654-11.549 1.213v75.774c2.16.554 5.674.617 8.849.68 23.382.623 38.908-12.413 38.908-40.666.168-24.571-13.965-37.34-36.208-37.001z"/><path d="M359.036 537.78c.771.042 1.551.111 2.342.111h178.2c20.84 0 37.8-16.96 37.8-37.801V86.994c0-20.838-16.96-37.8-37.8-37.8h-178.2c-.786 0-1.571.077-2.342.113V0L11.222 46.417v494.564L359.036 588.6v-50.82zm180.542-21.479h-178.2c-.797 0-1.571-.127-2.342-.242v-162.08c37.131-6.417 88.694-11.274 133.292-.796l5.278 10.235c21.289 40.253 44.028 39.989 52.813 38.006 2.015-.453 3.101-.959 3.101-.959l1.182-.628c.4-.253.712-.575 1.075-.849V500.1c0 8.929-7.266 16.201-16.199 16.201zM374.15 334.768c27.906-34.034 50.456-65.807 64.979-87.325l.053.119.158-.243c11.401 24.036 30.196 61.214 43.137 86.59l-.042-.011.443.85c-36.798-6.286-76.312-3.992-108.812.501l.475-.554-.391.073zm65.644-158.81c1.118-1.972 2.753-2.494 5.685-2.365.053.005 5.875.387 8.047 4.375 1.318 2.375 3.228 9.908-7.045 28.278h-.011s-1.329 2.21-3.828 6.199c-5.759-20.223-5.379-32.032-2.848-36.487zm74.313 183.854c10.557 4.061 20.039 9.065 28.339 14.981 2.384 3.386 4.588 8.259 4.188 10.558a1.009 1.009 0 0 1-.105.332c-3.408.628-16.961 1.05-32.422-25.871zM361.378 70.798h178.2c8.933 0 16.199 7.27 16.199 16.2v278.614a35.344 35.344 0 0 0-1.202-1.64l-.686-.887-.896-.664c-13.827-10.094-30.491-17.872-49.581-23.129-13.61-26.578-41.797-81.974-53.646-107.916 6.861-10.568 10.547-16.728 10.716-17.01 10.689-19.056 13.025-33.932 7.114-44.426-5.358-9.498-16.031-12.351-21.484-12.532-8.817-.401-16.337 3.37-20.419 10.552-6.223 10.966-4.936 30.175 3.86 57.056.391 1.242 1.018 2.834 1.846 4.838-14.091 21.312-39.656 58.174-72.367 97.767V71.036c.775-.114 1.544-.238 2.346-.238zM100.311 290.957c-8.224 8.158-20.313 11.718-34.267 11.591-3.069-.031-5.843-.221-7.986-.569v39.698l-22.842-.633V232.659c7.056-1.469 17.041-2.689 31.292-3.035 14.562-.356 25.109 2.402 32.221 8.277 6.858 5.579 11.485 14.958 11.485 26.087 0 11.14-3.52 20.585-9.903 26.969zm107.238 40.758c-12.337 10.066-30.881 14.454-53.135 13.832-13.11-.375-22.307-1.477-28.506-2.5V230.563c9.152-1.743 21.188-2.888 34.035-3.201 21.676-.53 35.955 3.159 47.271 11.538 12.287 8.98 20.084 23.599 20.084 44.745 0 22.921-8.321 38.588-19.749 48.07zm37.7-105.521l76.842-1.835v23.106l-48.877.709v27.891l45.628-.113v22.884l-45.628-.316v49.096l-27.973-.771v-120.65h.008z"/><path d="M67.745 248.622c-4.77.074-7.992.614-9.683 1.139v32.777c1.98.498 4.438.665 7.834.665 12.551.01 20.363-6.837 20.363-18.344.001-10.353-6.725-16.427-18.514-16.237z"/></symbol><symbol viewBox="0 0 585.918 585.918" id="file--png" xmlns="http://www.w3.org/2000/svg"><path d="M60.431 245.144c-4.607.092-7.73.617-9.342 1.145v32.14c1.909.478 4.284.635 7.546.63 12.126-.016 19.664-6.735 19.664-18.024 0-10.145-6.477-16.079-17.868-15.891z"/><path d="M357.4 535.33c.767.042 1.543.109 2.33.109h177.39c20.745 0 37.627-16.883 37.627-37.627V86.597c0-20.743-16.882-37.628-37.627-37.628H359.73c-.782 0-1.563.077-2.33.113V0L11.17 46.206v492.311l346.23 47.401V535.33zm195.845-246.91h-39.234v-42.408h39.234v42.408zm-38.918 42.408h38.918v42.405h-38.918v-42.405zM359.73 70.476h177.39c8.892 0 16.125 7.236 16.125 16.126v118.027h-35.202c-1.606 0-3.107-.375-4.472-1.01v42.394h-41.966v42.408h41.966v42.408h-41.66v42.405h41.975v42.404h39.359v82.185c0 8.893-7.233 16.127-16.125 16.127H359.73c-.792 0-1.563-.121-2.33-.232v-98.079h29.522v-42.41H357.4v-42.404h29.218V288.42H357.4v-42.408h29.218v-42.409H357.4V70.711c.767-.112 1.533-.235 2.33-.235zM91.882 286.583c-7.95 8.019-19.62 11.536-33.079 11.436-2.984-.021-5.662-.199-7.719-.54v38.93l-22.077-.561V229.556c6.827-1.451 16.471-2.667 30.224-3.028 14.089-.37 24.255 2.318 31.108 8.07 6.621 5.465 11.094 14.636 11.094 25.549.006 10.906-3.396 20.179-9.551 26.436zm115.952 53.841l-26.929-.693-23.706-44.703c-6.5-12.213-13.593-26.882-18.912-40.127l-.473.165c.641 14.961.969 30.942.969 49.442v34.147l-22.205-.571V225.855l28.305-.735 22.783 41.501c6.606 12.095 13.239 26.483 18.239 39.561l.504.004c-1.672-15.296-2.171-30.923-2.171-48.266v-33.816l23.601-.614v116.933h-.005zm124.936-2.473c-8.861 2.709-25.513 6.284-41.9 5.854-22.308-.577-38.192-6.477-49.116-17.303-10.834-10.372-16.733-25.848-16.557-43.139.167-39.166 28.727-62.29 68.602-63.339 16.073-.418 28.598 2.344 34.825 5.112l-6.038 22.374c-6.938-2.801-15.506-5.032-29.151-4.801-23.067.386-40.209 13.418-40.209 39.245 0 24.602 15.518 39.362 38.192 39.741 6.412.115 11.588-.524 13.813-1.57v-25.507l-19.12-.104v-21.352l46.658-.178v64.967z"/><path d="M513.527 203.609l.044.016v-.016zm-84.64 127.219h-41.65v42.4h41.965v42.41h42.403v-42.41h-41.962v-42.4h41.659V288.42h-41.964v-42.407h41.964v-42.404h-41.964v-42.408h-42.415v42.408h41.964v42.404h-41.964v42.407h41.964zm42.718-169.627v42.408h41.922l-.041-42.408z"/></symbol><symbol viewBox="0 0 588.601 588.6" id="file--rar" xmlns="http://www.w3.org/2000/svg"><path d="M359.031 537.78c.781.042 1.551.111 2.342.111h178.2c20.846 0 37.8-16.96 37.8-37.801V86.994c0-20.838-16.954-37.8-37.8-37.8h-178.2c-.786 0-1.561.077-2.342.113V0L11.228 46.417v494.564L359.031 588.6v-50.82zm2.342-466.982h178.2c8.933 0 16.2 7.27 16.2 16.2v413.103c0 8.928-7.268 16.2-16.2 16.2h-178.2c-.796 0-1.571-.127-2.342-.242V368.761h104.583v-20.414h81.802v-27.743H499.7V309.62h18.052v-8.137H499.7v-9.461h18.052v-8.14H499.7v-9.244h18.052v-8.132H499.7v-7.14h45.716v-27.744h-81.802v27.744h27.665v61.238h-27.665v26.515H359.031v-9.893h83.542v-94.458h-83.542v-11.14h104.583v-21.666H359.031V71.036c.771-.114 1.54-.238 2.342-.238zM89.119 360.75c-1.708-3.201-4.187-12.393-7.291-26.214-2.776-13.938-7.235-17.782-16.73-18.024l-6.982-.053v43.41l-22.594-.633V251.451c7.27-1.469 18.214-2.705 30.489-3.003 15.348-.356 26.211 1.88 33.739 8.058 6.296 5.242 9.795 13.057 9.795 23.461 0 14.428-9.637 24.3-18.71 27.781v.495c7.349 3.201 11.42 10.748 14.12 21.152 3.322 12.788 6.655 27.627 8.711 32.057l-24.547-.702zm106.32 3.001l-8.883-30.291-32.326-.485-7.889 29.395-25.626-.733 33.515-114.415 33.519-.783 36.12 118.104-28.43-.792zm108.907 3.064c-2.066-3.527-5.062-13.632-8.796-28.814-3.354-15.318-8.754-19.532-20.166-19.807l-8.417-.074v47.636l-27.179-.771V246.833c8.754-1.626 21.919-3.003 36.682-3.354 18.513-.438 31.641 1.993 40.722 8.77 7.636 5.74 11.833 14.341 11.833 25.774 0 15.87-11.633 26.729-22.617 30.541v.554c8.886 3.522 13.832 11.817 17.075 23.267 3.992 14.069 8.031 30.396 10.536 35.269l-29.673-.839z"/><path d="M170.032 266.506h-.33c-1.69 6.916-3.354 15.712-5.189 22.431l-6.642 24.542 24.954.158-7.08-24.753c-2.019-6.897-4.034-15.499-5.713-22.378zm109.571-2.678c-6.805.103-10.624.696-12.635 1.083v33.439l10.977-.006c14.051-.01 22.468-6.939 22.468-17.697-.001-11.296-7.851-16.83-20.81-16.819zm-210.99 3.169c-5.632.087-8.828.628-10.492.979v30.47h9.121c11.654-.011 18.626-6.317 18.626-16.1 0-10.3-6.508-15.344-17.255-15.349z"/></symbol><symbol viewBox="0 0 585.918 585.918" id="file--rtf" xmlns="http://www.w3.org/2000/svg"><path d="M574.742 86.602c0-20.743-16.871-37.628-37.627-37.628h-177.39c-.781 0-1.553.076-2.329.123V0L11.176 46.206v492.311l346.22 47.401v-50.583c.776.053 1.542.115 2.329.115h177.39c20.756 0 37.627-16.888 37.627-37.628V86.602zm-90.3 114.749v171.194H357.396V360.34h119.99v-10.75h-119.99v-16.692h50.227v-10.751h-50.227V306.02h50.227v-10.751h-50.227v-15.223h121.449v-10.751H357.396v-25.893l8.598-17.097h21.975l2.546 20.092h8.026l-8.777-63.603h-9.244l-23.123 44.66v-57.35h98.436v31.247h28.609zm-20.714-7.897V175.69l17.765 17.764h-17.765zm53.69 174.372v-10.751h-25.081v-24.19h25.081v-10.749h-25.081v-26.321h25.081v-10.748h-25.081V219.1h6.908v31.247h28.61v171.196H384.477v-41.108h107.86v-12.604h25.081v-.005zM507.14 242.451v-17.766l17.766 17.766H507.14zm-138.328-22.393l9.528-18.486c1.896-3.876 3.495-7.833 5.186-11.611h.189c.283 3.779.761 8.401 1.135 11.708l2.457 18.394h-18.495v-.005zM91.92 364.78c-1.864-3.579-4.575-13.821-7.951-29.166-3.021-15.452-7.874-19.773-18.142-20.183l-7.53-.173v47.706l-24.194-1.312V243.848c7.766-1.622 19.48-3 32.709-3.338 16.664-.436 28.538 2.01 36.784 8.853 6.945 5.821 10.788 14.524 10.788 26.103 0 16.045-10.622 26.921-20.572 30.648v.556c8.052 3.654 12.551 12.097 15.499 23.707 3.669 14.278 7.347 30.894 9.628 35.874L91.92 364.78zm130.476-101.833l-36.019.381v106.585l-28.785-1.563V263.625l-32.801.349v-24.055l97.605-2.515v25.543zm104.78-1.753l-56.621.612v31.61l52.798.393v26.216l-52.798-1.155v55.607l-31.772-1.716V236.984l88.393-2.273v26.483zM553.24 497.822c0 8.888-7.232 16.127-16.125 16.127h-177.39c-.792 0-1.563-.116-2.329-.232V380.424h19.181v48.999h159.168V242.139l-30.919-30.929h-12.489v-18.068l-30.919-30.93H357.396V70.717c.766-.113 1.532-.241 2.329-.241h177.39c8.893 0 16.125 7.236 16.125 16.126v411.22z"/><path d="M69.612 260.938c-6.079.076-9.52.656-11.315 1.037v33.483l9.842.094c12.638.127 20.229-6.771 20.229-17.601-.005-11.391-7.092-16.988-18.756-17.013zm339.806-45.408h69.428v10.751h-69.428zm0 27.318h69.428v10.75h-69.428zM393.69 391.91h123.728v10.751H393.69zm57.712-61.282l-2.174-6.938c-18.142-48.883-30.299 5.596-30.299 5.596l-.799 3.358h56.568c-15.222-29.785-23.296-2.016-23.296-2.016z"/></symbol><symbol viewBox="0 0 585.918 585.918" id="file--xls" xmlns="http://www.w3.org/2000/svg"><path d="M11.176 46.207v492.31l346.22 47.401v-50.583c.776.053 1.542.115 2.329.115h177.39c20.745 0 37.627-16.888 37.627-37.628V86.602c0-20.743-16.882-37.628-37.627-37.628h-177.39c-.787 0-1.553.076-2.329.123V0L11.176 46.207zm346.22 308.915H435.9v34.939h-78.504v-34.939zm0-45.69V274.49H435.9v34.942h-78.504zm-256.781 41.37l-9.659-21.345c-3.913-8.151-6.406-14.161-9.352-20.855l-.317-.006c-2.161 6.578-4.78 12.437-7.988 20.279l-8.504 20.168-25.69-1.254 28.866-55.881-27.856-54.79 25.882-1.063 8.979 20.411c3.068 6.858 5.386 12.427 7.863 18.839h.305c2.496-7.347 4.522-12.501 7.184-19.22l9.014-21.399 28.302-1.173-30.845 57.819 32.517 60.872-28.701-1.402zm118.222 5.785l-75.733-3.7V232.875l26.564-1.098v99.156l49.164 1.565v24.089h.005zm50.195 4.404c-15.527-.787-30.541-5.35-37.927-9.691l6.013-23.747c8.047 4.241 20.588 8.692 33.753 9.134 14.455.483 22.205-4.998 22.205-13.717 0-8.325-6.708-13.182-23.431-19.082-22.501-7.736-36.812-19.602-36.812-38.231 0-21.85 18.869-39.386 51.245-40.772 15.981-.682 27.992 2.016 36.687 5.294l-7.398 24.985c-5.825-2.473-16.067-6.008-29.918-5.654-13.594.354-20.098 6.355-20.098 13.142 0 8.349 7.73 11.972 25.735 18.325 25.368 8.73 37.609 21.306 37.609 40.55.002 22.913-18.926 41.417-57.663 39.464zm90.694-290.515h177.39c8.893 0 16.125 7.236 16.125 16.126v411.22c0 8.893-7.232 16.127-16.125 16.127h-177.39c-.797 0-1.563-.116-2.329-.232V395.438h173.024v-166.64H357.396V70.72c.766-.116 1.533-.244 2.33-.244zm165.32 204.013v34.942h-83.765v-34.942h83.765zm-83.765-5.376v-34.94h83.765v34.94h-83.765zm83.765 86.009v34.939h-83.765v-34.939h83.765z"/></symbol><symbol viewBox="0 0 588.601 588.6" id="file--xlsx" xmlns="http://www.w3.org/2000/svg"><path d="M359.031 537.786c.781.053 1.551.115 2.342.115h178.2c20.841 0 37.8-16.964 37.8-37.8V86.999c0-20.838-16.959-37.8-37.8-37.8h-178.2c-.791 0-1.561.076-2.342.124V0L11.228 46.417v494.564L359.031 588.6v-50.814zm2.342-466.982h178.2c8.933 0 16.2 7.269 16.2 16.2v413.097c0 8.934-7.268 16.2-16.2 16.2h-178.2c-.802 0-1.571-.11-2.342-.232v-118.82H538.76V229.851H359.031V71.046c.771-.118 1.54-.242 2.342-.242zm82.445 285.945v35.1h-84.154v-35.1h84.154zm-84.154-45.901V275.75h84.154v35.098h-84.154zm173.697-35.098v35.098h-84.144V275.75h84.144zm-84.143-5.399V235.25h84.144v35.101h-84.144zm84.143 86.398v35.1h-84.144v-35.1h84.144zM77.688 339.167l-7.159-16.168c-2.906-6.181-4.77-10.758-6.961-15.853l-.232-.005c-1.616 5.01-3.57 9.486-5.967 15.467l-6.373 15.436-19.375-.817 21.756-42.837-20.994-42.124 19.514-.545 6.719 15.66c2.294 5.255 4.023 9.5 5.875 14.401h.221c1.859-5.576 3.365-9.481 5.342-14.573l6.684-16.179 20.849-.577-22.734 43.563 23.955 46.032-21.12-.881zm85.596 3.607l-54.388-2.289v-90.337l19.251-.54v74.271l35.137 1.019v17.876zm35.208 2.91c-10.832-.464-21.347-3.744-26.552-6.908l4.24-17.598c5.647 3.117 14.423 6.355 23.588 6.64 10.017.301 15.356-3.739 15.356-10.136 0-6.085-4.628-9.635-16.206-13.975-15.709-5.732-25.758-14.528-25.758-28.326 0-16.176 13.242-28.938 35.754-29.592 11.017-.316 19.256 1.788 25.187 4.271l-5.05 18.151c-3.986-1.849-11.021-4.522-20.574-4.369-9.424.145-13.948 4.509-13.948 9.514 0 6.141 5.374 8.846 17.843 13.587 17.418 6.46 25.769 15.636 25.769 29.646.01 16.661-12.917 30.25-39.649 29.095zm111.819 3.28l-10.035-19.195c-4.063-7.33-6.661-12.751-9.73-18.789h-.322c-2.251 5.911-4.986 11.185-8.34 18.246l-8.864 18.156-26.892-1.128 30.201-50.352-29.138-49.599 27.092-.752 9.368 18.457a312.664 312.664 0 0 1 8.192 17.004h.324c2.587-6.597 4.693-11.219 7.465-17.247l9.354-19.175 29.331-.817-31.957 51.706 33.677 54.729-29.726-1.244z"/></symbol><symbol viewBox="0 0 487.803 487.803" id="glasses" xmlns="http://www.w3.org/2000/svg"><path d="M480.6 296.133L416 91.033c-9.1-29.9-40.9-46.8-70.8-37.7-7.1 2.2-11.2 9.7-9 16.8s9.7 11.2 16.8 9c15.7-4.8 32.3 4.1 37.1 19.8v.1l46.2 146.9c-14.7-8.3-31.6-13-49.6-13-51.8 0-94.6 39.2-100.4 89.4h-85c-6.6-49.4-49-87.6-100.2-87.6-18.1 0-35.1 4.8-49.8 13.1l46.8-148.8v-.1c4.8-15.7 21.4-24.6 37.1-19.8 7.1 2.2 14.7-1.9 16.8-9 2.2-7.1-1.9-14.7-9-16.8-29.9-9.1-61.6 7.8-70.8 37.7l-64.4 205.3c-.2.6-.3 1.1-.4 1.7-4.7 11.7-7.4 24.5-7.4 37.8 0 55.7 45.4 101.1 101.1 101.1 51.2 0 93.6-38.2 100.2-87.6h85.5c7.4 48.5 49.4 85.8 99.9 85.8 55.7 0 101.1-45.4 101.1-101.1.1-13.4-2.5-26.2-7.2-37.9zm-379.4 113.8c-40.9 0-74.1-33.2-74.1-74.1s33.2-74.1 74.1-74.1 74.1 33.2 74.1 74.1-33.3 74.1-74.1 74.1zm285.6-1.8c-40.9 0-74.1-33.2-74.1-74.1s33.3-74.1 74.1-74.1 74.1 33.2 74.1 74.1-33.2 74.1-74.1 74.1z"/></symbol><symbol viewBox="0 0 485.213 485.213" id="magnifier-tool" xmlns="http://www.w3.org/2000/svg"><path d="M363.909 181.955C363.909 81.473 282.44 0 181.956 0 81.474 0 .001 81.473.001 181.955s81.473 181.951 181.955 181.951c100.484 0 181.953-81.469 181.953-181.951zM181.956 318.416c-75.252 0-136.465-61.208-136.465-136.46 0-75.252 61.213-136.465 136.465-136.465 75.25 0 136.468 61.213 136.468 136.465 0 75.252-61.218 136.46-136.468 136.46zm289.926 89.151L360.567 296.243a214.267 214.267 0 0 1-64.331 64.321L407.56 471.888c17.772 17.768 46.587 17.768 64.321 0 17.773-17.739 17.773-46.554.001-64.321z"/></symbol><symbol viewBox="0 0 496 496" id="menu--corruption" xmlns="http://www.w3.org/2000/svg"><path d="M352 368v24h-21.496c-14.96 0-29.016-5.824-39.592-16.4l-54.632-54.624c-5.784-5.792-13.464-8.976-21.656-8.976-16.88 0-30.624 13.736-30.624 30.632 0 8.176 3.184 15.864 8.968 21.656l32 32c4.472 4.464 7.032 10.648 7.032 16.968V432h16v-18.744c0-10.68-4.168-20.728-11.72-28.28l-32-32a14.555 14.555 0 0 1-4.28-10.344c0-8.072 6.56-14.632 14.624-14.632 3.848 0 7.616 1.56 10.344 4.288l54.632 54.624c13.592 13.6 31.672 21.088 50.904 21.088H352v42.584l-17.808 7.12a87.6 87.6 0 0 1-32.68 6.296H191.528c-4.568 0-9.184-.36-13.72-1.08l-48.008-7.576c-11.768-1.856-22.44-7.296-30.864-15.712L60.28 400.976A14.555 14.555 0 0 1 56 390.632C56 382.56 62.56 376 70.624 376c3.848 0 7.616 1.56 10.344 4.288l27.312 27.32c10.584 10.576 24.648 16.4 39.6 16.4h40.792c8.648 0 17.304-2.04 25.04-5.912l-7.16-14.312a40.318 40.318 0 0 1-17.88 4.216H147.88c-10.68 0-20.728-4.16-28.288-11.712L92.28 368.976C86.496 363.184 78.816 360 70.624 360 53.744 360 40 373.736 40 390.632c0 8.176 3.184 15.864 8.968 21.656l38.656 38.664c10.84 10.832 24.56 17.816 39.68 20.2l48.008 7.576c5.36.84 10.824 1.272 16.216 1.272h109.984c13.288 0 26.28-2.504 38.616-7.44L352 467.816V496h112V368H352zm96 112h-80v-96h16v80h16v-80h48v96zM45.656 301.656l96.52-96.52C149.256 216.416 161.72 224 176 224v16h16v-16c22.056 0 40-17.944 40-40 0-18.608-12.84-34.16-30.08-38.608L219.312 128H232v-8c0-1.456-.28-2.84-.432-4.256L333.656 13.656 322.344 2.344l-36.8 36.8C257.6 13.944 221.912 0 184 0 100.184 0 32 68.184 32 152c0 37.912 13.936 73.6 39.144 101.544l-36.8 36.8 11.312 11.312zM216 184c0 13.232-10.768 24-24 24h-16c-9.904 0-18.416-6.032-22.08-14.608L187.312 160H192c13.232 0 24 10.768 24 24zm-35.312-40H176c-13.232 0-24-10.768-24-24s10.768-24 24-24h16c9.904 0 18.416 6.032 22.08 14.608L180.688 144zm45.128-45.128C218.744 87.584 206.28 80 192 80V64h-16v16c-22.056 0-40 17.944-40 40 0 18.608 12.84 34.16 30.08 38.608L148.688 176H136v8c0 1.456.28 2.84.432 4.256l-31.352 31.352C88.904 200.776 80 177.088 80 152c0-57.344 46.656-104 104-104 25.096 0 48.776 8.896 67.608 25.08l-25.792 25.792zM48 152c0-74.992 61.008-136 136-136 33.64 0 65.328 12.264 90.232 34.456L262.92 61.768C241.048 42.584 213.368 32 184 32 117.832 32 64 85.832 64 152c0 29.36 10.584 57.048 29.768 78.92l-11.312 11.312C60.264 217.32 48 185.64 48 152z"/><path d="M96.008 275.8C121.92 294.248 152.344 304 184 304c83.816 0 152-68.184 152-152 0-31.656-9.752-62.08-28.192-87.992l-13.032 9.28C311.272 96.472 320 123.688 320 152c0 74.992-61.008 136-136 136-28.304 0-55.52-8.728-78.712-25.232l-9.28 13.032z"/><path d="M184 256c-19.84 0-39.208-5.696-56.008-16.472L119.352 253c19.376 12.432 41.736 19 64.648 19 66.168 0 120-53.832 120-120 0-22.904-6.568-45.256-19-64.648l-13.472 8.632C282.304 112.8 288 132.168 288 152c0 57.344-46.656 104-104 104z"/></symbol><symbol viewBox="0 0 512 512" id="menu--exam" xmlns="http://www.w3.org/2000/svg"><path d="M375.451 315.733a8.536 8.536 0 0 0-8.533-8.533h-51.2c-4.71 0-8.533 3.823-8.533 8.533s3.823 8.533 8.533 8.533h51.2c4.71.001 8.533-3.822 8.533-8.533zM341.317 93.867V51.2c0-4.71-3.823-8.533-8.533-8.533s-8.533 3.823-8.533 8.533v42.667c0 23.526 19.14 42.667 42.667 42.667h76.8v162.133c0 4.71 3.823 8.533 8.533 8.533s8.533-3.823 8.533-8.533V128a8.536 8.536 0 0 0-8.533-8.533h-85.333c-14.115 0-25.601-11.486-25.601-25.6zm25.6 110.933H298.65a8.536 8.536 0 0 0-8.533 8.533 8.536 8.536 0 0 0 8.533 8.533h68.267a8.536 8.536 0 0 0 8.533-8.533c.001-4.71-3.822-8.533-8.533-8.533zm-93.866 8.533a8.536 8.536 0 0 0-8.533-8.533h-51.2a8.536 8.536 0 0 0-8.533 8.533 8.536 8.536 0 0 0 8.533 8.533h51.2c4.71.001 8.533-3.822 8.533-8.533zM213.317 256a8.536 8.536 0 0 0-8.533 8.533 8.536 8.536 0 0 0 8.533 8.533h17.067a8.536 8.536 0 0 0 8.533-8.533 8.536 8.536 0 0 0-8.533-8.533h-17.067zm0-85.333h85.333a8.536 8.536 0 0 0 8.533-8.533 8.536 8.536 0 0 0-8.533-8.533h-85.333a8.536 8.536 0 0 0-8.533 8.533 8.536 8.536 0 0 0 8.533 8.533zm51.2 102.4h85.333a8.536 8.536 0 0 0 8.533-8.533 8.536 8.536 0 0 0-8.533-8.533h-85.333a8.536 8.536 0 0 0-8.533 8.533 8.536 8.536 0 0 0 8.533 8.533zm51.2 85.333c-4.71 0-8.533 3.823-8.533 8.533s3.823 8.533 8.533 8.533h17.067c4.71 0 8.533-3.823 8.533-8.533s-3.823-8.533-8.533-8.533h-17.067zm-34.133-51.2h-68.267c-4.71 0-8.533 3.823-8.533 8.533s3.823 8.533 8.533 8.533h68.267c4.71 0 8.533-3.823 8.533-8.533s-3.823-8.533-8.533-8.533zm0 51.2h-68.267c-4.71 0-8.533 3.823-8.533 8.533s3.823 8.533 8.533 8.533h68.267c4.71 0 8.533-3.823 8.533-8.533s-3.823-8.533-8.533-8.533zm203.17-6.903l-17.067-17.067c-13.116-13.116-33.101-13.09-46.199 0L309.684 446.234a8.546 8.546 0 0 0-2.5 6.033v51.2a8.536 8.536 0 0 0 8.533 8.533h51.2a8.546 8.546 0 0 0 6.033-2.5l111.804-111.804c13.594-13.594 13.594-32.597 0-46.199zm-74.3 18.099l13.534 13.534-74.138 74.138-13.534-13.534 74.138-74.138zm-86.203 125.337v-39.134l39.134 39.134h-39.134zm51.2-12.066l-13.534-13.534 74.138-74.138 13.534 13.534-74.138 74.138zm97.237-97.237l-11.034 11.034-39.134-39.134 11.034-11.034c6.741-6.733 15.292-6.767 22.067 0l17.067 17.067c6.903 6.912 6.903 15.163 0 22.067z"/><path d="M281.584 494.933H59.717c-14.114 0-25.6-11.486-25.6-25.6V42.667c0-14.114 11.486-25.6 25.6-25.6h269.534L412.084 99.9a8.523 8.523 0 0 0 12.066 0 8.523 8.523 0 0 0 0-12.066L338.817 2.5a8.513 8.513 0 0 0-6.033-2.5H59.717C36.191 0 17.051 19.14 17.051 42.667v426.667c0 23.526 19.14 42.667 42.667 42.667h221.867c4.71 0 8.533-3.823 8.533-8.533s-3.824-8.535-8.534-8.535z"/><path d="M281.584 409.6h-68.267c-4.71 0-8.533 3.823-8.533 8.533s3.823 8.533 8.533 8.533h68.267c4.71 0 8.533-3.823 8.533-8.533s-3.823-8.533-8.533-8.533zM170.651 162.133a8.536 8.536 0 0 0-8.533-8.533h-51.2a8.536 8.536 0 0 0-8.533 8.533v51.2a8.536 8.536 0 0 0 8.533 8.533h51.2a8.536 8.536 0 0 0 8.533-8.533v-51.2zM153.584 204.8h-34.133v-34.133h34.133V204.8zm-42.667 221.867h51.2a8.536 8.536 0 0 0 8.533-8.533v-51.2a8.536 8.536 0 0 0-8.533-8.533h-51.2a8.536 8.536 0 0 0-8.533 8.533v51.2a8.536 8.536 0 0 0 8.533 8.533zm8.534-51.2h34.133V409.6h-34.133v-34.133zm2.5-53.701a8.54 8.54 0 0 0 6.878 2.457 8.513 8.513 0 0 0 6.255-3.755l34.133-51.2c2.611-3.925 1.553-9.225-2.364-11.836a8.533 8.533 0 0 0-11.836 2.364l-28.356 42.539-9.711-9.702c-3.336-3.337-8.73-3.337-12.066 0s-3.337 8.73 0 12.066l17.067 17.067z"/></symbol><symbol viewBox="0 0 512 512" id="menu--geo" xmlns="http://www.w3.org/2000/svg"><path d="M313.9 376.7c41.3-68.5 93.5-164.8 93.5-214.3C407.4 78.9 339.5 11 256 11S104.6 78.9 104.6 162.4c0 49.5 52.2 145.8 93.5 214.3-49 3.7-160.5 17-160.5 61.1 0 43.4 113.2 63.2 218.5 63.2 105.2 0 218.5-19.8 218.5-63.2-.1-44.1-111.7-57.4-160.7-61.1zM125.5 162.4c0-72 58.6-130.6 130.5-130.6 72 0 130.6 58.6 130.6 130.6 0 62.9-100.2 220.7-130.6 267.1-30.4-46.4-130.5-204.2-130.5-267.1zM256 480.1c-127.9 0-197.6-28-197.6-42.4 0-11.1 46-35 152-41.1 19.9 32.1 35 54.8 37 57.5 2.7 3.6 10.6 7.9 17.3 0 2.1-2.5 17.1-25.4 37-57.5 106 6.1 152 29.9 152 41.1-.1 14.5-69.8 42.4-197.7 42.4z"/><path d="M321.9 162.4c0-36.4-29.5-65.9-65.9-65.9-36.4 0-65.9 29.5-65.9 65.9 0 36.4 29.5 65.9 65.9 65.9 36.4 0 65.9-29.5 65.9-65.9zm-111 0c0-24.9 20.2-45.1 45.1-45.1s45.1 20.2 45.1 45.1c0 24.9-20.2 45.1-45.1 45.1s-45.1-20.2-45.1-45.1z"/></symbol><symbol viewBox="0 0 510 510" id="menu--hospital" xmlns="http://www.w3.org/2000/svg"><path d="M382.5 51V0h-255v51H51v459h153v-51h102v51h153V51h-76.5zm-153 331.5h-51v-51h51v51zm0-102h-51v-51h51v51zm0-102h-51v-51h51v51zm102 204h-51v-51h51v51zm0-102h-51v-51h51v51zm0-102h-51v-51h51v51z"/></symbol><symbol viewBox="0 0 408 408" id="menu--patient" xmlns="http://www.w3.org/2000/svg"><path d="M204 204c56.1 0 102-45.9 102-102S260.1 0 204 0 102 45.9 102 102s45.9 102 102 102zm0 51C135.15 255 0 288.15 0 357v51h408v-51c0-68.85-135.15-102-204-102z"/></symbol><symbol viewBox="0 0 95.824 95.824" id="menu--structure" xmlns="http://www.w3.org/2000/svg"><path d="M23.681 66.137H2a2 2 0 0 0-2 2v21.682a2 2 0 0 0 2 2h21.681a2 2 0 0 0 2-2V68.137a2 2 0 0 0-2-2zm34.729 0H36.728a2 2 0 0 0-2 2v21.682a2 2 0 0 0 2 2h21.681a2 2 0 0 0 2-2V68.137c.001-1.105-.895-2-1.999-2zm35.414 0H72.143a2 2 0 0 0-2 2v21.682a2 2 0 0 0 2 2h21.682a2 2 0 0 0 2-2V68.137a2 2 0 0 0-2.001-2zm-56.752-36.45h21.68a2 2 0 0 0 2-2V6.006a2 2 0 0 0-2-2h-21.68a2 2 0 0 0-2 2v21.681a2 2 0 0 0 2 2zM9.513 59.209h4.103a2 2 0 0 0 2-2v-8.441h28.245v8.465a2 2 0 0 0 2 2h4.103a2 2 0 0 0 2-2v-8.465h28.245v8.449a2 2 0 0 0 2 2h4.104a2 2 0 0 0 2-2V42.663a2 2 0 0 0-2-2h-34.35v-2.775a2 2 0 0 0-2-2H45.86a2 2 0 0 0-2 2v2.775H9.513a2 2 0 0 0-2 2v14.545c0 1.104.896 2.001 2 2.001z"/></symbol><symbol viewBox="0 0 512 512" id="menu--survey" xmlns="http://www.w3.org/2000/svg"><circle cx="53.333" cy="74.667" r="10.667"/><circle cx="96" cy="74.667" r="10.667"/><circle cx="138.667" cy="74.667" r="10.667"/><path d="M117.333 234.667H352c5.896 0 10.667-4.771 10.667-10.667s-4.771-10.667-10.667-10.667H117.333c-5.896 0-10.667 4.771-10.667 10.667s4.772 10.667 10.667 10.667zm128 106.666h-128A10.66 10.66 0 0 0 106.666 352a10.66 10.66 0 0 0 10.667 10.667h128A10.66 10.66 0 0 0 256 352a10.66 10.66 0 0 0-10.667-10.667z"/><path d="M471.167 149.333c-.618 0-1.217.155-1.833.184V64c0-23.531-19.146-42.667-42.667-42.667h-384C19.146 21.333 0 40.469 0 64v384c0 23.531 19.146 42.667 42.667 42.667h384c23.521 0 42.667-19.135 42.667-42.667V249.745l30.708-30.703v-.01c7.604-7.604 11.958-18.125 11.958-28.865 0-22.521-18.312-40.834-40.833-40.834zM21.333 64c0-11.76 9.563-21.333 21.333-21.333h384C438.438 42.667 448 52.24 448 64v42.667H21.333V64zM448 448c0 11.76-9.563 21.333-21.333 21.333h-384c-11.771 0-21.333-9.573-21.333-21.333V128H448v28.62c-2.025 1.392-3.962 2.923-5.708 4.672l-116.06 116.042H117.333c-5.896 0-10.667 4.771-10.667 10.667s4.771 10.667 10.667 10.667h191.785l-10.243 51.24c-.708 3.5.396 7.115 2.917 9.635a10.68 10.68 0 0 0 7.542 3.125c.688 0 1.396-.073 2.083-.208l53.313-10.667a10.601 10.601 0 0 0 5.458-2.917l77.812-77.8V448zm-90.604-116.49l-34.458 6.896 6.896-34.5 96.828-96.828 27.587 27.587-96.853 96.845zm127.562-127.552l-15.625 15.625-27.589-27.589 15.63-15.63a19.662 19.662 0 0 1 13.792-5.698c10.75 0 19.5 8.75 19.5 19.5.001 5.126-2.083 10.157-5.708 13.792z"/></symbol><symbol viewBox="0 0 60 60" id="menu--time" xmlns="http://www.w3.org/2000/svg"><path d="M30 0C13.458 0 0 13.458 0 30s13.458 30 30 30 30-13.458 30-30S46.542 0 30 0zm0 58C14.561 58 2 45.439 2 30S14.561 2 30 2s28 12.561 28 28-12.561 28-28 28z"/><path d="M30 6a1 1 0 0 0-1 1v23H14a1 1 0 1 0 0 2h16a1 1 0 0 0 1-1V7a1 1 0 0 0-1-1z"/></symbol><symbol viewBox="0 0 512 512" id="menu--writing" xmlns="http://www.w3.org/2000/svg"><path d="M352.459 220c0-11.046-8.954-20-20-20h-206c-11.046 0-20 8.954-20 20s8.954 20 20 20h206c11.046 0 20-8.954 20-20zm-226 60c-11.046 0-20 8.954-20 20s8.954 20 20 20H251.57c11.046 0 20-8.954 20-20s-8.954-20-20-20H126.459z"/><path d="M173.459 472H106.57c-22.056 0-40-17.944-40-40V80c0-22.056 17.944-40 40-40h245.889c22.056 0 40 17.944 40 40v123c0 11.046 8.954 20 20 20s20-8.954 20-20V80c0-44.112-35.888-80-80-80H106.57c-44.112 0-80 35.888-80 80v352c0 44.112 35.888 80 80 80h66.889c11.046 0 20-8.954 20-20s-8.954-20-20-20z"/><path d="M467.884 289.572c-23.394-23.394-61.458-23.395-84.837-.016l-109.803 109.56a20.005 20.005 0 0 0-5.01 8.345l-23.913 78.725a20 20 0 0 0 24.476 25.087l80.725-22.361a19.993 19.993 0 0 0 8.79-5.119l109.573-109.367c23.394-23.394 23.394-61.458-.001-84.854zM333.776 451.768l-40.612 11.25 11.885-39.129 74.089-73.925 28.29 28.29-73.652 73.514zM439.615 346.13l-3.875 3.867-28.285-28.285 3.862-3.854c7.798-7.798 20.486-7.798 28.284 0 7.798 7.798 7.798 20.486.014 28.272zM332.459 120h-206c-11.046 0-20 8.954-20 20s8.954 20 20 20h206c11.046 0 20-8.954 20-20s-8.954-20-20-20z"/></symbol><symbol viewBox="0 0 299.995 299.995" id="phone-book" xmlns="http://www.w3.org/2000/svg"><path d="M143.511 154.004c19.146 0 23.718-15.613 23.718-28.711 0-13.098-10.621-23.718-23.718-23.718s-23.721 10.621-23.721 23.718c0 13.098 6.292 28.711 23.721 28.711zm3.304 3.297h-6.608c-13.002 0-32.498 11.91-32.498 26.61s-4.409 26.615 8.59 26.615h54.428c12.999 0 8.59-11.915 8.59-26.615s-19.5-26.61-32.502-26.61z"/><path d="M149.992.001C67.156.001 0 67.159 0 149.998s67.156 149.997 149.992 149.997c82.842 0 150.003-67.161 150.003-149.997C299.995 67.157 232.834.001 149.992.001zm60.955 217.131v10.374c0 5.729-4.645 10.374-10.374 10.374H96.829c-11.458 0-20.749-9.29-20.749-20.749V86.589c0-11.458 9.29-20.749 20.749-20.749h103.743c5.729 0 10.374 4.645 10.374 10.374v10.375h.001v130.543zm20.748-130.543v140.917c0 5.729-4.645 10.374-10.374 10.374h-2.806a20.6 20.6 0 0 0 2.806-10.374V76.215c0-3.781-1.032-7.319-2.806-10.374h2.806c5.729 0 10.374 4.645 10.374 10.374v10.374z"/></symbol><symbol viewBox="0 0 485.213 485.212" id="phone-symbol-of-an-auricular-inside-a-circle" xmlns="http://www.w3.org/2000/svg"><path d="M242.607 0C108.629 0 .001 108.628.001 242.606c0 133.976 108.628 242.606 242.606 242.606s242.604-108.631 242.604-242.606C485.212 108.628 376.585 0 242.607 0zm128.112 353.989l-19.425 19.429c-3.468 3.463-13.623 5.624-13.949 5.624-61.452.536-120.621-23.602-164.095-67.08-43.593-43.618-67.759-102.998-67.11-164.657 0-.028 2.224-9.892 5.689-13.324l19.424-19.427c7.108-7.141 20.762-10.368 30.327-7.168l4.086 1.363c9.537 3.197 19.55 13.742 22.185 23.457l9.771 35.862c2.635 9.743-.919 23.604-8.025 30.712l-12.97 12.972c12.734 47.142 49.723 84.138 96.873 96.903l12.965-12.975c7.141-7.141 20.997-10.692 30.719-8.061l35.857 9.806c9.717 2.67 20.26 12.62 23.456 22.154l1.363 4.145c3.168 9.538-.034 23.189-7.141 30.265z"/></symbol><symbol viewBox="0 0 512.001 512.001" id="question" xmlns="http://www.w3.org/2000/svg"><path d="M344.515 501.666H43.519C19.523 501.666 0 482.143 0 458.145V154.199c0-23.997 19.523-43.519 43.519-43.519h144.202c7.907 0 14.317 6.411 14.317 14.317s-6.41 14.317-14.317 14.317H43.519c-8.209 0-14.886 6.679-14.886 14.886v303.948c0 8.208 6.679 14.886 14.886 14.886h300.995c7.906 0 14.317 6.411 14.317 14.317s-6.409 14.315-14.316 14.315zm123.966 0h-53.686c-7.906 0-14.317-6.411-14.317-14.317s6.411-14.317 14.317-14.317h53.686c8.208 0 14.886-6.679 14.886-14.886V154.199c0-8.208-6.679-14.886-14.886-14.886H324.279c-7.906 0-14.317-6.411-14.317-14.317s6.411-14.317 14.317-14.317h144.202c23.997 0 43.52 19.523 43.52 43.519v303.948c-.001 23.997-19.523 43.52-43.52 43.52z"/><path d="M270.865 249.988h-29.728c-23.297 0-42.252-18.954-42.252-42.251v-63.953h-1.707c-10.053 0-19.123-5.569-23.671-14.534s-3.685-19.574 2.253-27.685L234.582 21.2c4.979-6.803 12.987-10.866 21.418-10.866s16.438 4.062 21.419 10.865l58.822 80.366c5.937 8.11 6.802 18.719 2.253 27.685-4.548 8.965-13.619 14.534-23.671 14.534h-1.708v63.953c-.001 23.298-18.954 42.251-42.25 42.251zm-69.569-134.837h11.903c7.907 0 14.317 6.411 14.317 14.317v78.27c0 7.509 6.11 13.618 13.619 13.618h29.728c7.509 0 13.618-6.109 13.618-13.618v-78.27c0-7.906 6.411-14.317 14.317-14.317h11.903L256 40.416l-54.704 74.735z"/><path d="M465.068 129.685H298.799v78.052c0 15.428-12.507 27.934-27.934 27.934h-29.728c-15.428 0-27.934-12.507-27.934-27.934v-78.052H46.931c-24.44 0-34.918 31.027-15.485 45.844L240.514 334.94a25.534 25.534 0 0 0 30.968 0l209.067-159.41c19.438-14.818 8.958-45.845-15.481-45.845z"/><path d="M256 354.486a40.077 40.077 0 0 1-24.163-8.16L22.766 186.914C8.949 176.38 3.612 158.934 9.173 142.47s20.381-27.103 37.76-27.103h166.27c7.907 0 14.317 6.411 14.317 14.317v78.052c0 7.509 6.109 13.619 13.618 13.619h29.728c7.509 0 13.618-6.11 13.618-13.619v-78.051c0-7.906 6.411-14.317 14.317-14.317h166.27c17.377 0 32.199 10.639 37.76 27.103 5.559 16.464.222 33.91-13.596 44.444l-209.07 159.411c-6.902 5.263-15.486 8.16-24.165 8.16zM46.933 144.002c-7.473 0-10.026 5.841-10.631 7.631-.606 1.79-2.116 7.983 3.827 12.513l209.069 159.412a11.129 11.129 0 0 0 6.803 2.296c2.478 0 4.832-.795 6.803-2.296l209.068-159.412c5.943-4.531 4.434-10.723 3.828-12.513-.604-1.79-3.158-7.631-10.631-7.631H313.114v63.736c0 23.297-18.954 42.252-42.251 42.252h-29.728c-23.297 0-42.251-18.954-42.251-42.252v-63.736H46.933z"/></symbol><symbol viewBox="0 0 401.475 401.475" id="quick--adress" xmlns="http://www.w3.org/2000/svg"><path d="M209.296 127.782a9 9 0 0 1 9-9h2.148c4.971 0 9 4.029 9 9s-4.029 9-9 9h-2.148a9 9 0 0 1-9-9zm144.241 267.156a8.997 8.997 0 0 1-1.452 2.929 8.937 8.937 0 0 1-2.807 2.461 8.927 8.927 0 0 1-3.623 1.114c-.261.022-256.804.033-256.804.033-22.748 0-41.255-18.507-41.255-41.256V39.064C47.596 17.524 65.12 0 86.661 0h228.15c10.398-.001 20.198 4.07 27.595 11.466 7.397 7.396 11.472 17.197 11.472 27.599v288.741c.005.317-.006.634-.034.948a8.922 8.922 0 0 1-1.1 3.586 8.947 8.947 0 0 1-3.241 3.346c-7.747 4.856-12.556 14.243-12.556 24.533s4.808 19.677 12.556 24.533c.261.157.513.326.756.508h.001l.004.004a8.92 8.92 0 0 1 2.483 2.84 8.946 8.946 0 0 1 1.096 3.573 8.988 8.988 0 0 1-.306 3.261zM84.855 360.219a9 9 0 0 1 9-9h225.904a48.745 48.745 0 0 1 4.956-14.255H88.851c-12.823 0-23.255 10.432-23.255 23.255s10.432 23.256 23.255 23.256h235.864a48.78 48.78 0 0 1-4.956-14.256H93.855a9 9 0 0 1-9-9zM335.878 39.064c0-5.593-2.201-10.873-6.198-14.869s-9.275-6.196-14.865-6.195l-18.179.003L86.661 18c-11.615 0-21.065 9.449-21.065 21.064v287.095a41.02 41.02 0 0 1 23.255-7.195h247.026v-279.9zm-66.22 162.479c-4.71-1.596-9.816.938-11.406 5.646a9 9 0 0 0 5.646 11.406c4.889 1.651 8.173 6.207 8.173 11.335 0 6.593-5.362 11.956-11.954 11.956h-81.489c-6.592 0-11.955-5.363-11.955-11.956 0-5.129 3.285-9.684 8.174-11.336a9 9 0 0 0-5.761-17.053c-12.209 4.125-20.413 15.533-20.413 28.389 0 16.518 13.438 29.956 29.955 29.956h81.489c16.517 0 29.954-13.438 29.954-29.956 0-12.855-8.203-24.263-20.413-28.387zM91.032 30.462a9 9 0 0 0-9 9v258.039c0 4.971 4.029 9 9 9s9-4.029 9-9V39.462a9 9 0 0 0-9-9zm103.612 163.921c-16.037-31.517-25.976-53.651-25.976-66.602 0-27.957 22.746-50.702 50.704-50.702s50.703 22.745 50.703 50.702c0 12.951-9.938 35.085-25.974 66.601 0 0-5.735 11.32-6.021 11.922-2.314 4.852-6.622 13.884-18.708 13.884-12.087 0-16.394-9.031-18.707-13.884-.287-.601-6.021-11.921-6.021-11.921zm-7.976-66.602c0 11.236 16.831 44.313 24.018 58.438 0 0 5.882 11.616 6.226 12.337.576 1.208 1.426 2.989 1.939 3.602.215.029.827.029 1.04 0 .515-.612 1.364-2.395 1.941-3.604.343-.72 6.226-12.336 6.226-12.336 7.187-14.124 24.017-47.201 24.017-58.438 0-18.032-14.671-32.702-32.703-32.702-18.033.001-32.704 14.671-32.704 32.703z"/></symbol><symbol viewBox="0 0 512.16 512.16" id="quick--card" xmlns="http://www.w3.org/2000/svg"><path d="M273.067 337.147H409.6c5.12 0 8.533-3.413 8.533-8.533v-76.8c0-5.12-3.413-8.533-8.533-8.533H273.067c-5.12 0-8.533 3.413-8.533 8.533v76.8c-.001 5.119 3.413 8.533 8.533 8.533zm8.533-76.8h119.467v59.733H281.6v-59.733zM42.667 226.213h68.267c5.12 0 8.533-3.413 8.533-8.533s-3.413-8.533-8.533-8.533H42.667c-5.12 0-8.533 3.413-8.533 8.533s3.413 8.533 8.533 8.533zm102.4 0h68.267c5.12 0 8.533-3.413 8.533-8.533s-3.413-8.533-8.533-8.533h-68.267c-5.12 0-8.533 3.413-8.533 8.533s3.413 8.533 8.533 8.533zm-102.4 34.134H153.6c5.12 0 8.533-3.413 8.533-8.533s-3.413-8.533-8.533-8.533H42.667c-5.12 0-8.533 3.413-8.533 8.533s3.413 8.533 8.533 8.533zm170.666-17.067h-25.6c-5.12 0-8.533 3.413-8.533 8.533s3.413 8.533 8.533 8.533h25.6c5.12 0 8.533-3.413 8.533-8.533s-3.413-8.533-8.533-8.533z"/><path d="M504.32 137.467c-5.973-7.68-13.653-11.947-23.04-12.8l-20.48-2.482V81.147c0-18.773-15.36-34.133-34.133-34.133H34.133C15.36 47.013 0 62.373 0 81.147v273.067c0 15.413 10.357 28.518 24.453 32.718-.43 17.262 12.631 32.248 30.161 33.842l394.24 44.373h3.413c17.067 0 32.427-12.8 34.133-29.013l25.6-273.92c.853-8.534-1.707-17.921-7.68-24.747zm-487.253-30.72h426.667v51.2H17.067v-51.2zM34.133 64.08h392.533c9.387 0 17.067 7.68 17.067 17.067v8.533H17.067v-8.533c0-9.387 7.68-17.067 17.066-17.067zM17.067 354.213v-179.2h426.667v179.2c0 9.387-7.68 17.067-17.067 17.067H34.134c-9.387 0-17.067-7.68-17.067-17.067zM494.933 158.8l-25.6 273.92c-.853 9.387-9.387 16.213-18.773 15.36L57.173 403.707c-8.533-.853-14.507-7.68-15.36-15.36h384.853c18.773 0 34.133-15.36 34.133-34.133V138.32l19.627 1.707c4.267 0 8.533 2.56 11.093 5.973 2.561 3.413 4.268 8.533 3.414 12.8z"/></symbol><symbol viewBox="0 0 512 512" id="quick--catalog" xmlns="http://www.w3.org/2000/svg"><path d="M488.59 349V62.333H23.41V349H0v100.667h512V349h-23.41zM53.41 92.334h405.18V349H292.898l-6.087 18.5h-61.622l-6.087-18.5H53.41V92.334zM482 419.667H30V379h167.391l6.087 18.5h105.044l6.087-18.5H482v40.667z"/><path d="M91.666 143v92.667h112V143h-112zm82 62.667h-52V173h52v32.667zM239.67 143h174v30h-174zm0 62.67h174v30h-174zM91 268.33h322.67v30H91z"/></symbol><symbol viewBox="0 0 512 512" id="quick--feedback" xmlns="http://www.w3.org/2000/svg"><circle cx="53.333" cy="74.667" r="10.667"/><circle cx="96" cy="74.667" r="10.667"/><circle cx="138.667" cy="74.667" r="10.667"/><path d="M117.333 234.667H352c5.896 0 10.667-4.771 10.667-10.667s-4.771-10.667-10.667-10.667H117.333c-5.896 0-10.667 4.771-10.667 10.667s4.772 10.667 10.667 10.667zm128 106.666h-128A10.66 10.66 0 0 0 106.666 352a10.66 10.66 0 0 0 10.667 10.667h128A10.66 10.66 0 0 0 256 352a10.66 10.66 0 0 0-10.667-10.667z"/><path d="M471.167 149.333c-.618 0-1.217.155-1.833.184V64c0-23.531-19.146-42.667-42.667-42.667h-384C19.146 21.333 0 40.469 0 64v384c0 23.531 19.146 42.667 42.667 42.667h384c23.521 0 42.667-19.135 42.667-42.667V249.745l30.708-30.703v-.01c7.604-7.604 11.958-18.125 11.958-28.865 0-22.521-18.312-40.834-40.833-40.834zM21.333 64c0-11.76 9.563-21.333 21.333-21.333h384C438.438 42.667 448 52.24 448 64v42.667H21.333V64zM448 448c0 11.76-9.563 21.333-21.333 21.333h-384c-11.771 0-21.333-9.573-21.333-21.333V128H448v28.62c-2.025 1.392-3.962 2.923-5.708 4.672l-116.06 116.042H117.333c-5.896 0-10.667 4.771-10.667 10.667s4.771 10.667 10.667 10.667h191.785l-10.243 51.24c-.708 3.5.396 7.115 2.917 9.635a10.68 10.68 0 0 0 7.542 3.125c.688 0 1.396-.073 2.083-.208l53.313-10.667a10.601 10.601 0 0 0 5.458-2.917l77.812-77.8V448zm-90.604-116.49l-34.458 6.896 6.896-34.5 96.828-96.828 27.587 27.587-96.853 96.845zm127.562-127.552l-15.625 15.625-27.589-27.589 15.63-15.63a19.662 19.662 0 0 1 13.792-5.698c10.75 0 19.5 8.75 19.5 19.5.001 5.126-2.083 10.157-5.708 13.792z"/></symbol><symbol viewBox="0 0 60 60" id="quick--file" xmlns="http://www.w3.org/2000/svg"><path d="M45 25H20a1 1 0 1 0 0 2h25a1 1 0 1 0 0-2zm-25-6h10a1 1 0 1 0 0-2H20a1 1 0 1 0 0 2zm25 14H20a1 1 0 1 0 0 2h25a1 1 0 1 0 0-2zm0 8H20a1 1 0 1 0 0 2h25a1 1 0 1 0 0-2zm0 8H20a1 1 0 1 0 0 2h25a1 1 0 1 0 0-2z"/><path d="M49 14.586V0H6v55h5v5h43V19.586l-5-5zm-9-6.172l9 9L50.586 19H40V8.414zM8 53V2h39v10.586L39.414 5H11v48H8zm5 5V7h25v14h14v37H13z"/></symbol><symbol viewBox="-30 0 512 512" id="quick--questions" xmlns="http://www.w3.org/2000/svg"><path d="M290.594 323.008c-5.524 0-10-4.48-10-10v-6.418c-.203-20.52 9.734-36.145 27.992-43.902 17.402-7.399 28.648-24.293 28.648-43.051 0-25.719-20.921-46.645-46.64-46.645s-46.645 20.926-46.645 46.645c0 5.523-4.476 10-10 10-5.523 0-10-4.477-10-10 0-36.746 29.895-66.645 66.645-66.645 36.746 0 66.64 29.899 66.64 66.645 0 26.793-16.023 50.918-40.824 61.457-10.77 4.574-15.941 12.883-15.816 25.394v6.52c0 5.52-4.477 10-10 10zm0 0"/><path d="M290.594 363.008c5.508 0 10-4.492 10-10 0-5.512-4.492-10-10-10s-10 4.488-10 10c0 5.508 4.492 10 10 10zm0 0" fill-rule="evenodd"/><path d="M452.594 256c0-54.375-26.93-102.578-68.149-131.977V10c0-5.523-4.476-10-10-10H114.02c-.114 0-.223.012-.336.016a7.658 7.658 0 0 0-.34.02 9.706 9.706 0 0 0-1.258.155h-.023a10.375 10.375 0 0 0-1.551.457 9.143 9.143 0 0 0-1.121.493l-.07.03a9.42 9.42 0 0 0-1.098.692c-.09.063-.18.13-.27.2-.348.265-.691.55-1.004.867L2.938 106.938c-.239.238-.461.488-.676.75-.074.09-.14.187-.211.28-.059.079-.113.15-.168.227-.067.094-.14.184-.203.278-.086.129-.157.261-.239.39-.09.149-.18.297-.261.45-.075.136-.137.277-.203.414-.075.156-.153.312-.22.472-.046.117-.085.235-.128.356-.027.074-.055.144-.078.218-.043.114-.086.23-.121.348-.043.137-.075.277-.11.418-.043.172-.09.344-.125.52-.004.007-.004.011-.004.02-.03.155-.05.312-.074.472-.023.16-.05.32-.066.484-.012.11-.012.215-.02.32-.008.11-.011.215-.015.325l-.012.234c0 .035-.004.07-.004.106V392c0 5.52 4.477 10 10 10s10-4.48 10-10V124.02h94.02c5.523 0 10-4.48 10-10V20h240.425v91.836C342.285 100.437 317.18 94 290.594 94c-89.328 0-162 72.672-162 162s72.672 162 162 162c26.586 0 51.691-6.438 73.851-17.836V492H20v-20.004c0-5.52-4.477-10-10-10s-10 4.48-10 10V502c0 5.523 4.477 10 10 10h364.445c5.524 0 10-4.477 10-10V387.977c41.22-29.399 68.149-77.602 68.149-131.977zM34.14 104.02l69.879-69.875v69.875zM290.594 398c-78.301 0-142-63.7-142-142s63.699-142 142-142 142 63.7 142 142-63.7 142-142 142zm0 0"/><path d="M10 441.996c5.508 0 10-4.492 10-10s-4.492-10-10-10-10 4.492-10 10 4.492 10 10 10zm0 0" fill-rule="evenodd"/></symbol><symbol viewBox="0 0 489.091 489.091" id="quick--structure" xmlns="http://www.w3.org/2000/svg"><path d="M122.346 281.291h243.8v40.9h21.4v-51.7c0-5.9-4.8-10.7-10.7-10.7h-121.9v-39h-21.4v39h-121.9c-5.9 0-10.7 4.8-10.7 10.7v50.2h21.4v-39.4zm122-82h86.4c-.5-35.9 1-55.1-22.3-63.6-21.2-8.1-33.8-16.3-33.8-16.3l-16.3 51.5-2.2 7-7.3-20.7c16.8-23.4-1.3-24.5-4.4-24.5h-.2c-3.1 0-21.2 1.1-4.4 24.5l-7.3 20.7-2.2-7-16.3-51.5s-12.7 8.3-33.8 16.3c-23.3 8.5-21.9 27.6-22.3 63.6h86.4z"/><path d="M207.846 86.591c1.9 12.1 11.2 27.5 26.6 32.9 6.3 2.2 13.2 2.2 19.5 0 15.1-5.4 24.8-20.8 26.6-32.9 2-.2 4.7-3 7.6-13.2 3.9-13.9-.2-16-3.8-15.7.7-1.9 1.2-3.8 1.5-5.7 6-36.1-11.8-37.3-11.8-37.3s-2.9-5.7-10.7-9.9c-5.2-3.1-12.4-5.5-22-4.6-3.1.1-6 .7-8.8 1.7-3.5 1.2-6.7 2.9-9.6 4.9-3.6 2.3-6.9 5-9.9 8.2-4.7 4.8-8.9 11-10.7 18.8-1.5 5.8-1.2 11.8.1 18.3.3 1.9.8 3.8 1.5 5.7-3.5-.3-7.7 1.7-3.8 15.7 3 10.1 5.7 12.9 7.7 13.1zm217.3 354.8c-15.9-6.1-25.4-12.3-25.4-12.3l-12.2 38.7-1.7 5.2-5.5-15.5c12.6-17.6-1-18.4-3.3-18.4s-15.9.9-3.3 18.4l-5.5 15.5-1.7-5.2-12.2-38.7s-9.5 6.2-25.4 12.3c-17.5 6.3-16.4 20.7-16.7 47.7h129.7c-.4-27 .7-41.4-16.8-47.7z"/><path d="M374.946 339.691c-2.3.1-4.5.6-6.6 1.3-2.6.9-5 2.2-7.2 3.7-2.7 1.7-5.2 3.8-7.4 6.1-3.5 3.6-6.7 8.3-8 14.1-1.1 4.3-.9 8.9.1 13.8.3 1.4.6 2.9 1.2 4.3-2.7-.3-5.8 1.3-2.8 11.7 2.2 7.6 4.2 9.8 5.7 9.9 1.4 9.1 8.4 20.6 19.9 24.7 4.7 1.7 9.9 1.7 14.6 0 11.3-4.1 18.6-15.6 20-24.7 1.5-.1 3.5-2.3 5.7-9.9 3-10.5-.2-12-2.8-11.7.5-1.4.9-2.9 1.2-4.3 4.5-27.1-8.8-28-8.8-28s-2.2-4.2-8-7.5c-4.2-2.4-9.6-4.2-16.8-3.5zm-214.9 101.7c-15.9-6.1-25.4-12.3-25.4-12.3l-12.2 38.7-1.7 5.2-5.5-15.5c12.6-17.6-1-18.4-3.3-18.4s-15.9.9-3.3 18.4l-5.5 15.5-1.7-5.2-12.2-38.7s-9.5 6.2-25.4 12.3c-17.5 6.3-16.4 20.7-16.7 47.7h129.7c-.4-27 .6-41.4-16.8-47.7z"/><path d="M84.646 404.591c1.4 9.1 8.4 20.6 19.9 24.7 4.7 1.7 9.9 1.7 14.6 0 11.3-4.1 18.6-15.6 20-24.7 1.5-.1 3.5-2.3 5.7-9.9 3-10.5-.2-12-2.8-11.7.5-1.4.9-2.9 1.2-4.3 4.5-27.1-8.8-28-8.8-28s-2.2-4.2-8-7.5c-3.9-2.3-9.3-4.1-16.5-3.5-2.3.1-4.5.6-6.6 1.3-2.6.9-5 2.2-7.2 3.7-2.7 1.7-5.2 3.8-7.4 6.1-3.5 3.6-6.7 8.3-8 14.1-1.1 4.3-.9 8.9.1 13.8.3 1.4.6 2.9 1.2 4.3-2.7-.3-5.8 1.3-2.8 11.7 1.8 7.6 3.9 9.7 5.4 9.9z"/></symbol><symbol viewBox="0 0 60 60" id="quick--time" xmlns="http://www.w3.org/2000/svg"><path d="M30 0C13.458 0 0 13.458 0 30s13.458 30 30 30 30-13.458 30-30S46.542 0 30 0zm0 58C14.561 58 2 45.439 2 30S14.561 2 30 2s28 12.561 28 28-12.561 28-28 28z"/><path d="M30 6a1 1 0 0 0-1 1v23H14a1 1 0 1 0 0 2h16a1 1 0 0 0 1-1V7a1 1 0 0 0-1-1z"/></symbol><symbol viewBox="0 0 129 129" id="right-arrow" xmlns="http://www.w3.org/2000/svg"><path d="M40.4 121.3c-.8.8-1.8 1.2-2.9 1.2s-2.1-.4-2.9-1.2c-1.6-1.6-1.6-4.2 0-5.8l51-51-51-51c-1.6-1.6-1.6-4.2 0-5.8 1.6-1.6 4.2-1.6 5.8 0l53.9 53.9c1.6 1.6 1.6 4.2 0 5.8l-53.9 53.9z"/></symbol><symbol viewBox="0 0 512 512" id="sitemap" xmlns="http://www.w3.org/2000/svg"><path d="M110.933 426.667H42.667c-4.71 0-8.533 3.823-8.533 8.533s3.823 8.533 8.533 8.533h68.267c4.71 0 8.533-3.823 8.533-8.533s-3.823-8.533-8.534-8.533zm85.334-290.134h119.467c4.719 0 8.533-3.823 8.533-8.533s-3.814-8.533-8.533-8.533H196.267c-4.71 0-8.533 3.823-8.533 8.533s3.822 8.533 8.533 8.533z"/><path d="M76.8 324.267a8.536 8.536 0 0 0 8.533-8.533v-42.667h162.133v42.667a8.536 8.536 0 0 0 8.533 8.533 8.53 8.53 0 0 0 8.533-8.533v-42.667h162.133v42.667c0 4.71 3.814 8.533 8.533 8.533s8.533-3.823 8.533-8.533v-51.2a8.53 8.53 0 0 0-8.533-8.533H264.533v-59.733a8.53 8.53 0 0 0-8.533-8.533h-93.867c-14.114 0-25.6-11.486-25.6-25.6V42.667c0-14.114 11.486-25.6 25.6-25.6h187.733c14.114 0 25.6 11.486 25.6 25.6v119.467c0 14.114-11.486 25.6-25.6 25.6h-59.733c-4.719 0-8.533 3.823-8.533 8.533s3.814 8.533 8.533 8.533h59.733c23.526 0 42.667-19.14 42.667-42.667V42.667C392.533 19.14 373.393 0 349.867 0H162.133c-23.526 0-42.667 19.14-42.667 42.667v119.467c0 23.526 19.14 42.667 42.667 42.667h85.333V256H76.8a8.536 8.536 0 0 0-8.533 8.533v51.2c0 4.711 3.823 8.534 8.533 8.534z"/><path d="M196.267 85.333h102.4c4.719 0 8.533-3.823 8.533-8.533s-3.814-8.533-8.533-8.533h-102.4c-4.71 0-8.533 3.823-8.533 8.533s3.822 8.533 8.533 8.533zM42.667 409.6H76.8c4.71 0 8.533-3.823 8.533-8.533s-3.823-8.533-8.533-8.533H42.667c-4.71 0-8.533 3.823-8.533 8.533s3.822 8.533 8.533 8.533z"/><path d="M136.533 341.333H17.067C7.654 341.333 0 348.988 0 358.4v136.533C0 504.346 7.654 512 17.067 512h119.467c9.412 0 17.067-7.654 17.067-17.067V358.4c-.001-9.412-7.655-17.067-17.068-17.067zm-119.466 153.6V358.4h119.467l.009 136.533H17.067z"/><path d="M110.933 460.8H42.667c-4.71 0-8.533 3.823-8.533 8.533s3.823 8.533 8.533 8.533h68.267c4.71 0 8.533-3.823 8.533-8.533s-3.823-8.533-8.534-8.533zm358.4 0h-68.267c-4.719 0-8.533 3.823-8.533 8.533s3.814 8.533 8.533 8.533h68.267c4.719 0 8.533-3.823 8.533-8.533s-3.814-8.533-8.533-8.533zm0-34.133h-68.267c-4.719 0-8.533 3.823-8.533 8.533s3.814 8.533 8.533 8.533h68.267c4.719 0 8.533-3.823 8.533-8.533s-3.814-8.533-8.533-8.533z"/><path d="M494.933 341.333H375.467c-9.412 0-17.067 7.654-17.067 17.067v136.533c0 9.412 7.654 17.067 17.067 17.067h119.467c9.412 0 17.067-7.654 17.067-17.067V358.4c-.001-9.412-7.655-17.067-17.068-17.067zm-119.466 153.6V358.4h119.467l.009 136.533H375.467z"/><path d="M401.067 409.6H435.2c4.719 0 8.533-3.823 8.533-8.533s-3.814-8.533-8.533-8.533h-34.133c-4.719 0-8.533 3.823-8.533 8.533s3.814 8.533 8.533 8.533zm-110.934 17.067h-68.267c-4.71 0-8.533 3.823-8.533 8.533s3.823 8.533 8.533 8.533h68.267c4.719 0 8.533-3.823 8.533-8.533s-3.814-8.533-8.533-8.533zm0 34.133h-68.267c-4.71 0-8.533 3.823-8.533 8.533s3.823 8.533 8.533 8.533h68.267c4.719 0 8.533-3.823 8.533-8.533s-3.814-8.533-8.533-8.533z"/><path d="M315.733 341.333H196.267c-9.412 0-17.067 7.654-17.067 17.067v136.533c0 9.412 7.654 17.067 17.067 17.067h119.467c9.412 0 17.067-7.654 17.067-17.067V358.4c-.001-9.412-7.655-17.067-17.068-17.067zm-119.466 153.6V358.4h119.467l.009 136.533H196.267z"/><path d="M221.867 409.6H256c4.719 0 8.533-3.823 8.533-8.533s-3.814-8.533-8.533-8.533h-34.133c-4.71 0-8.533 3.823-8.533 8.533s3.822 8.533 8.533 8.533z"/></symbol></svg>