<?xml version="1.0" encoding="utf-8"?><svg xmlns="http://www.w3.org/2000/svg" xmlns:xlink="http://www.w3.org/1999/xlink"><symbol viewBox="0 0 512 512" id="admission_" xmlns="http://www.w3.org/2000/svg"><path d="M481.082 123.718V72.825c0-11.757-9.531-21.287-21.287-21.287H36c-11.756 0-21.287 9.53-21.287 21.287v50.893h466.369z"/><path d="M481.082 138.431H14.713C6.587 138.431 0 131.843 0 123.718V72.825c0-19.85 16.151-36 36-36h423.793c19.851 0 36 16.151 36 36v50.894c.002 8.125-6.585 14.712-14.711 14.712zM29.426 109.005h436.942v-36.18a6.581 6.581 0 0 0-6.574-6.574H36a6.581 6.581 0 0 0-6.574 6.574v36.18zm114.812 173.41H74.93c-8.126 0-14.713-6.589-14.713-14.713v-61.765c0-8.125 6.587-14.713 14.713-14.713h69.308c8.126 0 14.713 6.589 14.713 14.713 0 8.125-6.587 14.713-14.713 14.713H89.643v32.338h54.595c8.126 0 14.713 6.589 14.713 14.713s-6.587 14.714-14.713 14.714zM213.238 205.94h69.314v61.765h-69.314z"/><path d="M282.552 282.415h-69.308c-8.126 0-14.713-6.589-14.713-14.713v-61.765c0-8.125 6.587-14.713 14.713-14.713h69.308c8.126 0 14.713 6.589 14.713 14.713v61.765c0 8.124-6.587 14.713-14.713 14.713zm-54.595-29.427h39.882V220.65h-39.882v32.338zM144.238 406.06H74.93c-8.126 0-14.713-6.589-14.713-14.713v-61.765c0-8.125 6.587-14.713 14.713-14.713h69.308c8.126 0 14.713 6.589 14.713 14.713s-6.587 14.713-14.713 14.713H89.643v32.338h54.595c8.126 0 14.713 6.589 14.713 14.713s-6.587 14.714-14.713 14.714zM213.238 329.575h69.314v61.765h-69.314z"/><path d="M282.552 406.06h-69.308c-8.126 0-14.713-6.589-14.713-14.713v-61.765c0-8.125 6.587-14.713 14.713-14.713h69.308c8.126 0 14.713 6.589 14.713 14.713v61.765c0 8.124-6.587 14.713-14.713 14.713zm-54.595-29.427h39.882v-32.338h-39.882v32.338zM351.557 205.94h69.314v61.765h-69.314z"/><path d="M420.864 282.415h-69.308c-8.126 0-14.713-6.589-14.713-14.713v-61.765c0-8.125 6.587-14.713 14.713-14.713h69.308c8.126 0 14.713 6.589 14.713 14.713v61.765c0 8.124-6.587 14.713-14.713 14.713zm-54.595-29.427h39.882V220.65h-39.882v32.338zM99.532 92.878c-8.126 0-14.713-6.589-14.713-14.713V22.06c0-8.125 6.587-14.713 14.713-14.713s14.713 6.589 14.713 14.713v56.106c0 8.125-6.587 14.712-14.713 14.712zm148.365 0c-8.126 0-14.713-6.589-14.713-14.713V22.06c0-8.125 6.587-14.713 14.713-14.713s14.713 6.589 14.713 14.713v56.106c0 8.125-6.587 14.712-14.713 14.712zm148.366 0c-8.126 0-14.713-6.589-14.713-14.713V22.06c0-8.125 6.587-14.713 14.713-14.713s14.713 6.589 14.713 14.713v56.106c0 8.125-6.587 14.712-14.713 14.712z"/><path d="M389.88 504.653c-67.338 0-122.12-54.782-122.12-122.12s54.782-122.12 122.12-122.12c36.752 0 71.2 16.321 94.512 44.78 5.15 6.285 4.229 15.556-2.058 20.706-6.285 5.148-15.556 4.229-20.706-2.058-17.7-21.608-43.851-33.999-71.747-33.999-51.111 0-92.693 41.582-92.693 92.693s41.582 92.693 92.693 92.693 92.693-41.582 92.693-92.693c0-8.125 6.587-14.713 14.713-14.713S512 374.411 512 382.535c0 67.335-54.782 122.118-122.12 122.118z"/><path d="M228.475 490.606H36c-19.85 0-36-16.151-36-36V72.825c0-19.85 16.151-36 36-36h423.793c19.851 0 36 16.151 36 36v164.701c0 8.125-6.587 14.713-14.713 14.713s-14.713-6.589-14.713-14.713V72.825a6.581 6.581 0 0 0-6.574-6.574H36a6.581 6.581 0 0 0-6.574 6.574v381.781A6.581 6.581 0 0 0 36 461.18h192.474c8.126 0 14.713 6.589 14.713 14.713 0 8.125-6.586 14.713-14.712 14.713z"/><path d="M429.606 382.533H389.88v-39.725"/><path d="M429.606 397.247H389.88c-8.126 0-14.713-6.589-14.713-14.713v-39.726c0-8.125 6.587-14.713 14.713-14.713s14.713 6.589 14.713 14.713v25.012h25.012c8.126 0 14.713 6.589 14.713 14.713s-6.586 14.714-14.712 14.714z"/></symbol><symbol id="arrow-left" viewBox="0 0 438.533 438.533" xml:space="preserve" xmlns="http://www.w3.org/2000/svg"><g transform="matrix(-1 0 0 1 438.533 0)"><script id="abtinyhippos-injected"/><path d="M409.133 109.203c-19.608-33.592-46.205-60.189-79.798-79.796C295.736 9.801 259.058 0 219.273 0c-39.781 0-76.47 9.801-110.063 29.407-33.595 19.604-60.192 46.201-79.8 79.796C9.801 142.8 0 179.489 0 219.267c0 39.78 9.804 76.463 29.407 110.062 19.607 33.592 46.204 60.189 79.799 79.798 33.597 19.605 70.283 29.407 110.063 29.407s76.47-9.802 110.065-29.407c33.593-19.602 60.189-46.206 79.795-79.798 19.603-33.596 29.403-70.284 29.403-110.062.001-39.782-9.8-76.472-29.399-110.064zm-74.801 122.908L204.71 361.736c-3.617 3.613-7.896 5.428-12.847 5.428-4.952 0-9.235-1.814-12.85-5.428l-29.121-29.13c-3.617-3.613-5.426-7.898-5.426-12.847 0-4.941 1.809-9.232 5.426-12.847l87.653-87.646-87.657-87.65c-3.617-3.612-5.426-7.898-5.426-12.845 0-4.949 1.809-9.231 5.426-12.847l29.121-29.13c3.619-3.615 7.898-5.424 12.85-5.424 4.95 0 9.233 1.809 12.85 5.424l129.622 129.621c3.613 3.614 5.42 7.898 5.42 12.847.001 4.951-1.806 9.236-5.419 12.849z" data-original="#000000"/></g></symbol><symbol viewBox="0 0 438.533 438.533" id="arrow-right" xmlns="http://www.w3.org/2000/svg"><path d="M409.133 109.203c-19.608-33.592-46.205-60.189-79.798-79.796C295.736 9.801 259.058 0 219.273 0c-39.781 0-76.47 9.801-110.063 29.407-33.595 19.604-60.192 46.201-79.8 79.796C9.801 142.8 0 179.489 0 219.267c0 39.78 9.804 76.463 29.407 110.062 19.607 33.592 46.204 60.189 79.799 79.798 33.597 19.605 70.283 29.407 110.063 29.407s76.47-9.802 110.065-29.407c33.593-19.602 60.189-46.206 79.795-79.798 19.603-33.596 29.403-70.284 29.403-110.062.001-39.782-9.8-76.472-29.399-110.064zm-74.801 122.908L204.71 361.736c-3.617 3.613-7.896 5.428-12.847 5.428-4.952 0-9.235-1.814-12.85-5.428l-29.121-29.13c-3.617-3.613-5.426-7.898-5.426-12.847 0-4.941 1.809-9.232 5.426-12.847l87.653-87.646-87.657-87.65c-3.617-3.612-5.426-7.898-5.426-12.845 0-4.949 1.809-9.231 5.426-12.847l29.121-29.13c3.619-3.615 7.898-5.424 12.85-5.424 4.95 0 9.233 1.809 12.85 5.424l129.622 129.621c3.613 3.614 5.42 7.898 5.42 12.847.001 4.951-1.806 9.236-5.419 12.849z"/></symbol><symbol viewBox="0 0 438.533 438.533" id="arrow-up" xmlns="http://www.w3.org/2000/svg"><path d="M409.133 109.203c-19.608-33.592-46.205-60.189-79.798-79.796C295.736 9.801 259.058 0 219.273 0c-39.781 0-76.47 9.801-110.063 29.407-33.595 19.604-60.192 46.201-79.8 79.796C9.801 142.8 0 179.489 0 219.267c0 39.78 9.804 76.463 29.407 110.062 19.607 33.592 46.204 60.189 79.799 79.798 33.597 19.605 70.283 29.407 110.063 29.407s76.47-9.802 110.065-29.407c33.593-19.602 60.189-46.206 79.795-79.798 19.603-33.596 29.403-70.284 29.403-110.062.001-39.782-9.8-76.472-29.399-110.064zm-47.684 122.628l-25.981 25.981c-3.613 3.613-7.901 5.42-12.847 5.42-4.948 0-9.229-1.807-12.847-5.42l-53.954-53.961v143.32c0 4.948-1.813 9.232-5.428 12.847-3.613 3.62-7.898 5.427-12.847 5.427h-36.547c-4.948 0-9.231-1.807-12.847-5.427-3.617-3.614-5.426-7.898-5.426-12.847v-143.32l-53.959 53.961c-3.431 3.425-7.708 5.133-12.85 5.133-5.14 0-9.423-1.708-12.85-5.133l-25.981-25.981c-3.422-3.429-5.137-7.714-5.137-12.852 0-5.137 1.709-9.419 5.137-12.847l103.356-103.353 25.981-25.981c3.427-3.425 7.71-5.14 12.847-5.14 5.142 0 9.423 1.715 12.849 5.14l25.98 25.981 103.35 103.353c3.432 3.427 5.14 7.71 5.14 12.847.001 5.138-1.707 9.423-5.139 12.852z"/></symbol><symbol viewBox="0 0 60 60" id="clock" xmlns="http://www.w3.org/2000/svg"><path d="M30 0C13.458 0 0 13.458 0 30s13.458 30 30 30 30-13.458 30-30S46.542 0 30 0zm0 58C14.561 58 2 45.439 2 30S14.561 2 30 2s28 12.561 28 28-12.561 28-28 28z"/><path d="M31 26.021V15.879a1 1 0 1 0-2 0v10.142a3.995 3.995 0 0 0-2.858 2.858H19a1 1 0 1 0 0 2h7.142c.447 1.72 2 3 3.858 3 2.206 0 4-1.794 4-4 0-1.859-1.28-3.411-3-3.858zm-1 5.858c-1.103 0-2-.897-2-2s.897-2 2-2 2 .897 2 2-.897 2-2 2zm0-22a1 1 0 0 0 1-1v-1a1 1 0 1 0-2 0v1a1 1 0 0 0 1 1zm0 40a1 1 0 0 0-1 1v1a1 1 0 1 0 2 0v-1a1 1 0 0 0-1-1zm22-21h-1a1 1 0 1 0 0 2h1a1 1 0 1 0 0-2zm-43 0H8a1 1 0 1 0 0 2h1a1 1 0 1 0 0-2zm35.849-15.264l-.707.707a.999.999 0 1 0 1.414 1.414l.707-.707a.999.999 0 1 0-1.414-1.414zM14.444 44.021l-.707.707a.999.999 0 1 0 1.414 1.414l.707-.707a.999.999 0 1 0-1.414-1.414zm31.112 0a.999.999 0 1 0-1.414 1.414l.707.707a.997.997 0 0 0 1.414 0 .999.999 0 0 0 0-1.414l-.707-.707zM15.151 13.615a.999.999 0 1 0-1.414 1.414l.707.707a.997.997 0 0 0 1.414 0 .999.999 0 0 0 0-1.414l-.707-.707z"/></symbol><symbol viewBox="0 0 299.997 299.997" id="email" xmlns="http://www.w3.org/2000/svg"><path d="M149.996 0C67.157 0 .001 67.158.001 149.997c0 82.837 67.156 150 149.995 150s150-67.163 150-150C299.996 67.158 232.835 0 149.996 0zm.003 52.686l88.763 55.35H61.236l88.763-55.35zm89.869 143.737h-.009c0 8.878-7.195 16.072-16.072 16.072H76.211c-8.878 0-16.072-7.195-16.072-16.072v-84.865c0-.939.096-1.852.252-2.749l84.808 52.883c.104.065.215.109.322.169.112.062.226.122.34.179a8.903 8.903 0 0 0 1.847.721c.065.018.13.026.195.041a9.148 9.148 0 0 0 2.093.265h.015c.7 0 1.401-.099 2.093-.265.065-.016.13-.023.195-.041a8.99 8.99 0 0 0 1.847-.721 9.19 9.19 0 0 0 .34-.179c.106-.06.218-.104.322-.169l84.808-52.883c.156.897.252 1.808.252 2.749v84.865z"/></symbol><symbol viewBox="0 0 511.999 511.999" id="feedback" xmlns="http://www.w3.org/2000/svg"><path d="M80.408 464.663a25.37 25.37 0 0 1-10.812-2.429c-9.422-4.43-15.116-14.006-14.508-24.401l3.266-55.782H33.326C14.95 382.051 0 367.102 0 348.725V167.088c0-18.377 14.95-33.326 33.326-33.326h283.892c18.377 0 33.326 14.95 33.326 33.326v181.637c0 18.376-14.95 33.326-33.326 33.326H285.82c-7.631 0-13.817-6.186-13.817-13.817s6.186-13.817 13.817-13.817h31.399a5.699 5.699 0 0 0 5.693-5.693V167.088a5.699 5.699 0 0 0-5.693-5.693H33.326a5.7 5.7 0 0 0-5.693 5.693v181.637a5.7 5.7 0 0 0 5.693 5.693h39.678a13.817 13.817 0 0 1 13.794 14.625l-3.786 64.655 81.054-75.569a13.818 13.818 0 0 1 9.422-3.711h48.656c7.631 0 13.817 6.186 13.817 13.817s-6.186 13.817-13.817 13.817h-43.215L97.64 457.839c-4.807 4.483-10.971 6.824-17.232 6.824z"/><path d="M478.674 61.153H194.781c-10.774 0-19.51 8.735-19.51 19.509v66.918h141.947c10.774 0 19.509 8.735 19.509 19.51v114.719h1.784l85.268 79.497c7.595 7.081 19.945 1.275 19.338-9.092l-4.123-70.407h39.678c10.774 0 19.509-8.735 19.509-19.509V80.662c.002-10.775-8.733-19.509-19.507-19.509z"/><path d="M431.548 378.242c-6.361 0-12.464-2.425-17.19-6.83l-82.07-76.515c-5.452-1.849-9.378-7.011-9.378-13.089V167.089a5.7 5.7 0 0 0-5.693-5.693H175.272c-7.631 0-13.817-6.186-13.817-13.817V80.662c0-18.377 14.95-33.326 33.326-33.326h283.892c18.376 0 33.326 14.95 33.326 33.326v181.637c0 18.376-14.95 33.326-33.326 33.326h-25.029l3.266 55.782c.413 7.054-1.995 13.733-6.781 18.808-4.81 5.101-11.583 8.027-18.581 8.027zm-81.003-104.105l78.443 73.133-3.786-64.654a13.818 13.818 0 0 1 13.794-14.625h39.678a5.7 5.7 0 0 0 5.693-5.693V80.662a5.7 5.7 0 0 0-5.693-5.693H194.781a5.699 5.699 0 0 0-5.693 5.693v53.101h128.13c18.376 0 33.326 14.95 33.326 33.326v107.048h.001z"/><path d="M256 240.424H90.197c-7.631 0-13.817-6.186-13.817-13.817s6.186-13.817 13.817-13.817H256c7.631 0 13.817 6.186 13.817 13.817s-6.186 13.817-13.817 13.817zm-21.878 70.848H112.073c-7.631 0-13.817-6.186-13.817-13.817s6.186-13.817 13.817-13.817h122.049c7.631 0 13.817 6.186 13.817 13.817s-6.186 13.817-13.817 13.817z"/></symbol><symbol viewBox="0 0 487.803 487.803" id="glasses" xmlns="http://www.w3.org/2000/svg"><path d="M480.6 296.133L416 91.033c-9.1-29.9-40.9-46.8-70.8-37.7-7.1 2.2-11.2 9.7-9 16.8s9.7 11.2 16.8 9c15.7-4.8 32.3 4.1 37.1 19.8v.1l46.2 146.9c-14.7-8.3-31.6-13-49.6-13-51.8 0-94.6 39.2-100.4 89.4h-85c-6.6-49.4-49-87.6-100.2-87.6-18.1 0-35.1 4.8-49.8 13.1l46.8-148.8v-.1c4.8-15.7 21.4-24.6 37.1-19.8 7.1 2.2 14.7-1.9 16.8-9 2.2-7.1-1.9-14.7-9-16.8-29.9-9.1-61.6 7.8-70.8 37.7l-64.4 205.3c-.2.6-.3 1.1-.4 1.7-4.7 11.7-7.4 24.5-7.4 37.8 0 55.7 45.4 101.1 101.1 101.1 51.2 0 93.6-38.2 100.2-87.6h85.5c7.4 48.5 49.4 85.8 99.9 85.8 55.7 0 101.1-45.4 101.1-101.1.1-13.4-2.5-26.2-7.2-37.9zm-379.4 113.8c-40.9 0-74.1-33.2-74.1-74.1s33.2-74.1 74.1-74.1 74.1 33.2 74.1 74.1-33.3 74.1-74.1 74.1zm285.6-1.8c-40.9 0-74.1-33.2-74.1-74.1s33.3-74.1 74.1-74.1 74.1 33.2 74.1 74.1-33.2 74.1-74.1 74.1z"/></symbol><symbol viewBox="0 0 485.213 485.213" id="magnifier-tool" xmlns="http://www.w3.org/2000/svg"><path d="M363.909 181.955C363.909 81.473 282.44 0 181.956 0 81.474 0 .001 81.473.001 181.955s81.473 181.951 181.955 181.951c100.484 0 181.953-81.469 181.953-181.951zM181.956 318.416c-75.252 0-136.465-61.208-136.465-136.46 0-75.252 61.213-136.465 136.465-136.465 75.25 0 136.468 61.213 136.468 136.465 0 75.252-61.218 136.46-136.468 136.46zm289.926 89.151L360.567 296.243a214.267 214.267 0 0 1-64.331 64.321L407.56 471.888c17.772 17.768 46.587 17.768 64.321 0 17.773-17.739 17.773-46.554.001-64.321z"/></symbol><symbol viewBox="0 0 496 496" id="menu--corruption" xmlns="http://www.w3.org/2000/svg"><path d="M352 368v24h-21.496c-14.96 0-29.016-5.824-39.592-16.4l-54.632-54.624c-5.784-5.792-13.464-8.976-21.656-8.976-16.88 0-30.624 13.736-30.624 30.632 0 8.176 3.184 15.864 8.968 21.656l32 32c4.472 4.464 7.032 10.648 7.032 16.968V432h16v-18.744c0-10.68-4.168-20.728-11.72-28.28l-32-32a14.555 14.555 0 0 1-4.28-10.344c0-8.072 6.56-14.632 14.624-14.632 3.848 0 7.616 1.56 10.344 4.288l54.632 54.624c13.592 13.6 31.672 21.088 50.904 21.088H352v42.584l-17.808 7.12a87.6 87.6 0 0 1-32.68 6.296H191.528c-4.568 0-9.184-.36-13.72-1.08l-48.008-7.576c-11.768-1.856-22.44-7.296-30.864-15.712L60.28 400.976A14.555 14.555 0 0 1 56 390.632C56 382.56 62.56 376 70.624 376c3.848 0 7.616 1.56 10.344 4.288l27.312 27.32c10.584 10.576 24.648 16.4 39.6 16.4h40.792c8.648 0 17.304-2.04 25.04-5.912l-7.16-14.312a40.318 40.318 0 0 1-17.88 4.216H147.88c-10.68 0-20.728-4.16-28.288-11.712L92.28 368.976C86.496 363.184 78.816 360 70.624 360 53.744 360 40 373.736 40 390.632c0 8.176 3.184 15.864 8.968 21.656l38.656 38.664c10.84 10.832 24.56 17.816 39.68 20.2l48.008 7.576c5.36.84 10.824 1.272 16.216 1.272h109.984c13.288 0 26.28-2.504 38.616-7.44L352 467.816V496h112V368H352zm96 112h-80v-96h16v80h16v-80h48v96zM45.656 301.656l96.52-96.52C149.256 216.416 161.72 224 176 224v16h16v-16c22.056 0 40-17.944 40-40 0-18.608-12.84-34.16-30.08-38.608L219.312 128H232v-8c0-1.456-.28-2.84-.432-4.256L333.656 13.656 322.344 2.344l-36.8 36.8C257.6 13.944 221.912 0 184 0 100.184 0 32 68.184 32 152c0 37.912 13.936 73.6 39.144 101.544l-36.8 36.8 11.312 11.312zM216 184c0 13.232-10.768 24-24 24h-16c-9.904 0-18.416-6.032-22.08-14.608L187.312 160H192c13.232 0 24 10.768 24 24zm-35.312-40H176c-13.232 0-24-10.768-24-24s10.768-24 24-24h16c9.904 0 18.416 6.032 22.08 14.608L180.688 144zm45.128-45.128C218.744 87.584 206.28 80 192 80V64h-16v16c-22.056 0-40 17.944-40 40 0 18.608 12.84 34.16 30.08 38.608L148.688 176H136v8c0 1.456.28 2.84.432 4.256l-31.352 31.352C88.904 200.776 80 177.088 80 152c0-57.344 46.656-104 104-104 25.096 0 48.776 8.896 67.608 25.08l-25.792 25.792zM48 152c0-74.992 61.008-136 136-136 33.64 0 65.328 12.264 90.232 34.456L262.92 61.768C241.048 42.584 213.368 32 184 32 117.832 32 64 85.832 64 152c0 29.36 10.584 57.048 29.768 78.92l-11.312 11.312C60.264 217.32 48 185.64 48 152z"/><path d="M96.008 275.8C121.92 294.248 152.344 304 184 304c83.816 0 152-68.184 152-152 0-31.656-9.752-62.08-28.192-87.992l-13.032 9.28C311.272 96.472 320 123.688 320 152c0 74.992-61.008 136-136 136-28.304 0-55.52-8.728-78.712-25.232l-9.28 13.032z"/><path d="M184 256c-19.84 0-39.208-5.696-56.008-16.472L119.352 253c19.376 12.432 41.736 19 64.648 19 66.168 0 120-53.832 120-120 0-22.904-6.568-45.256-19-64.648l-13.472 8.632C282.304 112.8 288 132.168 288 152c0 57.344-46.656 104-104 104z"/></symbol><symbol viewBox="0 0 512 512" id="menu--exam" xmlns="http://www.w3.org/2000/svg"><path d="M375.451 315.733a8.536 8.536 0 0 0-8.533-8.533h-51.2c-4.71 0-8.533 3.823-8.533 8.533s3.823 8.533 8.533 8.533h51.2c4.71.001 8.533-3.822 8.533-8.533zM341.317 93.867V51.2c0-4.71-3.823-8.533-8.533-8.533s-8.533 3.823-8.533 8.533v42.667c0 23.526 19.14 42.667 42.667 42.667h76.8v162.133c0 4.71 3.823 8.533 8.533 8.533s8.533-3.823 8.533-8.533V128a8.536 8.536 0 0 0-8.533-8.533h-85.333c-14.115 0-25.601-11.486-25.601-25.6zm25.6 110.933H298.65a8.536 8.536 0 0 0-8.533 8.533 8.536 8.536 0 0 0 8.533 8.533h68.267a8.536 8.536 0 0 0 8.533-8.533c.001-4.71-3.822-8.533-8.533-8.533zm-93.866 8.533a8.536 8.536 0 0 0-8.533-8.533h-51.2a8.536 8.536 0 0 0-8.533 8.533 8.536 8.536 0 0 0 8.533 8.533h51.2c4.71.001 8.533-3.822 8.533-8.533zM213.317 256a8.536 8.536 0 0 0-8.533 8.533 8.536 8.536 0 0 0 8.533 8.533h17.067a8.536 8.536 0 0 0 8.533-8.533 8.536 8.536 0 0 0-8.533-8.533h-17.067zm0-85.333h85.333a8.536 8.536 0 0 0 8.533-8.533 8.536 8.536 0 0 0-8.533-8.533h-85.333a8.536 8.536 0 0 0-8.533 8.533 8.536 8.536 0 0 0 8.533 8.533zm51.2 102.4h85.333a8.536 8.536 0 0 0 8.533-8.533 8.536 8.536 0 0 0-8.533-8.533h-85.333a8.536 8.536 0 0 0-8.533 8.533 8.536 8.536 0 0 0 8.533 8.533zm51.2 85.333c-4.71 0-8.533 3.823-8.533 8.533s3.823 8.533 8.533 8.533h17.067c4.71 0 8.533-3.823 8.533-8.533s-3.823-8.533-8.533-8.533h-17.067zm-34.133-51.2h-68.267c-4.71 0-8.533 3.823-8.533 8.533s3.823 8.533 8.533 8.533h68.267c4.71 0 8.533-3.823 8.533-8.533s-3.823-8.533-8.533-8.533zm0 51.2h-68.267c-4.71 0-8.533 3.823-8.533 8.533s3.823 8.533 8.533 8.533h68.267c4.71 0 8.533-3.823 8.533-8.533s-3.823-8.533-8.533-8.533zm203.17-6.903l-17.067-17.067c-13.116-13.116-33.101-13.09-46.199 0L309.684 446.234a8.546 8.546 0 0 0-2.5 6.033v51.2a8.536 8.536 0 0 0 8.533 8.533h51.2a8.546 8.546 0 0 0 6.033-2.5l111.804-111.804c13.594-13.594 13.594-32.597 0-46.199zm-74.3 18.099l13.534 13.534-74.138 74.138-13.534-13.534 74.138-74.138zm-86.203 125.337v-39.134l39.134 39.134h-39.134zm51.2-12.066l-13.534-13.534 74.138-74.138 13.534 13.534-74.138 74.138zm97.237-97.237l-11.034 11.034-39.134-39.134 11.034-11.034c6.741-6.733 15.292-6.767 22.067 0l17.067 17.067c6.903 6.912 6.903 15.163 0 22.067z"/><path d="M281.584 494.933H59.717c-14.114 0-25.6-11.486-25.6-25.6V42.667c0-14.114 11.486-25.6 25.6-25.6h269.534L412.084 99.9a8.523 8.523 0 0 0 12.066 0 8.523 8.523 0 0 0 0-12.066L338.817 2.5a8.513 8.513 0 0 0-6.033-2.5H59.717C36.191 0 17.051 19.14 17.051 42.667v426.667c0 23.526 19.14 42.667 42.667 42.667h221.867c4.71 0 8.533-3.823 8.533-8.533s-3.824-8.535-8.534-8.535z"/><path d="M281.584 409.6h-68.267c-4.71 0-8.533 3.823-8.533 8.533s3.823 8.533 8.533 8.533h68.267c4.71 0 8.533-3.823 8.533-8.533s-3.823-8.533-8.533-8.533zM170.651 162.133a8.536 8.536 0 0 0-8.533-8.533h-51.2a8.536 8.536 0 0 0-8.533 8.533v51.2a8.536 8.536 0 0 0 8.533 8.533h51.2a8.536 8.536 0 0 0 8.533-8.533v-51.2zM153.584 204.8h-34.133v-34.133h34.133V204.8zm-42.667 221.867h51.2a8.536 8.536 0 0 0 8.533-8.533v-51.2a8.536 8.536 0 0 0-8.533-8.533h-51.2a8.536 8.536 0 0 0-8.533 8.533v51.2a8.536 8.536 0 0 0 8.533 8.533zm8.534-51.2h34.133V409.6h-34.133v-34.133zm2.5-53.701a8.54 8.54 0 0 0 6.878 2.457 8.513 8.513 0 0 0 6.255-3.755l34.133-51.2c2.611-3.925 1.553-9.225-2.364-11.836a8.533 8.533 0 0 0-11.836 2.364l-28.356 42.539-9.711-9.702c-3.336-3.337-8.73-3.337-12.066 0s-3.337 8.73 0 12.066l17.067 17.067z"/></symbol><symbol viewBox="0 0 512 512" id="menu--geo" xmlns="http://www.w3.org/2000/svg"><path d="M313.9 376.7c41.3-68.5 93.5-164.8 93.5-214.3C407.4 78.9 339.5 11 256 11S104.6 78.9 104.6 162.4c0 49.5 52.2 145.8 93.5 214.3-49 3.7-160.5 17-160.5 61.1 0 43.4 113.2 63.2 218.5 63.2 105.2 0 218.5-19.8 218.5-63.2-.1-44.1-111.7-57.4-160.7-61.1zM125.5 162.4c0-72 58.6-130.6 130.5-130.6 72 0 130.6 58.6 130.6 130.6 0 62.9-100.2 220.7-130.6 267.1-30.4-46.4-130.5-204.2-130.5-267.1zM256 480.1c-127.9 0-197.6-28-197.6-42.4 0-11.1 46-35 152-41.1 19.9 32.1 35 54.8 37 57.5 2.7 3.6 10.6 7.9 17.3 0 2.1-2.5 17.1-25.4 37-57.5 106 6.1 152 29.9 152 41.1-.1 14.5-69.8 42.4-197.7 42.4z"/><path d="M321.9 162.4c0-36.4-29.5-65.9-65.9-65.9-36.4 0-65.9 29.5-65.9 65.9 0 36.4 29.5 65.9 65.9 65.9 36.4 0 65.9-29.5 65.9-65.9zm-111 0c0-24.9 20.2-45.1 45.1-45.1s45.1 20.2 45.1 45.1c0 24.9-20.2 45.1-45.1 45.1s-45.1-20.2-45.1-45.1z"/></symbol><symbol viewBox="0 0 480 480" id="menu--hospital" xmlns="http://www.w3.org/2000/svg"><path d="M368 208v48h64v-48h-64zm48 32h-32v-16h32v16zm-48 32v48h64v-48h-64zm48 32h-32v-16h32v16zm-48 32v48h64v-48h-64zm48 32h-32v-16h32v16zm-48 32v48h64v-48h-64zm48 32h-32v-16h32v16zM272 80V32h-64v48h-48v64h48v48h64v-48h48V80h-48zm32 48h-48v48h-32v-48h-48V96h48V48h32v48h48v32z"/><path d="M352 176V0H128v176H16v304h448V176H352zM128 464H32V192h96v272zm104 0h-40V320h40v144zm56 0h-40V320h40v144zm48 0h-32V304H176v160h-32V16h192v448zm112 0h-96V192h96v272z"/><path d="M48 208v48h64v-48H48zm48 32H64v-16h32v16zm-48 32v48h64v-48H48zm48 32H64v-16h32v16zm-48 32v48h64v-48H48zm48 32H64v-16h32v16zm-48 32v48h64v-48H48zm48 32H64v-16h32v16z"/></symbol><symbol viewBox="0 0 479.981 479.981" id="menu--patient" xmlns="http://www.w3.org/2000/svg"><path d="M207.99 167.981v16c0 17.673 14.327 32 32 32 17.673 0 32-14.327 32-32v-16h-64zm32 32c-8.837 0-16-7.163-16-16h32c0 8.836-7.163 16-16 16zm-32-80v8a8 8 0 0 1-16 0v-8h-16v8c0 13.255 10.745 24 24 24s24-10.745 24-24v-8h-16zm80 0v8a8 8 0 0 1-16 0v-8h-16v8c0 13.255 10.745 24 24 24s24-10.745 24-24v-8h-16z"/><path d="M330.07 264.085v-.104h-50.08a8 8 0 0 1-8-8v-12.72c47.418-14.189 79.927-57.785 80-107.28v-24C352.033 50.178 301.966.042 240.163 0c-39.996-.027-76.965 21.293-96.973 55.925l-1.224.32.312 1.176a111.207 111.207 0 0 0-14.288 54.56v24c.073 49.495 32.582 93.091 80 107.28v12.72a8 8 0 0 1-8 8h-48c-39.746.044-71.956 32.254-72 72v104c.026 22.08 17.92 39.974 40 40h280v-144c-.04-38.926-31.01-70.772-69.92-71.896zm-35.744 15.896h15.56l-28.232 120h-15.56l28.232-120zm38.176-193.272L291.83 59.597l22.176-8.68a95.789 95.789 0 0 1 18.496 35.792zM239.99 15.981a95.346 95.346 0 0 1 32.704 5.856L167.19 49.581a95.752 95.752 0 0 1 72.8-33.6zm-86.024 53.64l140.128-36.84a95.722 95.722 0 0 1 7.6 5.8L144.83 99.925a95.136 95.136 0 0 1 9.136-30.304zm-9.976 66.36v-18.536l129.664-50.736 62.144 41.424c.048 1.288.192 2.552.192 3.848v24c0 53.019-42.981 96-96 96s-96-42.981-96-96zm-7.144 280l-7.68 48h-9.176c-13.255 0-24-10.745-24-24v-104c.035-30.913 25.087-55.965 56-56h6.616l-19.2 120H127.99v16h8.856zm39.144 48h-30.616l29.44-184h18.36l29.44 184H175.99zm33.088-185.816a24 24 0 0 0 14.912-22.184v-8h32v8c.04 12.424 9.572 22.755 21.952 23.792l-28.288 120.208h-21.08l-19.496-121.816zm94.912 185.816h-65.176l-7.68-48h72.856c13.255 0 24 10.745 24 24s-10.745 24-24 24zm80 0h-48.208a39.607 39.607 0 0 0 8.208-24c-.026-22.08-17.92-39.974-40-40h-5.896l28.24-120h1.656c30.913.035 55.965 25.087 56 56v128z"/></symbol><symbol viewBox="0 0 512 512" id="menu--survey" xmlns="http://www.w3.org/2000/svg"><circle cx="53.333" cy="74.667" r="10.667"/><circle cx="96" cy="74.667" r="10.667"/><circle cx="138.667" cy="74.667" r="10.667"/><path d="M117.333 234.667H352c5.896 0 10.667-4.771 10.667-10.667s-4.771-10.667-10.667-10.667H117.333c-5.896 0-10.667 4.771-10.667 10.667s4.772 10.667 10.667 10.667zm128 106.666h-128A10.66 10.66 0 0 0 106.666 352a10.66 10.66 0 0 0 10.667 10.667h128A10.66 10.66 0 0 0 256 352a10.66 10.66 0 0 0-10.667-10.667z"/><path d="M471.167 149.333c-.618 0-1.217.155-1.833.184V64c0-23.531-19.146-42.667-42.667-42.667h-384C19.146 21.333 0 40.469 0 64v384c0 23.531 19.146 42.667 42.667 42.667h384c23.521 0 42.667-19.135 42.667-42.667V249.745l30.708-30.703v-.01c7.604-7.604 11.958-18.125 11.958-28.865 0-22.521-18.312-40.834-40.833-40.834zM21.333 64c0-11.76 9.563-21.333 21.333-21.333h384C438.438 42.667 448 52.24 448 64v42.667H21.333V64zM448 448c0 11.76-9.563 21.333-21.333 21.333h-384c-11.771 0-21.333-9.573-21.333-21.333V128H448v28.62c-2.025 1.392-3.962 2.923-5.708 4.672l-116.06 116.042H117.333c-5.896 0-10.667 4.771-10.667 10.667s4.771 10.667 10.667 10.667h191.785l-10.243 51.24c-.708 3.5.396 7.115 2.917 9.635a10.68 10.68 0 0 0 7.542 3.125c.688 0 1.396-.073 2.083-.208l53.313-10.667a10.601 10.601 0 0 0 5.458-2.917l77.812-77.8V448zm-90.604-116.49l-34.458 6.896 6.896-34.5 96.828-96.828 27.587 27.587-96.853 96.845zm127.562-127.552l-15.625 15.625-27.589-27.589 15.63-15.63a19.662 19.662 0 0 1 13.792-5.698c10.75 0 19.5 8.75 19.5 19.5.001 5.126-2.083 10.157-5.708 13.792z"/></symbol><symbol viewBox="0 0 60 60" id="menu--time" xmlns="http://www.w3.org/2000/svg"><path d="M30 0C13.458 0 0 13.458 0 30s13.458 30 30 30 30-13.458 30-30S46.542 0 30 0zm0 58C14.561 58 2 45.439 2 30S14.561 2 30 2s28 12.561 28 28-12.561 28-28 28z"/><path d="M30 6a1 1 0 0 0-1 1v23H14a1 1 0 1 0 0 2h16a1 1 0 0 0 1-1V7a1 1 0 0 0-1-1z"/></symbol><symbol viewBox="0 0 512 512" id="menu--writing" xmlns="http://www.w3.org/2000/svg"><path d="M352.459 220c0-11.046-8.954-20-20-20h-206c-11.046 0-20 8.954-20 20s8.954 20 20 20h206c11.046 0 20-8.954 20-20zm-226 60c-11.046 0-20 8.954-20 20s8.954 20 20 20H251.57c11.046 0 20-8.954 20-20s-8.954-20-20-20H126.459z"/><path d="M173.459 472H106.57c-22.056 0-40-17.944-40-40V80c0-22.056 17.944-40 40-40h245.889c22.056 0 40 17.944 40 40v123c0 11.046 8.954 20 20 20s20-8.954 20-20V80c0-44.112-35.888-80-80-80H106.57c-44.112 0-80 35.888-80 80v352c0 44.112 35.888 80 80 80h66.889c11.046 0 20-8.954 20-20s-8.954-20-20-20z"/><path d="M467.884 289.572c-23.394-23.394-61.458-23.395-84.837-.016l-109.803 109.56a20.005 20.005 0 0 0-5.01 8.345l-23.913 78.725a20 20 0 0 0 24.476 25.087l80.725-22.361a19.993 19.993 0 0 0 8.79-5.119l109.573-109.367c23.394-23.394 23.394-61.458-.001-84.854zM333.776 451.768l-40.612 11.25 11.885-39.129 74.089-73.925 28.29 28.29-73.652 73.514zM439.615 346.13l-3.875 3.867-28.285-28.285 3.862-3.854c7.798-7.798 20.486-7.798 28.284 0 7.798 7.798 7.798 20.486.014 28.272zM332.459 120h-206c-11.046 0-20 8.954-20 20s8.954 20 20 20h206c11.046 0 20-8.954 20-20s-8.954-20-20-20z"/></symbol><symbol viewBox="0 0 299.995 299.995" id="phone-book" xmlns="http://www.w3.org/2000/svg"><path d="M143.511 154.004c19.146 0 23.718-15.613 23.718-28.711 0-13.098-10.621-23.718-23.718-23.718s-23.721 10.621-23.721 23.718c0 13.098 6.292 28.711 23.721 28.711zm3.304 3.297h-6.608c-13.002 0-32.498 11.91-32.498 26.61s-4.409 26.615 8.59 26.615h54.428c12.999 0 8.59-11.915 8.59-26.615s-19.5-26.61-32.502-26.61z"/><path d="M149.992.001C67.156.001 0 67.159 0 149.998s67.156 149.997 149.992 149.997c82.842 0 150.003-67.161 150.003-149.997C299.995 67.157 232.834.001 149.992.001zm60.955 217.131v10.374c0 5.729-4.645 10.374-10.374 10.374H96.829c-11.458 0-20.749-9.29-20.749-20.749V86.589c0-11.458 9.29-20.749 20.749-20.749h103.743c5.729 0 10.374 4.645 10.374 10.374v10.375h.001v130.543zm20.748-130.543v140.917c0 5.729-4.645 10.374-10.374 10.374h-2.806a20.6 20.6 0 0 0 2.806-10.374V76.215c0-3.781-1.032-7.319-2.806-10.374h2.806c5.729 0 10.374 4.645 10.374 10.374v10.374z"/></symbol><symbol viewBox="0 0 485.213 485.212" id="phone-symbol-of-an-auricular-inside-a-circle" xmlns="http://www.w3.org/2000/svg"><path d="M242.607 0C108.629 0 .001 108.628.001 242.606c0 133.976 108.628 242.606 242.606 242.606s242.604-108.631 242.604-242.606C485.212 108.628 376.585 0 242.607 0zm128.112 353.989l-19.425 19.429c-3.468 3.463-13.623 5.624-13.949 5.624-61.452.536-120.621-23.602-164.095-67.08-43.593-43.618-67.759-102.998-67.11-164.657 0-.028 2.224-9.892 5.689-13.324l19.424-19.427c7.108-7.141 20.762-10.368 30.327-7.168l4.086 1.363c9.537 3.197 19.55 13.742 22.185 23.457l9.771 35.862c2.635 9.743-.919 23.604-8.025 30.712l-12.97 12.972c12.734 47.142 49.723 84.138 96.873 96.903l12.965-12.975c7.141-7.141 20.997-10.692 30.719-8.061l35.857 9.806c9.717 2.67 20.26 12.62 23.456 22.154l1.363 4.145c3.168 9.538-.034 23.189-7.141 30.265z"/></symbol><symbol viewBox="0 0 512.001 512.001" id="question" xmlns="http://www.w3.org/2000/svg"><path d="M344.515 501.666H43.519C19.523 501.666 0 482.143 0 458.145V154.199c0-23.997 19.523-43.519 43.519-43.519h144.202c7.907 0 14.317 6.411 14.317 14.317s-6.41 14.317-14.317 14.317H43.519c-8.209 0-14.886 6.679-14.886 14.886v303.948c0 8.208 6.679 14.886 14.886 14.886h300.995c7.906 0 14.317 6.411 14.317 14.317s-6.409 14.315-14.316 14.315zm123.966 0h-53.686c-7.906 0-14.317-6.411-14.317-14.317s6.411-14.317 14.317-14.317h53.686c8.208 0 14.886-6.679 14.886-14.886V154.199c0-8.208-6.679-14.886-14.886-14.886H324.279c-7.906 0-14.317-6.411-14.317-14.317s6.411-14.317 14.317-14.317h144.202c23.997 0 43.52 19.523 43.52 43.519v303.948c-.001 23.997-19.523 43.52-43.52 43.52z"/><path d="M270.865 249.988h-29.728c-23.297 0-42.252-18.954-42.252-42.251v-63.953h-1.707c-10.053 0-19.123-5.569-23.671-14.534s-3.685-19.574 2.253-27.685L234.582 21.2c4.979-6.803 12.987-10.866 21.418-10.866s16.438 4.062 21.419 10.865l58.822 80.366c5.937 8.11 6.802 18.719 2.253 27.685-4.548 8.965-13.619 14.534-23.671 14.534h-1.708v63.953c-.001 23.298-18.954 42.251-42.25 42.251zm-69.569-134.837h11.903c7.907 0 14.317 6.411 14.317 14.317v78.27c0 7.509 6.11 13.618 13.619 13.618h29.728c7.509 0 13.618-6.109 13.618-13.618v-78.27c0-7.906 6.411-14.317 14.317-14.317h11.903L256 40.416l-54.704 74.735z"/><path d="M465.068 129.685H298.799v78.052c0 15.428-12.507 27.934-27.934 27.934h-29.728c-15.428 0-27.934-12.507-27.934-27.934v-78.052H46.931c-24.44 0-34.918 31.027-15.485 45.844L240.514 334.94a25.534 25.534 0 0 0 30.968 0l209.067-159.41c19.438-14.818 8.958-45.845-15.481-45.845z"/><path d="M256 354.486a40.077 40.077 0 0 1-24.163-8.16L22.766 186.914C8.949 176.38 3.612 158.934 9.173 142.47s20.381-27.103 37.76-27.103h166.27c7.907 0 14.317 6.411 14.317 14.317v78.052c0 7.509 6.109 13.619 13.618 13.619h29.728c7.509 0 13.618-6.11 13.618-13.619v-78.051c0-7.906 6.411-14.317 14.317-14.317h166.27c17.377 0 32.199 10.639 37.76 27.103 5.559 16.464.222 33.91-13.596 44.444l-209.07 159.411c-6.902 5.263-15.486 8.16-24.165 8.16zM46.933 144.002c-7.473 0-10.026 5.841-10.631 7.631-.606 1.79-2.116 7.983 3.827 12.513l209.069 159.412a11.129 11.129 0 0 0 6.803 2.296c2.478 0 4.832-.795 6.803-2.296l209.068-159.412c5.943-4.531 4.434-10.723 3.828-12.513-.604-1.79-3.158-7.631-10.631-7.631H313.114v63.736c0 23.297-18.954 42.252-42.251 42.252h-29.728c-23.297 0-42.251-18.954-42.251-42.252v-63.736H46.933z"/></symbol><symbol viewBox="0 0 401.475 401.475" id="quick--adress" xmlns="http://www.w3.org/2000/svg"><path d="M209.296 127.782a9 9 0 0 1 9-9h2.148c4.971 0 9 4.029 9 9s-4.029 9-9 9h-2.148a9 9 0 0 1-9-9zm144.241 267.156a8.997 8.997 0 0 1-1.452 2.929 8.937 8.937 0 0 1-2.807 2.461 8.927 8.927 0 0 1-3.623 1.114c-.261.022-256.804.033-256.804.033-22.748 0-41.255-18.507-41.255-41.256V39.064C47.596 17.524 65.12 0 86.661 0h228.15c10.398-.001 20.198 4.07 27.595 11.466 7.397 7.396 11.472 17.197 11.472 27.599v288.741c.005.317-.006.634-.034.948a8.922 8.922 0 0 1-1.1 3.586 8.947 8.947 0 0 1-3.241 3.346c-7.747 4.856-12.556 14.243-12.556 24.533s4.808 19.677 12.556 24.533c.261.157.513.326.756.508h.001l.004.004a8.92 8.92 0 0 1 2.483 2.84 8.946 8.946 0 0 1 1.096 3.573 8.988 8.988 0 0 1-.306 3.261zM84.855 360.219a9 9 0 0 1 9-9h225.904a48.745 48.745 0 0 1 4.956-14.255H88.851c-12.823 0-23.255 10.432-23.255 23.255s10.432 23.256 23.255 23.256h235.864a48.78 48.78 0 0 1-4.956-14.256H93.855a9 9 0 0 1-9-9zM335.878 39.064c0-5.593-2.201-10.873-6.198-14.869s-9.275-6.196-14.865-6.195l-18.179.003L86.661 18c-11.615 0-21.065 9.449-21.065 21.064v287.095a41.02 41.02 0 0 1 23.255-7.195h247.026v-279.9zm-66.22 162.479c-4.71-1.596-9.816.938-11.406 5.646a9 9 0 0 0 5.646 11.406c4.889 1.651 8.173 6.207 8.173 11.335 0 6.593-5.362 11.956-11.954 11.956h-81.489c-6.592 0-11.955-5.363-11.955-11.956 0-5.129 3.285-9.684 8.174-11.336a9 9 0 0 0-5.761-17.053c-12.209 4.125-20.413 15.533-20.413 28.389 0 16.518 13.438 29.956 29.955 29.956h81.489c16.517 0 29.954-13.438 29.954-29.956 0-12.855-8.203-24.263-20.413-28.387zM91.032 30.462a9 9 0 0 0-9 9v258.039c0 4.971 4.029 9 9 9s9-4.029 9-9V39.462a9 9 0 0 0-9-9zm103.612 163.921c-16.037-31.517-25.976-53.651-25.976-66.602 0-27.957 22.746-50.702 50.704-50.702s50.703 22.745 50.703 50.702c0 12.951-9.938 35.085-25.974 66.601 0 0-5.735 11.32-6.021 11.922-2.314 4.852-6.622 13.884-18.708 13.884-12.087 0-16.394-9.031-18.707-13.884-.287-.601-6.021-11.921-6.021-11.921zm-7.976-66.602c0 11.236 16.831 44.313 24.018 58.438 0 0 5.882 11.616 6.226 12.337.576 1.208 1.426 2.989 1.939 3.602.215.029.827.029 1.04 0 .515-.612 1.364-2.395 1.941-3.604.343-.72 6.226-12.336 6.226-12.336 7.187-14.124 24.017-47.201 24.017-58.438 0-18.032-14.671-32.702-32.703-32.702-18.033.001-32.704 14.671-32.704 32.703z"/></symbol><symbol viewBox="0 0 512.16 512.16" id="quick--card" xmlns="http://www.w3.org/2000/svg"><path d="M273.067 337.147H409.6c5.12 0 8.533-3.413 8.533-8.533v-76.8c0-5.12-3.413-8.533-8.533-8.533H273.067c-5.12 0-8.533 3.413-8.533 8.533v76.8c-.001 5.119 3.413 8.533 8.533 8.533zm8.533-76.8h119.467v59.733H281.6v-59.733zM42.667 226.213h68.267c5.12 0 8.533-3.413 8.533-8.533s-3.413-8.533-8.533-8.533H42.667c-5.12 0-8.533 3.413-8.533 8.533s3.413 8.533 8.533 8.533zm102.4 0h68.267c5.12 0 8.533-3.413 8.533-8.533s-3.413-8.533-8.533-8.533h-68.267c-5.12 0-8.533 3.413-8.533 8.533s3.413 8.533 8.533 8.533zm-102.4 34.134H153.6c5.12 0 8.533-3.413 8.533-8.533s-3.413-8.533-8.533-8.533H42.667c-5.12 0-8.533 3.413-8.533 8.533s3.413 8.533 8.533 8.533zm170.666-17.067h-25.6c-5.12 0-8.533 3.413-8.533 8.533s3.413 8.533 8.533 8.533h25.6c5.12 0 8.533-3.413 8.533-8.533s-3.413-8.533-8.533-8.533z"/><path d="M504.32 137.467c-5.973-7.68-13.653-11.947-23.04-12.8l-20.48-2.482V81.147c0-18.773-15.36-34.133-34.133-34.133H34.133C15.36 47.013 0 62.373 0 81.147v273.067c0 15.413 10.357 28.518 24.453 32.718-.43 17.262 12.631 32.248 30.161 33.842l394.24 44.373h3.413c17.067 0 32.427-12.8 34.133-29.013l25.6-273.92c.853-8.534-1.707-17.921-7.68-24.747zm-487.253-30.72h426.667v51.2H17.067v-51.2zM34.133 64.08h392.533c9.387 0 17.067 7.68 17.067 17.067v8.533H17.067v-8.533c0-9.387 7.68-17.067 17.066-17.067zM17.067 354.213v-179.2h426.667v179.2c0 9.387-7.68 17.067-17.067 17.067H34.134c-9.387 0-17.067-7.68-17.067-17.067zM494.933 158.8l-25.6 273.92c-.853 9.387-9.387 16.213-18.773 15.36L57.173 403.707c-8.533-.853-14.507-7.68-15.36-15.36h384.853c18.773 0 34.133-15.36 34.133-34.133V138.32l19.627 1.707c4.267 0 8.533 2.56 11.093 5.973 2.561 3.413 4.268 8.533 3.414 12.8z"/></symbol><symbol viewBox="0 0 512 512" id="quick--catalog" xmlns="http://www.w3.org/2000/svg"><path d="M488.59 349V62.333H23.41V349H0v100.667h512V349h-23.41zM53.41 92.334h405.18V349H292.898l-6.087 18.5h-61.622l-6.087-18.5H53.41V92.334zM482 419.667H30V379h167.391l6.087 18.5h105.044l6.087-18.5H482v40.667z"/><path d="M91.666 143v92.667h112V143h-112zm82 62.667h-52V173h52v32.667zM239.67 143h174v30h-174zm0 62.67h174v30h-174zM91 268.33h322.67v30H91z"/></symbol><symbol viewBox="0 0 512 512" id="quick--feedback" xmlns="http://www.w3.org/2000/svg"><circle cx="53.333" cy="74.667" r="10.667"/><circle cx="96" cy="74.667" r="10.667"/><circle cx="138.667" cy="74.667" r="10.667"/><path d="M117.333 234.667H352c5.896 0 10.667-4.771 10.667-10.667s-4.771-10.667-10.667-10.667H117.333c-5.896 0-10.667 4.771-10.667 10.667s4.772 10.667 10.667 10.667zm128 106.666h-128A10.66 10.66 0 0 0 106.666 352a10.66 10.66 0 0 0 10.667 10.667h128A10.66 10.66 0 0 0 256 352a10.66 10.66 0 0 0-10.667-10.667z"/><path d="M471.167 149.333c-.618 0-1.217.155-1.833.184V64c0-23.531-19.146-42.667-42.667-42.667h-384C19.146 21.333 0 40.469 0 64v384c0 23.531 19.146 42.667 42.667 42.667h384c23.521 0 42.667-19.135 42.667-42.667V249.745l30.708-30.703v-.01c7.604-7.604 11.958-18.125 11.958-28.865 0-22.521-18.312-40.834-40.833-40.834zM21.333 64c0-11.76 9.563-21.333 21.333-21.333h384C438.438 42.667 448 52.24 448 64v42.667H21.333V64zM448 448c0 11.76-9.563 21.333-21.333 21.333h-384c-11.771 0-21.333-9.573-21.333-21.333V128H448v28.62c-2.025 1.392-3.962 2.923-5.708 4.672l-116.06 116.042H117.333c-5.896 0-10.667 4.771-10.667 10.667s4.771 10.667 10.667 10.667h191.785l-10.243 51.24c-.708 3.5.396 7.115 2.917 9.635a10.68 10.68 0 0 0 7.542 3.125c.688 0 1.396-.073 2.083-.208l53.313-10.667a10.601 10.601 0 0 0 5.458-2.917l77.812-77.8V448zm-90.604-116.49l-34.458 6.896 6.896-34.5 96.828-96.828 27.587 27.587-96.853 96.845zm127.562-127.552l-15.625 15.625-27.589-27.589 15.63-15.63a19.662 19.662 0 0 1 13.792-5.698c10.75 0 19.5 8.75 19.5 19.5.001 5.126-2.083 10.157-5.708 13.792z"/></symbol><symbol viewBox="0 0 60 60" id="quick--file" xmlns="http://www.w3.org/2000/svg"><path d="M45 25H20a1 1 0 1 0 0 2h25a1 1 0 1 0 0-2zm-25-6h10a1 1 0 1 0 0-2H20a1 1 0 1 0 0 2zm25 14H20a1 1 0 1 0 0 2h25a1 1 0 1 0 0-2zm0 8H20a1 1 0 1 0 0 2h25a1 1 0 1 0 0-2zm0 8H20a1 1 0 1 0 0 2h25a1 1 0 1 0 0-2z"/><path d="M49 14.586V0H6v55h5v5h43V19.586l-5-5zm-9-6.172l9 9L50.586 19H40V8.414zM8 53V2h39v10.586L39.414 5H11v48H8zm5 5V7h25v14h14v37H13z"/></symbol><symbol viewBox="-30 0 512 512" id="quick--questions" xmlns="http://www.w3.org/2000/svg"><path d="M290.594 323.008c-5.524 0-10-4.48-10-10v-6.418c-.203-20.52 9.734-36.145 27.992-43.902 17.402-7.399 28.648-24.293 28.648-43.051 0-25.719-20.921-46.645-46.64-46.645s-46.645 20.926-46.645 46.645c0 5.523-4.476 10-10 10-5.523 0-10-4.477-10-10 0-36.746 29.895-66.645 66.645-66.645 36.746 0 66.64 29.899 66.64 66.645 0 26.793-16.023 50.918-40.824 61.457-10.77 4.574-15.941 12.883-15.816 25.394v6.52c0 5.52-4.477 10-10 10zm0 0"/><path d="M290.594 363.008c5.508 0 10-4.492 10-10 0-5.512-4.492-10-10-10s-10 4.488-10 10c0 5.508 4.492 10 10 10zm0 0" fill-rule="evenodd"/><path d="M452.594 256c0-54.375-26.93-102.578-68.149-131.977V10c0-5.523-4.476-10-10-10H114.02c-.114 0-.223.012-.336.016a7.658 7.658 0 0 0-.34.02 9.706 9.706 0 0 0-1.258.155h-.023a10.375 10.375 0 0 0-1.551.457 9.143 9.143 0 0 0-1.121.493l-.07.03a9.42 9.42 0 0 0-1.098.692c-.09.063-.18.13-.27.2-.348.265-.691.55-1.004.867L2.938 106.938c-.239.238-.461.488-.676.75-.074.09-.14.187-.211.28-.059.079-.113.15-.168.227-.067.094-.14.184-.203.278-.086.129-.157.261-.239.39-.09.149-.18.297-.261.45-.075.136-.137.277-.203.414-.075.156-.153.312-.22.472-.046.117-.085.235-.128.356-.027.074-.055.144-.078.218-.043.114-.086.23-.121.348-.043.137-.075.277-.11.418-.043.172-.09.344-.125.52-.004.007-.004.011-.004.02-.03.155-.05.312-.074.472-.023.16-.05.32-.066.484-.012.11-.012.215-.02.32-.008.11-.011.215-.015.325l-.012.234c0 .035-.004.07-.004.106V392c0 5.52 4.477 10 10 10s10-4.48 10-10V124.02h94.02c5.523 0 10-4.48 10-10V20h240.425v91.836C342.285 100.437 317.18 94 290.594 94c-89.328 0-162 72.672-162 162s72.672 162 162 162c26.586 0 51.691-6.438 73.851-17.836V492H20v-20.004c0-5.52-4.477-10-10-10s-10 4.48-10 10V502c0 5.523 4.477 10 10 10h364.445c5.524 0 10-4.477 10-10V387.977c41.22-29.399 68.149-77.602 68.149-131.977zM34.14 104.02l69.879-69.875v69.875zM290.594 398c-78.301 0-142-63.7-142-142s63.699-142 142-142 142 63.7 142 142-63.7 142-142 142zm0 0"/><path d="M10 441.996c5.508 0 10-4.492 10-10s-4.492-10-10-10-10 4.492-10 10 4.492 10 10 10zm0 0" fill-rule="evenodd"/></symbol><symbol viewBox="0 0 489.091 489.091" id="quick--structure" xmlns="http://www.w3.org/2000/svg"><path d="M122.346 281.291h243.8v40.9h21.4v-51.7c0-5.9-4.8-10.7-10.7-10.7h-121.9v-39h-21.4v39h-121.9c-5.9 0-10.7 4.8-10.7 10.7v50.2h21.4v-39.4zm122-82h86.4c-.5-35.9 1-55.1-22.3-63.6-21.2-8.1-33.8-16.3-33.8-16.3l-16.3 51.5-2.2 7-7.3-20.7c16.8-23.4-1.3-24.5-4.4-24.5h-.2c-3.1 0-21.2 1.1-4.4 24.5l-7.3 20.7-2.2-7-16.3-51.5s-12.7 8.3-33.8 16.3c-23.3 8.5-21.9 27.6-22.3 63.6h86.4z"/><path d="M207.846 86.591c1.9 12.1 11.2 27.5 26.6 32.9 6.3 2.2 13.2 2.2 19.5 0 15.1-5.4 24.8-20.8 26.6-32.9 2-.2 4.7-3 7.6-13.2 3.9-13.9-.2-16-3.8-15.7.7-1.9 1.2-3.8 1.5-5.7 6-36.1-11.8-37.3-11.8-37.3s-2.9-5.7-10.7-9.9c-5.2-3.1-12.4-5.5-22-4.6-3.1.1-6 .7-8.8 1.7-3.5 1.2-6.7 2.9-9.6 4.9-3.6 2.3-6.9 5-9.9 8.2-4.7 4.8-8.9 11-10.7 18.8-1.5 5.8-1.2 11.8.1 18.3.3 1.9.8 3.8 1.5 5.7-3.5-.3-7.7 1.7-3.8 15.7 3 10.1 5.7 12.9 7.7 13.1zm217.3 354.8c-15.9-6.1-25.4-12.3-25.4-12.3l-12.2 38.7-1.7 5.2-5.5-15.5c12.6-17.6-1-18.4-3.3-18.4s-15.9.9-3.3 18.4l-5.5 15.5-1.7-5.2-12.2-38.7s-9.5 6.2-25.4 12.3c-17.5 6.3-16.4 20.7-16.7 47.7h129.7c-.4-27 .7-41.4-16.8-47.7z"/><path d="M374.946 339.691c-2.3.1-4.5.6-6.6 1.3-2.6.9-5 2.2-7.2 3.7-2.7 1.7-5.2 3.8-7.4 6.1-3.5 3.6-6.7 8.3-8 14.1-1.1 4.3-.9 8.9.1 13.8.3 1.4.6 2.9 1.2 4.3-2.7-.3-5.8 1.3-2.8 11.7 2.2 7.6 4.2 9.8 5.7 9.9 1.4 9.1 8.4 20.6 19.9 24.7 4.7 1.7 9.9 1.7 14.6 0 11.3-4.1 18.6-15.6 20-24.7 1.5-.1 3.5-2.3 5.7-9.9 3-10.5-.2-12-2.8-11.7.5-1.4.9-2.9 1.2-4.3 4.5-27.1-8.8-28-8.8-28s-2.2-4.2-8-7.5c-4.2-2.4-9.6-4.2-16.8-3.5zm-214.9 101.7c-15.9-6.1-25.4-12.3-25.4-12.3l-12.2 38.7-1.7 5.2-5.5-15.5c12.6-17.6-1-18.4-3.3-18.4s-15.9.9-3.3 18.4l-5.5 15.5-1.7-5.2-12.2-38.7s-9.5 6.2-25.4 12.3c-17.5 6.3-16.4 20.7-16.7 47.7h129.7c-.4-27 .6-41.4-16.8-47.7z"/><path d="M84.646 404.591c1.4 9.1 8.4 20.6 19.9 24.7 4.7 1.7 9.9 1.7 14.6 0 11.3-4.1 18.6-15.6 20-24.7 1.5-.1 3.5-2.3 5.7-9.9 3-10.5-.2-12-2.8-11.7.5-1.4.9-2.9 1.2-4.3 4.5-27.1-8.8-28-8.8-28s-2.2-4.2-8-7.5c-3.9-2.3-9.3-4.1-16.5-3.5-2.3.1-4.5.6-6.6 1.3-2.6.9-5 2.2-7.2 3.7-2.7 1.7-5.2 3.8-7.4 6.1-3.5 3.6-6.7 8.3-8 14.1-1.1 4.3-.9 8.9.1 13.8.3 1.4.6 2.9 1.2 4.3-2.7-.3-5.8 1.3-2.8 11.7 1.8 7.6 3.9 9.7 5.4 9.9z"/></symbol><symbol viewBox="0 0 60 60" id="quick--time" xmlns="http://www.w3.org/2000/svg"><path d="M30 0C13.458 0 0 13.458 0 30s13.458 30 30 30 30-13.458 30-30S46.542 0 30 0zm0 58C14.561 58 2 45.439 2 30S14.561 2 30 2s28 12.561 28 28-12.561 28-28 28z"/><path d="M30 6a1 1 0 0 0-1 1v23H14a1 1 0 1 0 0 2h16a1 1 0 0 0 1-1V7a1 1 0 0 0-1-1z"/></symbol><symbol viewBox="0 0 129 129" id="right-arrow" xmlns="http://www.w3.org/2000/svg"><path d="M40.4 121.3c-.8.8-1.8 1.2-2.9 1.2s-2.1-.4-2.9-1.2c-1.6-1.6-1.6-4.2 0-5.8l51-51-51-51c-1.6-1.6-1.6-4.2 0-5.8 1.6-1.6 4.2-1.6 5.8 0l53.9 53.9c1.6 1.6 1.6 4.2 0 5.8l-53.9 53.9z"/></symbol><symbol viewBox="0 0 512 512" id="sitemap" xmlns="http://www.w3.org/2000/svg"><path d="M110.933 426.667H42.667c-4.71 0-8.533 3.823-8.533 8.533s3.823 8.533 8.533 8.533h68.267c4.71 0 8.533-3.823 8.533-8.533s-3.823-8.533-8.534-8.533zm85.334-290.134h119.467c4.719 0 8.533-3.823 8.533-8.533s-3.814-8.533-8.533-8.533H196.267c-4.71 0-8.533 3.823-8.533 8.533s3.822 8.533 8.533 8.533z"/><path d="M76.8 324.267a8.536 8.536 0 0 0 8.533-8.533v-42.667h162.133v42.667a8.536 8.536 0 0 0 8.533 8.533 8.53 8.53 0 0 0 8.533-8.533v-42.667h162.133v42.667c0 4.71 3.814 8.533 8.533 8.533s8.533-3.823 8.533-8.533v-51.2a8.53 8.53 0 0 0-8.533-8.533H264.533v-59.733a8.53 8.53 0 0 0-8.533-8.533h-93.867c-14.114 0-25.6-11.486-25.6-25.6V42.667c0-14.114 11.486-25.6 25.6-25.6h187.733c14.114 0 25.6 11.486 25.6 25.6v119.467c0 14.114-11.486 25.6-25.6 25.6h-59.733c-4.719 0-8.533 3.823-8.533 8.533s3.814 8.533 8.533 8.533h59.733c23.526 0 42.667-19.14 42.667-42.667V42.667C392.533 19.14 373.393 0 349.867 0H162.133c-23.526 0-42.667 19.14-42.667 42.667v119.467c0 23.526 19.14 42.667 42.667 42.667h85.333V256H76.8a8.536 8.536 0 0 0-8.533 8.533v51.2c0 4.711 3.823 8.534 8.533 8.534z"/><path d="M196.267 85.333h102.4c4.719 0 8.533-3.823 8.533-8.533s-3.814-8.533-8.533-8.533h-102.4c-4.71 0-8.533 3.823-8.533 8.533s3.822 8.533 8.533 8.533zM42.667 409.6H76.8c4.71 0 8.533-3.823 8.533-8.533s-3.823-8.533-8.533-8.533H42.667c-4.71 0-8.533 3.823-8.533 8.533s3.822 8.533 8.533 8.533z"/><path d="M136.533 341.333H17.067C7.654 341.333 0 348.988 0 358.4v136.533C0 504.346 7.654 512 17.067 512h119.467c9.412 0 17.067-7.654 17.067-17.067V358.4c-.001-9.412-7.655-17.067-17.068-17.067zm-119.466 153.6V358.4h119.467l.009 136.533H17.067z"/><path d="M110.933 460.8H42.667c-4.71 0-8.533 3.823-8.533 8.533s3.823 8.533 8.533 8.533h68.267c4.71 0 8.533-3.823 8.533-8.533s-3.823-8.533-8.534-8.533zm358.4 0h-68.267c-4.719 0-8.533 3.823-8.533 8.533s3.814 8.533 8.533 8.533h68.267c4.719 0 8.533-3.823 8.533-8.533s-3.814-8.533-8.533-8.533zm0-34.133h-68.267c-4.719 0-8.533 3.823-8.533 8.533s3.814 8.533 8.533 8.533h68.267c4.719 0 8.533-3.823 8.533-8.533s-3.814-8.533-8.533-8.533z"/><path d="M494.933 341.333H375.467c-9.412 0-17.067 7.654-17.067 17.067v136.533c0 9.412 7.654 17.067 17.067 17.067h119.467c9.412 0 17.067-7.654 17.067-17.067V358.4c-.001-9.412-7.655-17.067-17.068-17.067zm-119.466 153.6V358.4h119.467l.009 136.533H375.467z"/><path d="M401.067 409.6H435.2c4.719 0 8.533-3.823 8.533-8.533s-3.814-8.533-8.533-8.533h-34.133c-4.719 0-8.533 3.823-8.533 8.533s3.814 8.533 8.533 8.533zm-110.934 17.067h-68.267c-4.71 0-8.533 3.823-8.533 8.533s3.823 8.533 8.533 8.533h68.267c4.719 0 8.533-3.823 8.533-8.533s-3.814-8.533-8.533-8.533zm0 34.133h-68.267c-4.71 0-8.533 3.823-8.533 8.533s3.823 8.533 8.533 8.533h68.267c4.719 0 8.533-3.823 8.533-8.533s-3.814-8.533-8.533-8.533z"/><path d="M315.733 341.333H196.267c-9.412 0-17.067 7.654-17.067 17.067v136.533c0 9.412 7.654 17.067 17.067 17.067h119.467c9.412 0 17.067-7.654 17.067-17.067V358.4c-.001-9.412-7.655-17.067-17.068-17.067zm-119.466 153.6V358.4h119.467l.009 136.533H196.267z"/><path d="M221.867 409.6H256c4.719 0 8.533-3.823 8.533-8.533s-3.814-8.533-8.533-8.533h-34.133c-4.71 0-8.533 3.823-8.533 8.533s3.822 8.533 8.533 8.533z"/></symbol></svg>