<?xml version="1.0" encoding="utf-8"?><svg xmlns="http://www.w3.org/2000/svg" xmlns:xlink="http://www.w3.org/1999/xlink"><symbol viewBox="0 0 294.843 294.843" id="close" xmlns="http://www.w3.org/2000/svg"><path d="M147.421 0C66.133 0 0 66.133 0 147.421s66.133 147.421 147.421 147.421c38.287 0 74.567-14.609 102.159-41.136a6 6 0 1 0-8.316-8.65c-25.345 24.367-58.672 37.786-93.842 37.786C72.75 282.843 12 222.093 12 147.421S72.75 12 147.421 12s135.421 60.75 135.421 135.421c0 16.842-3.052 33.273-9.071 48.835a6 6 0 0 0 11.193 4.329c6.555-16.949 9.879-34.836 9.879-53.165C294.843 66.133 228.71 0 147.421 0z"/><path d="M167.619 160.134a6 6 0 0 0-8.395 8.575l47.236 46.236a5.981 5.981 0 0 0 4.197 1.712 6.001 6.001 0 0 0 4.198-10.288l-47.236-46.235zm-42.441-26.471c1.171 1.171 2.707 1.757 4.243 1.757s3.071-.586 4.243-1.757a6 6 0 0 0 0-8.485L88.428 79.942a6 6 0 0 0-8.485 8.485l45.235 45.236zM214.9 79.942a6 6 0 0 0-8.485 0L79.942 206.415a6 6 0 1 0 8.486 8.485L214.9 88.428a6.001 6.001 0 0 0 0-8.486z"/></symbol><symbol viewBox="0 0 299.997 299.997" id="email" xmlns="http://www.w3.org/2000/svg"><path d="M149.996 0C67.157 0 .001 67.158.001 149.997c0 82.837 67.156 150 149.995 150s150-67.163 150-150C299.996 67.158 232.835 0 149.996 0zm.003 52.686l88.763 55.35H61.236l88.763-55.35zm89.869 143.737h-.009c0 8.878-7.195 16.072-16.072 16.072H76.211c-8.878 0-16.072-7.195-16.072-16.072v-84.865c0-.939.096-1.852.252-2.749l84.808 52.883c.104.065.215.109.322.169.112.062.226.122.34.179a8.903 8.903 0 0 0 1.847.721c.065.018.13.026.195.041a9.148 9.148 0 0 0 2.093.265h.015c.7 0 1.401-.099 2.093-.265.065-.016.13-.023.195-.041a8.99 8.99 0 0 0 1.847-.721 9.19 9.19 0 0 0 .34-.179c.106-.06.218-.104.322-.169l84.808-52.883c.156.897.252 1.808.252 2.749v84.865z"/></symbol><symbol viewBox="0 0 588.601 588.6" id="file--doc" xmlns="http://www.w3.org/2000/svg"><path d="M181.285 256.98c-15.915.274-25.088 15.952-25.088 36.698 0 20.903 9.471 35.807 25.239 36.08 16.158.29 25.537-15.445 25.537-36.713-.006-19.633-9.224-36.344-25.688-36.065zm-113.023 2.241c-4.736.076-7.781.577-9.574 1.062v66.564c1.793.484 4.704.543 7.338.585 19.388.485 32.234-10.99 32.234-35.78.145-21.549-11.572-32.75-29.998-32.431z"/><path d="M359.031 537.78c.781.042 1.551.111 2.342.111h178.2c20.846 0 37.8-16.96 37.8-37.801V86.994c0-20.838-16.954-37.8-37.8-37.8h-178.2c-.786 0-1.561.077-2.342.113V0L11.228 46.417v494.564L359.031 588.6v-50.82zm2.342-466.982h178.2c8.933 0 16.2 7.27 16.2 16.2v413.103c0 8.928-7.268 16.2-16.2 16.2h-178.2c-.796 0-1.571-.127-2.342-.242V383.991h160.145c3.955 0 7.161-3.201 7.161-7.15a7.152 7.152 0 0 0-7.161-7.151H359.031v-43.886h160.145c3.955 0 7.161-3.206 7.161-7.15 0-3.955-3.206-7.15-7.161-7.15H359.031V268.98h160.145c3.955 0 7.161-3.199 7.161-7.151s-3.206-7.148-7.161-7.148H359.031v-42.926h75.252a7.153 7.153 0 0 0 7.151-7.151 7.154 7.154 0 0 0-7.151-7.153h-75.252V71.036c.771-.114 1.54-.238 2.342-.238zM105.464 333.06c-10.223 8.87-25.574 12.762-44.01 12.276-10.887-.295-18.512-1.239-23.67-2.12V244.35c7.604-1.54 17.595-2.544 28.242-2.813 17.961-.472 29.787 2.764 39.15 10.102 10.18 7.868 16.611 20.692 16.611 39.227.001 20.088-6.884 33.841-16.323 42.194zm74.714 16.063c-30.649-.817-48.157-24.928-48.157-54.986 0-31.622 19.322-55.764 49.884-56.576 32.74-.862 51.057 24.113 51.057 54.662 0 36.302-21.679 57.728-52.784 56.9zm128.092-18.162c8.068.137 17.107-1.424 22.465-3.392l4.103 20.53c-5.01 2.277-16.189 4.556-30.586 4.166-39.92-1.055-59.927-25.534-59.927-57.244 0-37.966 27.433-59.827 62.543-60.75 13.9-.367 24.574 2.102 29.415 4.39l-5.548 20.909c-5.526-2.144-13.152-4.076-22.645-3.921-20.975.351-37.009 12.825-37.009 37.9 0 22.573 13.624 37.006 37.189 37.412z"/><path d="M477.394 226.081l6.629-26.935c1.693-6.544 2.806-12.062 3.829-18.183h.163c.675 6.199 1.692 11.639 3.138 18.183l5.959 26.935h11.222l15.367-57.268H513.08l-5.948 25.917c-1.529 6.963-2.89 13.505-3.907 19.796h-.18c-.839-6.204-2.035-12.577-3.476-19.377l-5.695-26.336h-10.958l-6.196 25.917c-1.624 7.219-3.254 14.017-4.171 20.049h-.158c-.938-5.693-2.3-13.004-3.75-19.965l-5.437-25.995h-11.127l14.022 57.267h11.295v-.005z"/></symbol><symbol viewBox="0 0 585.918 585.918" id="file--docx" xmlns="http://www.w3.org/2000/svg"><path d="M62.308 274.521c-3.226.056-5.323.398-6.554.737v46.331c1.231.337 3.237.378 5.042.409 13.263.347 22.05-7.621 22.05-24.87.097-14.996-7.921-22.799-20.538-22.607z"/><path d="M357.396 535.33c.776.047 1.542.109 2.329.109h177.39c20.75 0 37.627-16.883 37.627-37.627V86.597c0-20.743-16.877-37.628-37.627-37.628h-177.39c-.781 0-1.553.077-2.329.113V0L11.176 46.206v492.311l346.22 47.401V535.33zm0-297.377h187.009V365.17H357.396V237.953zm125.954-10.751H357.396v-50.308H483.35v50.308zm53.765 286.747h-177.39c-.792 0-1.563-.127-2.329-.243V375.921H553.24v121.901c0 8.893-7.232 16.127-16.125 16.127zM359.726 70.476h177.39c8.893 0 16.125 7.236 16.125 16.126v140.6h-59.14v-61.059H357.396V70.711c.766-.112 1.533-.235 2.33-.235zM87.786 325.94c-7.003 6.163-17.512 8.861-30.129 8.51-7.455-.199-12.681-.861-16.21-1.479v-68.836c5.207-1.058 12.05-1.746 19.349-1.918 12.284-.31 20.379 1.953 26.783 7.076 6.961 5.489 11.368 14.416 11.368 27.304 0 13.978-4.715 23.545-11.161 29.343zm51.067 11.219c-20.943-.578-32.924-17.365-32.924-38.269 0-22 13.217-38.77 34.113-39.292 22.352-.559 34.864 16.819 34.864 38.059-.001 25.224-14.815 40.105-36.053 39.502zm87.42-12.525c5.499.104 11.664-.981 15.31-2.347l2.8 14.263c-3.415 1.575-11.037 3.149-20.851 2.877-27.223-.767-40.879-17.791-40.879-39.821 0-26.39 18.717-41.544 42.675-42.141 9.47-.236 16.743 1.488 20.044 3.092l-3.79 14.507c-3.759-1.494-8.956-2.848-15.433-2.745-14.311.221-25.227 8.863-25.227 26.289.002 15.68 9.291 25.72 25.351 26.026zm76.172 15.779l-7.98-15.265c-3.251-5.838-5.322-10.164-7.766-14.981h-.265c-1.806 4.761-3.986 9.019-6.664 14.719l-7.129 14.704-21.733-.594 24.4-40.866-23.539-39.999 21.887-.527 7.514 14.858a255.465 255.465 0 0 1 6.554 13.648h.252c2.082-5.293 3.758-9.005 5.961-13.836l7.457-15.341 23.16-.56-25.261 41.289 26.614 43.382-23.462-.631z"/><path d="M139.605 273.097c-10.875.171-17.142 11.061-17.142 25.495 0 14.53 6.478 24.897 17.25 25.103 11.047.21 17.438-10.715 17.438-25.497 0-13.651-6.288-25.279-17.546-25.101zm247.25-19.469a7.168 7.168 0 0 1 7.17 7.165c0 3.955-3.212 7.165-7.17 7.165s-7.16-3.21-7.16-7.165a7.16 7.16 0 0 1 7.16-7.165zm18.164 4.477h109.304v5.375H405.019zm-18.164 21.508a7.168 7.168 0 0 1 7.17 7.165c0 3.955-3.212 7.168-7.17 7.168s-7.16-3.213-7.16-7.168a7.16 7.16 0 0 1 7.16-7.165zm18.164 4.472h109.304v5.375H405.019zm-18.164 23.477c3.958 0 7.17 3.212 7.17 7.165 0 3.958-3.212 7.167-7.17 7.167s-7.16-3.209-7.16-7.167a7.163 7.163 0 0 1 7.16-7.165zm18.164 4.478h109.304v5.375H405.019zm-18.164 21.953a7.169 7.169 0 0 1 7.17 7.165c0 3.958-3.212 7.166-7.17 7.166s-7.16-3.208-7.16-7.166a7.16 7.16 0 0 1 7.16-7.165zm18.164 4.473h109.304v5.375H405.019z"/></symbol><symbol viewBox="0 0 585.918 585.918" id="file--html" xmlns="http://www.w3.org/2000/svg"><path d="M357.4 535.325c.767.052 1.543.114 2.33.114h177.39c20.745 0 37.627-16.883 37.627-37.627V86.597c0-20.743-16.882-37.628-37.627-37.628H359.73c-.782 0-1.563.07-2.33.113V0L11.17 46.206v492.311l346.23 47.401v-50.593zm2.33-464.849h177.39c8.892 0 16.125 7.236 16.125 16.126v411.22c0 8.893-7.233 16.127-16.125 16.127H359.73c-.792 0-1.563-.127-2.33-.243V331.248l24.326 11.308v-18.194L357.4 313.715v-33.598l24.326-10.654v-18.189L357.4 262.577V70.707c.767-.113 1.533-.231 2.33-.231zM92.99 343.238l-15.95-.399V310.85l-25.597-.096v31.443l-15.17-.377v-74.369l15.17-.396v28.869l25.597-.163v-29.383l15.95-.416v77.276zm66.424-63.702l-20.974.339v64.496l-17.029-.431v-63.774l-19.665.333v-14.762l57.673-1.522v15.32h-.005zm79.824 67.377l-1.28-32.474c-.365-10.184-.756-22.5-.756-34.816l-.388.011c-2.667 10.826-6.203 22.88-9.494 32.748l-10.244 32.6-14.66-.348-8.745-32.143c-2.636-9.663-5.396-21.359-7.315-32.063l-.244.005c-.473 11.087-.836 23.748-1.438 33.964l-1.42 31.108-16.633-.415 5.042-81.204 24.19-.632 8.031 27.488c2.564 9.597 5.145 19.959 6.995 29.733l.365.005c2.354-9.643 5.208-20.679 7.94-30l9.018-28.087 25.46-.671 4.811 85.672-19.235-.481zm92.64 2.315l-57.951-1.449V261.19l20.609-.542v70.989l37.342.579v17.012z"/><path d="M448.478 225.013h-17.323L394.44 349.411h17.323zm92.315 64.001l-82.352-37.746v18.184l63.664 27.286v.348l-63.664 27.27v18.189l82.352-37.743z"/></symbol><symbol viewBox="0 0 588.6 588.6" id="file--jpg" xmlns="http://www.w3.org/2000/svg"><path d="M155.629 270.005c-5.071.092-8.511.659-10.304 1.197v33.813c2.112.517 4.714.675 8.332.664 13.365-.011 21.687-7.088 21.687-18.969-.005-10.68-7.166-16.921-19.715-16.705z"/><path d="M359.036 537.78c.771.042 1.551.111 2.342.111h178.2c20.84 0 37.8-16.96 37.8-37.801V86.994c0-20.838-16.96-37.8-37.8-37.8h-178.2c-.786 0-1.571.077-2.342.113V0L11.222 46.417v494.564L359.036 588.6v-50.82zm2.342-466.982h178.2c8.933 0 16.199 7.27 16.199 16.2v332.535c-13.837-35.596-30.797-83.547-56.389-77.003-30.575 7.815-45.837 79.229-45.837 79.229h102.236v78.342c0 8.934-7.271 16.2-16.2 16.2H361.389c-.802 0-1.572-.121-2.347-.232v-94.32h94.505s-15.641-80.584-58.788-123.757c-12.329-12.332-24.554-7.483-35.723 5.706V199.76c4.73 7.549 13.062 12.604 22.645 12.604 14.776 0 26.747-11.965 26.747-26.744 0-14.781-11.971-26.736-26.747-26.736-9.582 0-17.914 5.055-22.645 12.599V71.036c.771-.114 1.54-.238 2.342-.238zM100.965 323.583c0 31.973-14.288 42.757-36.893 42.161-5.265-.132-12.161-1.308-16.643-3.037l2.555-19.939c3.132 1.197 7.172 2.072 11.686 2.141 9.682.164 15.789-4.503 15.789-21.811v-69.859l23.512-.606v70.951h-.006zm89.353-9.982c-8.775 8.442-21.642 12.149-36.492 12.039-3.267-.021-6.22-.216-8.5-.564v40.943l-24.311-.622V253.626c7.512-1.54 18.138-2.824 33.296-3.227 15.525-.401 26.736 2.407 34.312 8.456 7.317 5.745 12.248 15.406 12.248 26.892-.006 11.506-3.748 21.262-10.553 27.854zm38.433 39.751c-10.8-10.395-16.698-25.882-16.52-43.211.169-39.208 28.669-62.369 68.473-63.41 16.032-.422 28.54 2.354 34.742 5.112l-6.022 22.407c-6.93-2.816-15.456-5.033-29.099-4.807-23.014.382-40.131 13.423-40.131 39.289 0 24.633 15.49 39.42 38.129 39.799 6.402.105 11.559-.537 13.774-1.582v-25.533l-19.066-.111v-21.379l46.585-.179V364.8c-8.875 2.716-25.463 6.297-41.839 5.88-22.258-.59-38.108-6.496-49.026-17.328z"/><path d="M472.004 276.734c5.4 0 10.452-.556 14.945-1.466 5.236 2.247 11.591 3.591 18.515 3.591 17.671 0 32.01-8.654 32.01-19.309 0-10.676-14.328-19.322-32.01-19.322-6.645 0-12.793 1.215-17.919 3.298-2.089-2.02-4.91-3.298-8.042-3.298h-4.641c-5.928 0-10.632 4.503-11.307 10.249-14.364 1.497-24.975 6.671-24.975 12.88-.01 7.387 14.956 13.377 33.424 13.377z"/></symbol><symbol viewBox="0 0 588.6 588.6" id="file--pdf" xmlns="http://www.w3.org/2000/svg"><path d="M162.643 247.503c-5.719.084-9.384.654-11.549 1.213v75.774c2.16.554 5.674.617 8.849.68 23.382.623 38.908-12.413 38.908-40.666.168-24.571-13.965-37.34-36.208-37.001z"/><path d="M359.036 537.78c.771.042 1.551.111 2.342.111h178.2c20.84 0 37.8-16.96 37.8-37.801V86.994c0-20.838-16.96-37.8-37.8-37.8h-178.2c-.786 0-1.571.077-2.342.113V0L11.222 46.417v494.564L359.036 588.6v-50.82zm180.542-21.479h-178.2c-.797 0-1.571-.127-2.342-.242v-162.08c37.131-6.417 88.694-11.274 133.292-.796l5.278 10.235c21.289 40.253 44.028 39.989 52.813 38.006 2.015-.453 3.101-.959 3.101-.959l1.182-.628c.4-.253.712-.575 1.075-.849V500.1c0 8.929-7.266 16.201-16.199 16.201zM374.15 334.768c27.906-34.034 50.456-65.807 64.979-87.325l.053.119.158-.243c11.401 24.036 30.196 61.214 43.137 86.59l-.042-.011.443.85c-36.798-6.286-76.312-3.992-108.812.501l.475-.554-.391.073zm65.644-158.81c1.118-1.972 2.753-2.494 5.685-2.365.053.005 5.875.387 8.047 4.375 1.318 2.375 3.228 9.908-7.045 28.278h-.011s-1.329 2.21-3.828 6.199c-5.759-20.223-5.379-32.032-2.848-36.487zm74.313 183.854c10.557 4.061 20.039 9.065 28.339 14.981 2.384 3.386 4.588 8.259 4.188 10.558a1.009 1.009 0 0 1-.105.332c-3.408.628-16.961 1.05-32.422-25.871zM361.378 70.798h178.2c8.933 0 16.199 7.27 16.199 16.2v278.614a35.344 35.344 0 0 0-1.202-1.64l-.686-.887-.896-.664c-13.827-10.094-30.491-17.872-49.581-23.129-13.61-26.578-41.797-81.974-53.646-107.916 6.861-10.568 10.547-16.728 10.716-17.01 10.689-19.056 13.025-33.932 7.114-44.426-5.358-9.498-16.031-12.351-21.484-12.532-8.817-.401-16.337 3.37-20.419 10.552-6.223 10.966-4.936 30.175 3.86 57.056.391 1.242 1.018 2.834 1.846 4.838-14.091 21.312-39.656 58.174-72.367 97.767V71.036c.775-.114 1.544-.238 2.346-.238zM100.311 290.957c-8.224 8.158-20.313 11.718-34.267 11.591-3.069-.031-5.843-.221-7.986-.569v39.698l-22.842-.633V232.659c7.056-1.469 17.041-2.689 31.292-3.035 14.562-.356 25.109 2.402 32.221 8.277 6.858 5.579 11.485 14.958 11.485 26.087 0 11.14-3.52 20.585-9.903 26.969zm107.238 40.758c-12.337 10.066-30.881 14.454-53.135 13.832-13.11-.375-22.307-1.477-28.506-2.5V230.563c9.152-1.743 21.188-2.888 34.035-3.201 21.676-.53 35.955 3.159 47.271 11.538 12.287 8.98 20.084 23.599 20.084 44.745 0 22.921-8.321 38.588-19.749 48.07zm37.7-105.521l76.842-1.835v23.106l-48.877.709v27.891l45.628-.113v22.884l-45.628-.316v49.096l-27.973-.771v-120.65h.008z"/><path d="M67.745 248.622c-4.77.074-7.992.614-9.683 1.139v32.777c1.98.498 4.438.665 7.834.665 12.551.01 20.363-6.837 20.363-18.344.001-10.353-6.725-16.427-18.514-16.237z"/></symbol><symbol viewBox="0 0 585.918 585.918" id="file--png" xmlns="http://www.w3.org/2000/svg"><path d="M60.431 245.144c-4.607.092-7.73.617-9.342 1.145v32.14c1.909.478 4.284.635 7.546.63 12.126-.016 19.664-6.735 19.664-18.024 0-10.145-6.477-16.079-17.868-15.891z"/><path d="M357.4 535.33c.767.042 1.543.109 2.33.109h177.39c20.745 0 37.627-16.883 37.627-37.627V86.597c0-20.743-16.882-37.628-37.627-37.628H359.73c-.782 0-1.563.077-2.33.113V0L11.17 46.206v492.311l346.23 47.401V535.33zm195.845-246.91h-39.234v-42.408h39.234v42.408zm-38.918 42.408h38.918v42.405h-38.918v-42.405zM359.73 70.476h177.39c8.892 0 16.125 7.236 16.125 16.126v118.027h-35.202c-1.606 0-3.107-.375-4.472-1.01v42.394h-41.966v42.408h41.966v42.408h-41.66v42.405h41.975v42.404h39.359v82.185c0 8.893-7.233 16.127-16.125 16.127H359.73c-.792 0-1.563-.121-2.33-.232v-98.079h29.522v-42.41H357.4v-42.404h29.218V288.42H357.4v-42.408h29.218v-42.409H357.4V70.711c.767-.112 1.533-.235 2.33-.235zM91.882 286.583c-7.95 8.019-19.62 11.536-33.079 11.436-2.984-.021-5.662-.199-7.719-.54v38.93l-22.077-.561V229.556c6.827-1.451 16.471-2.667 30.224-3.028 14.089-.37 24.255 2.318 31.108 8.07 6.621 5.465 11.094 14.636 11.094 25.549.006 10.906-3.396 20.179-9.551 26.436zm115.952 53.841l-26.929-.693-23.706-44.703c-6.5-12.213-13.593-26.882-18.912-40.127l-.473.165c.641 14.961.969 30.942.969 49.442v34.147l-22.205-.571V225.855l28.305-.735 22.783 41.501c6.606 12.095 13.239 26.483 18.239 39.561l.504.004c-1.672-15.296-2.171-30.923-2.171-48.266v-33.816l23.601-.614v116.933h-.005zm124.936-2.473c-8.861 2.709-25.513 6.284-41.9 5.854-22.308-.577-38.192-6.477-49.116-17.303-10.834-10.372-16.733-25.848-16.557-43.139.167-39.166 28.727-62.29 68.602-63.339 16.073-.418 28.598 2.344 34.825 5.112l-6.038 22.374c-6.938-2.801-15.506-5.032-29.151-4.801-23.067.386-40.209 13.418-40.209 39.245 0 24.602 15.518 39.362 38.192 39.741 6.412.115 11.588-.524 13.813-1.57v-25.507l-19.12-.104v-21.352l46.658-.178v64.967z"/><path d="M513.527 203.609l.044.016v-.016zm-84.64 127.219h-41.65v42.4h41.965v42.41h42.403v-42.41h-41.962v-42.4h41.659V288.42h-41.964v-42.407h41.964v-42.404h-41.964v-42.408h-42.415v42.408h41.964v42.404h-41.964v42.407h41.964zm42.718-169.627v42.408h41.922l-.041-42.408z"/></symbol><symbol viewBox="0 0 588.601 588.6" id="file--rar" xmlns="http://www.w3.org/2000/svg"><path d="M359.031 537.78c.781.042 1.551.111 2.342.111h178.2c20.846 0 37.8-16.96 37.8-37.801V86.994c0-20.838-16.954-37.8-37.8-37.8h-178.2c-.786 0-1.561.077-2.342.113V0L11.228 46.417v494.564L359.031 588.6v-50.82zm2.342-466.982h178.2c8.933 0 16.2 7.27 16.2 16.2v413.103c0 8.928-7.268 16.2-16.2 16.2h-178.2c-.796 0-1.571-.127-2.342-.242V368.761h104.583v-20.414h81.802v-27.743H499.7V309.62h18.052v-8.137H499.7v-9.461h18.052v-8.14H499.7v-9.244h18.052v-8.132H499.7v-7.14h45.716v-27.744h-81.802v27.744h27.665v61.238h-27.665v26.515H359.031v-9.893h83.542v-94.458h-83.542v-11.14h104.583v-21.666H359.031V71.036c.771-.114 1.54-.238 2.342-.238zM89.119 360.75c-1.708-3.201-4.187-12.393-7.291-26.214-2.776-13.938-7.235-17.782-16.73-18.024l-6.982-.053v43.41l-22.594-.633V251.451c7.27-1.469 18.214-2.705 30.489-3.003 15.348-.356 26.211 1.88 33.739 8.058 6.296 5.242 9.795 13.057 9.795 23.461 0 14.428-9.637 24.3-18.71 27.781v.495c7.349 3.201 11.42 10.748 14.12 21.152 3.322 12.788 6.655 27.627 8.711 32.057l-24.547-.702zm106.32 3.001l-8.883-30.291-32.326-.485-7.889 29.395-25.626-.733 33.515-114.415 33.519-.783 36.12 118.104-28.43-.792zm108.907 3.064c-2.066-3.527-5.062-13.632-8.796-28.814-3.354-15.318-8.754-19.532-20.166-19.807l-8.417-.074v47.636l-27.179-.771V246.833c8.754-1.626 21.919-3.003 36.682-3.354 18.513-.438 31.641 1.993 40.722 8.77 7.636 5.74 11.833 14.341 11.833 25.774 0 15.87-11.633 26.729-22.617 30.541v.554c8.886 3.522 13.832 11.817 17.075 23.267 3.992 14.069 8.031 30.396 10.536 35.269l-29.673-.839z"/><path d="M170.032 266.506h-.33c-1.69 6.916-3.354 15.712-5.189 22.431l-6.642 24.542 24.954.158-7.08-24.753c-2.019-6.897-4.034-15.499-5.713-22.378zm109.571-2.678c-6.805.103-10.624.696-12.635 1.083v33.439l10.977-.006c14.051-.01 22.468-6.939 22.468-17.697-.001-11.296-7.851-16.83-20.81-16.819zm-210.99 3.169c-5.632.087-8.828.628-10.492.979v30.47h9.121c11.654-.011 18.626-6.317 18.626-16.1 0-10.3-6.508-15.344-17.255-15.349z"/></symbol><symbol viewBox="0 0 585.918 585.918" id="file--rtf" xmlns="http://www.w3.org/2000/svg"><path d="M574.742 86.602c0-20.743-16.871-37.628-37.627-37.628h-177.39c-.781 0-1.553.076-2.329.123V0L11.176 46.206v492.311l346.22 47.401v-50.583c.776.053 1.542.115 2.329.115h177.39c20.756 0 37.627-16.888 37.627-37.628V86.602zm-90.3 114.749v171.194H357.396V360.34h119.99v-10.75h-119.99v-16.692h50.227v-10.751h-50.227V306.02h50.227v-10.751h-50.227v-15.223h121.449v-10.751H357.396v-25.893l8.598-17.097h21.975l2.546 20.092h8.026l-8.777-63.603h-9.244l-23.123 44.66v-57.35h98.436v31.247h28.609zm-20.714-7.897V175.69l17.765 17.764h-17.765zm53.69 174.372v-10.751h-25.081v-24.19h25.081v-10.749h-25.081v-26.321h25.081v-10.748h-25.081V219.1h6.908v31.247h28.61v171.196H384.477v-41.108h107.86v-12.604h25.081v-.005zM507.14 242.451v-17.766l17.766 17.766H507.14zm-138.328-22.393l9.528-18.486c1.896-3.876 3.495-7.833 5.186-11.611h.189c.283 3.779.761 8.401 1.135 11.708l2.457 18.394h-18.495v-.005zM91.92 364.78c-1.864-3.579-4.575-13.821-7.951-29.166-3.021-15.452-7.874-19.773-18.142-20.183l-7.53-.173v47.706l-24.194-1.312V243.848c7.766-1.622 19.48-3 32.709-3.338 16.664-.436 28.538 2.01 36.784 8.853 6.945 5.821 10.788 14.524 10.788 26.103 0 16.045-10.622 26.921-20.572 30.648v.556c8.052 3.654 12.551 12.097 15.499 23.707 3.669 14.278 7.347 30.894 9.628 35.874L91.92 364.78zm130.476-101.833l-36.019.381v106.585l-28.785-1.563V263.625l-32.801.349v-24.055l97.605-2.515v25.543zm104.78-1.753l-56.621.612v31.61l52.798.393v26.216l-52.798-1.155v55.607l-31.772-1.716V236.984l88.393-2.273v26.483zM553.24 497.822c0 8.888-7.232 16.127-16.125 16.127h-177.39c-.792 0-1.563-.116-2.329-.232V380.424h19.181v48.999h159.168V242.139l-30.919-30.929h-12.489v-18.068l-30.919-30.93H357.396V70.717c.766-.113 1.532-.241 2.329-.241h177.39c8.893 0 16.125 7.236 16.125 16.126v411.22z"/><path d="M69.612 260.938c-6.079.076-9.52.656-11.315 1.037v33.483l9.842.094c12.638.127 20.229-6.771 20.229-17.601-.005-11.391-7.092-16.988-18.756-17.013zm339.806-45.408h69.428v10.751h-69.428zm0 27.318h69.428v10.75h-69.428zM393.69 391.91h123.728v10.751H393.69zm57.712-61.282l-2.174-6.938c-18.142-48.883-30.299 5.596-30.299 5.596l-.799 3.358h56.568c-15.222-29.785-23.296-2.016-23.296-2.016z"/></symbol><symbol viewBox="0 0 585.918 585.918" id="file--xls" xmlns="http://www.w3.org/2000/svg"><path d="M11.176 46.207v492.31l346.22 47.401v-50.583c.776.053 1.542.115 2.329.115h177.39c20.745 0 37.627-16.888 37.627-37.628V86.602c0-20.743-16.882-37.628-37.627-37.628h-177.39c-.787 0-1.553.076-2.329.123V0L11.176 46.207zm346.22 308.915H435.9v34.939h-78.504v-34.939zm0-45.69V274.49H435.9v34.942h-78.504zm-256.781 41.37l-9.659-21.345c-3.913-8.151-6.406-14.161-9.352-20.855l-.317-.006c-2.161 6.578-4.78 12.437-7.988 20.279l-8.504 20.168-25.69-1.254 28.866-55.881-27.856-54.79 25.882-1.063 8.979 20.411c3.068 6.858 5.386 12.427 7.863 18.839h.305c2.496-7.347 4.522-12.501 7.184-19.22l9.014-21.399 28.302-1.173-30.845 57.819 32.517 60.872-28.701-1.402zm118.222 5.785l-75.733-3.7V232.875l26.564-1.098v99.156l49.164 1.565v24.089h.005zm50.195 4.404c-15.527-.787-30.541-5.35-37.927-9.691l6.013-23.747c8.047 4.241 20.588 8.692 33.753 9.134 14.455.483 22.205-4.998 22.205-13.717 0-8.325-6.708-13.182-23.431-19.082-22.501-7.736-36.812-19.602-36.812-38.231 0-21.85 18.869-39.386 51.245-40.772 15.981-.682 27.992 2.016 36.687 5.294l-7.398 24.985c-5.825-2.473-16.067-6.008-29.918-5.654-13.594.354-20.098 6.355-20.098 13.142 0 8.349 7.73 11.972 25.735 18.325 25.368 8.73 37.609 21.306 37.609 40.55.002 22.913-18.926 41.417-57.663 39.464zm90.694-290.515h177.39c8.893 0 16.125 7.236 16.125 16.126v411.22c0 8.893-7.232 16.127-16.125 16.127h-177.39c-.797 0-1.563-.116-2.329-.232V395.438h173.024v-166.64H357.396V70.72c.766-.116 1.533-.244 2.33-.244zm165.32 204.013v34.942h-83.765v-34.942h83.765zm-83.765-5.376v-34.94h83.765v34.94h-83.765zm83.765 86.009v34.939h-83.765v-34.939h83.765z"/></symbol><symbol viewBox="0 0 588.601 588.6" id="file--xlsx" xmlns="http://www.w3.org/2000/svg"><path d="M359.031 537.786c.781.053 1.551.115 2.342.115h178.2c20.841 0 37.8-16.964 37.8-37.8V86.999c0-20.838-16.959-37.8-37.8-37.8h-178.2c-.791 0-1.561.076-2.342.124V0L11.228 46.417v494.564L359.031 588.6v-50.814zm2.342-466.982h178.2c8.933 0 16.2 7.269 16.2 16.2v413.097c0 8.934-7.268 16.2-16.2 16.2h-178.2c-.802 0-1.571-.11-2.342-.232v-118.82H538.76V229.851H359.031V71.046c.771-.118 1.54-.242 2.342-.242zm82.445 285.945v35.1h-84.154v-35.1h84.154zm-84.154-45.901V275.75h84.154v35.098h-84.154zm173.697-35.098v35.098h-84.144V275.75h84.144zm-84.143-5.399V235.25h84.144v35.101h-84.144zm84.143 86.398v35.1h-84.144v-35.1h84.144zM77.688 339.167l-7.159-16.168c-2.906-6.181-4.77-10.758-6.961-15.853l-.232-.005c-1.616 5.01-3.57 9.486-5.967 15.467l-6.373 15.436-19.375-.817 21.756-42.837-20.994-42.124 19.514-.545 6.719 15.66c2.294 5.255 4.023 9.5 5.875 14.401h.221c1.859-5.576 3.365-9.481 5.342-14.573l6.684-16.179 20.849-.577-22.734 43.563 23.955 46.032-21.12-.881zm85.596 3.607l-54.388-2.289v-90.337l19.251-.54v74.271l35.137 1.019v17.876zm35.208 2.91c-10.832-.464-21.347-3.744-26.552-6.908l4.24-17.598c5.647 3.117 14.423 6.355 23.588 6.64 10.017.301 15.356-3.739 15.356-10.136 0-6.085-4.628-9.635-16.206-13.975-15.709-5.732-25.758-14.528-25.758-28.326 0-16.176 13.242-28.938 35.754-29.592 11.017-.316 19.256 1.788 25.187 4.271l-5.05 18.151c-3.986-1.849-11.021-4.522-20.574-4.369-9.424.145-13.948 4.509-13.948 9.514 0 6.141 5.374 8.846 17.843 13.587 17.418 6.46 25.769 15.636 25.769 29.646.01 16.661-12.917 30.25-39.649 29.095zm111.819 3.28l-10.035-19.195c-4.063-7.33-6.661-12.751-9.73-18.789h-.322c-2.251 5.911-4.986 11.185-8.34 18.246l-8.864 18.156-26.892-1.128 30.201-50.352-29.138-49.599 27.092-.752 9.368 18.457a312.664 312.664 0 0 1 8.192 17.004h.324c2.587-6.597 4.693-11.219 7.465-17.247l9.354-19.175 29.331-.817-31.957 51.706 33.677 54.729-29.726-1.244z"/></symbol><symbol viewBox="0 0 487.803 487.803" id="glasses" xmlns="http://www.w3.org/2000/svg"><path d="M480.6 296.133L416 91.033c-9.1-29.9-40.9-46.8-70.8-37.7-7.1 2.2-11.2 9.7-9 16.8s9.7 11.2 16.8 9c15.7-4.8 32.3 4.1 37.1 19.8v.1l46.2 146.9c-14.7-8.3-31.6-13-49.6-13-51.8 0-94.6 39.2-100.4 89.4h-85c-6.6-49.4-49-87.6-100.2-87.6-18.1 0-35.1 4.8-49.8 13.1l46.8-148.8v-.1c4.8-15.7 21.4-24.6 37.1-19.8 7.1 2.2 14.7-1.9 16.8-9 2.2-7.1-1.9-14.7-9-16.8-29.9-9.1-61.6 7.8-70.8 37.7l-64.4 205.3c-.2.6-.3 1.1-.4 1.7-4.7 11.7-7.4 24.5-7.4 37.8 0 55.7 45.4 101.1 101.1 101.1 51.2 0 93.6-38.2 100.2-87.6h85.5c7.4 48.5 49.4 85.8 99.9 85.8 55.7 0 101.1-45.4 101.1-101.1.1-13.4-2.5-26.2-7.2-37.9zm-379.4 113.8c-40.9 0-74.1-33.2-74.1-74.1s33.2-74.1 74.1-74.1 74.1 33.2 74.1 74.1-33.3 74.1-74.1 74.1zm285.6-1.8c-40.9 0-74.1-33.2-74.1-74.1s33.3-74.1 74.1-74.1 74.1 33.2 74.1 74.1-33.2 74.1-74.1 74.1z"/></symbol><symbol viewBox="0 0 485.213 485.213" id="magnifier-tool" xmlns="http://www.w3.org/2000/svg"><path d="M363.909 181.955C363.909 81.473 282.44 0 181.956 0 81.474 0 .001 81.473.001 181.955s81.473 181.951 181.955 181.951c100.484 0 181.953-81.469 181.953-181.951zM181.956 318.416c-75.252 0-136.465-61.208-136.465-136.46 0-75.252 61.213-136.465 136.465-136.465 75.25 0 136.468 61.213 136.468 136.465 0 75.252-61.218 136.46-136.468 136.46zm289.926 89.151L360.567 296.243a214.267 214.267 0 0 1-64.331 64.321L407.56 471.888c17.772 17.768 46.587 17.768 64.321 0 17.773-17.739 17.773-46.554.001-64.321z"/></symbol><symbol viewBox="0 0 64 64" id="menu--geo" xmlns="http://www.w3.org/2000/svg"><path d="M32 25a2 2 0 1 0 .001 4.001A2 2 0 0 0 32 25zm0-7c-4.971 0-9 4.029-9 9s5.546 21 9 21 9-16.029 9-21-4.029-9-9-9zm0 13a4 4 0 1 1 0-8 4 4 0 0 1 0 8zm0-31C14.327 0 0 14.327 0 32s14.327 32 32 32 32-14.327 32-32S49.673 0 32 0zm0 50c-3.678 0-11-16.925-11-23s4.925-11 11-11 11 4.925 11 11-7.32 23-11 23z"/></symbol><symbol viewBox="0 0 491.398 491.398" id="menu--homepage" xmlns="http://www.w3.org/2000/svg"><path d="M481.765 220.422L276.474 15.123c-16.967-16.918-44.557-16.942-61.559.023L9.626 220.422c-12.835 12.833-12.835 33.65 0 46.483 12.843 12.842 33.646 12.842 46.487 0l27.828-27.832v214.872c0 19.343 15.682 35.024 35.027 35.024h74.826v-97.62c0-7.584 6.146-13.741 13.743-13.741h76.352c7.59 0 13.739 6.157 13.739 13.741v97.621h74.813c19.346 0 35.027-15.681 35.027-35.024V239.091l27.812 27.815a32.774 32.774 0 0 0 23.243 9.63c8.408 0 16.819-3.209 23.242-9.63 12.844-12.834 12.844-33.65 0-46.484z"/></symbol><symbol viewBox="0 0 129 129" id="menu--right-chevron" xmlns="http://www.w3.org/2000/svg"><path d="M40.4 121.3c-.8.8-1.8 1.2-2.9 1.2s-2.1-.4-2.9-1.2c-1.6-1.6-1.6-4.2 0-5.8l51-51-51-51c-1.6-1.6-1.6-4.2 0-5.8 1.6-1.6 4.2-1.6 5.8 0l53.9 53.9c1.6 1.6 1.6 4.2 0 5.8l-53.9 53.9z"/></symbol><symbol viewBox="0 0 612 612" id="phone-book" xmlns="http://www.w3.org/2000/svg"><path d="M503.676 349.452c0-5.712-2.244-9.792-6.729-12.24l-66.708-31.824c7.752-4.896 13.974-11.832 18.666-20.808 4.689-8.976 7.038-19.176 7.038-30.6 0-15.912-4.794-29.58-14.385-41.004-9.588-11.424-21.315-17.136-35.188-17.136-4.896 0-9.486.816-13.771 2.448-4.281 1.632-8.262 3.672-11.934 6.12 4.488 12.24 6.732 24.684 6.732 37.332 0 19.992-5.307 38.148-15.912 54.468 2.04 2.04 3.978 3.876 5.812 5.508a38.76 38.76 0 0 0 5.814 4.284l43.452 20.196c6.117 3.264 11.016 7.854 14.688 13.77s5.508 12.546 5.508 19.893v56.303h45.9c3.264 0 5.916-1.326 7.956-3.979 2.04-2.649 3.06-5.812 3.06-9.483l.001-53.248zm-77.724 10.404c0-7.347-2.856-12.24-8.568-14.688l-58.14-28.152-24.48-11.625c5.307-3.264 10.101-7.446 14.385-12.546 4.281-5.1 7.854-10.914 10.71-17.442 2.039-4.896 3.771-10.2 5.199-15.912 1.431-5.712 2.145-11.628 2.145-17.748 0-3.264-.204-6.426-.612-9.486s-1.02-6.222-1.836-9.486c-3.672-15.504-10.914-28.152-21.726-37.944-10.813-9.792-23.358-14.688-37.638-14.688s-26.724 4.794-37.332 14.382-17.748 21.726-21.42 36.414c-2.04 7.344-3.06 14.28-3.06 20.808 0 12.24 2.652 24.072 7.956 35.496 6.12 12.24 14.484 21.828 25.092 28.764l-23.256 11.016-59.976 27.54c-6.12 2.856-9.18 7.956-9.18 15.302v66.095c0 4.488 1.326 8.262 3.978 11.322s6.018 4.59 10.098 4.59h214.2c3.672 0 6.834-1.53 9.483-4.59 2.652-3.063 3.979-6.834 3.979-11.322v-9.792l-.001-56.308zm-261.936 0c0-7.347 1.836-13.977 5.508-19.893s8.568-10.506 14.688-13.77l45.288-20.809c4.08-2.448 7.344-5.304 9.792-8.568-5.304-7.752-9.384-16.32-12.24-25.704s-4.284-19.176-4.284-29.376c0-6.936.714-13.566 2.142-19.89s3.162-12.342 5.202-18.054c-7.344-5.304-15.504-7.956-24.48-7.956-13.872 0-25.602 5.712-35.19 17.136-9.588 11.424-14.382 25.092-14.382 41.004 0 11.424 2.448 21.726 7.344 30.906s11.424 16.218 19.584 21.114l-67.932 31.212c-4.488 2.04-6.732 6.12-6.732 12.24v53.244c0 3.672 1.02 6.834 3.06 9.483 2.04 2.652 4.692 3.979 7.956 3.979h44.676v-56.298zM306 0c42.024 0 81.702 8.058 119.034 24.174s69.768 37.944 97.308 65.484 49.368 59.976 65.484 97.308S612 263.976 612 306c0 28.152-3.672 55.284-11.016 81.396-7.347 26.109-17.646 50.487-30.906 73.134a305.087 305.087 0 0 1-47.736 61.812 304.924 304.924 0 0 1-61.812 47.736c-22.646 13.26-47.022 23.562-73.136 30.906C361.284 608.328 334.152 612 306 612s-55.284-3.672-81.396-11.016c-26.112-7.347-50.49-17.646-73.134-30.906s-43.248-29.172-61.812-47.736a305.032 305.032 0 0 1-47.736-61.812c-13.26-22.646-23.562-47.022-30.906-73.135C3.672 361.284 0 334.152 0 306s3.672-55.284 11.016-81.396 17.646-50.49 30.906-73.134 29.172-43.248 47.736-61.812 39.168-34.476 61.812-47.736 47.022-23.562 73.134-30.906S277.848 0 306 0z"/></symbol><symbol viewBox="0 0 485.213 485.212" id="phone-symbol" xmlns="http://www.w3.org/2000/svg"><path d="M242.607 0C108.629 0 .001 108.628.001 242.606c0 133.976 108.628 242.606 242.606 242.606s242.604-108.631 242.604-242.606C485.212 108.628 376.585 0 242.607 0zm128.112 353.989l-19.425 19.429c-3.468 3.463-13.623 5.624-13.949 5.624-61.452.536-120.621-23.602-164.095-67.08-43.593-43.618-67.759-102.998-67.11-164.657 0-.028 2.224-9.892 5.689-13.324l19.424-19.427c7.108-7.141 20.762-10.368 30.327-7.168l4.086 1.363c9.537 3.197 19.55 13.742 22.185 23.457l9.771 35.862c2.635 9.743-.919 23.604-8.025 30.712l-12.97 12.972c12.734 47.142 49.723 84.138 96.873 96.903l12.965-12.975c7.141-7.141 20.997-10.692 30.719-8.061l35.857 9.806c9.717 2.67 20.26 12.62 23.456 22.154l1.363 4.145c3.168 9.538-.034 23.189-7.141 30.265z"/></symbol><symbol viewBox="0 0 401.475 401.475" id="quick--adress" xmlns="http://www.w3.org/2000/svg"><path d="M209.296 127.782a9 9 0 0 1 9-9h2.148c4.971 0 9 4.029 9 9s-4.029 9-9 9h-2.148a9 9 0 0 1-9-9zm144.241 267.156a8.997 8.997 0 0 1-1.452 2.929 8.937 8.937 0 0 1-2.807 2.461 8.927 8.927 0 0 1-3.623 1.114c-.261.022-256.804.033-256.804.033-22.748 0-41.255-18.507-41.255-41.256V39.064C47.596 17.524 65.12 0 86.661 0h228.15c10.398-.001 20.198 4.07 27.595 11.466 7.397 7.396 11.472 17.197 11.472 27.599v288.741c.005.317-.006.634-.034.948a8.922 8.922 0 0 1-1.1 3.586 8.947 8.947 0 0 1-3.241 3.346c-7.747 4.856-12.556 14.243-12.556 24.533s4.808 19.677 12.556 24.533c.261.157.513.326.756.508h.001l.004.004a8.92 8.92 0 0 1 2.483 2.84 8.946 8.946 0 0 1 1.096 3.573 8.988 8.988 0 0 1-.306 3.261zM84.855 360.219a9 9 0 0 1 9-9h225.904a48.745 48.745 0 0 1 4.956-14.255H88.851c-12.823 0-23.255 10.432-23.255 23.255s10.432 23.256 23.255 23.256h235.864a48.78 48.78 0 0 1-4.956-14.256H93.855a9 9 0 0 1-9-9zM335.878 39.064c0-5.593-2.201-10.873-6.198-14.869s-9.275-6.196-14.865-6.195l-18.179.003L86.661 18c-11.615 0-21.065 9.449-21.065 21.064v287.095a41.02 41.02 0 0 1 23.255-7.195h247.026v-279.9zm-66.22 162.479c-4.71-1.596-9.816.938-11.406 5.646a9 9 0 0 0 5.646 11.406c4.889 1.651 8.173 6.207 8.173 11.335 0 6.593-5.362 11.956-11.954 11.956h-81.489c-6.592 0-11.955-5.363-11.955-11.956 0-5.129 3.285-9.684 8.174-11.336a9 9 0 0 0-5.761-17.053c-12.209 4.125-20.413 15.533-20.413 28.389 0 16.518 13.438 29.956 29.955 29.956h81.489c16.517 0 29.954-13.438 29.954-29.956 0-12.855-8.203-24.263-20.413-28.387zM91.032 30.462a9 9 0 0 0-9 9v258.039c0 4.971 4.029 9 9 9s9-4.029 9-9V39.462a9 9 0 0 0-9-9zm103.612 163.921c-16.037-31.517-25.976-53.651-25.976-66.602 0-27.957 22.746-50.702 50.704-50.702s50.703 22.745 50.703 50.702c0 12.951-9.938 35.085-25.974 66.601 0 0-5.735 11.32-6.021 11.922-2.314 4.852-6.622 13.884-18.708 13.884-12.087 0-16.394-9.031-18.707-13.884-.287-.601-6.021-11.921-6.021-11.921zm-7.976-66.602c0 11.236 16.831 44.313 24.018 58.438 0 0 5.882 11.616 6.226 12.337.576 1.208 1.426 2.989 1.939 3.602.215.029.827.029 1.04 0 .515-.612 1.364-2.395 1.941-3.604.343-.72 6.226-12.336 6.226-12.336 7.187-14.124 24.017-47.201 24.017-58.438 0-18.032-14.671-32.702-32.703-32.702-18.033.001-32.704 14.671-32.704 32.703z"/></symbol><symbol viewBox="0 0 512.16 512.16" id="quick--card" xmlns="http://www.w3.org/2000/svg"><path d="M273.067 337.147H409.6c5.12 0 8.533-3.413 8.533-8.533v-76.8c0-5.12-3.413-8.533-8.533-8.533H273.067c-5.12 0-8.533 3.413-8.533 8.533v76.8c-.001 5.119 3.413 8.533 8.533 8.533zm8.533-76.8h119.467v59.733H281.6v-59.733zM42.667 226.213h68.267c5.12 0 8.533-3.413 8.533-8.533s-3.413-8.533-8.533-8.533H42.667c-5.12 0-8.533 3.413-8.533 8.533s3.413 8.533 8.533 8.533zm102.4 0h68.267c5.12 0 8.533-3.413 8.533-8.533s-3.413-8.533-8.533-8.533h-68.267c-5.12 0-8.533 3.413-8.533 8.533s3.413 8.533 8.533 8.533zm-102.4 34.134H153.6c5.12 0 8.533-3.413 8.533-8.533s-3.413-8.533-8.533-8.533H42.667c-5.12 0-8.533 3.413-8.533 8.533s3.413 8.533 8.533 8.533zm170.666-17.067h-25.6c-5.12 0-8.533 3.413-8.533 8.533s3.413 8.533 8.533 8.533h25.6c5.12 0 8.533-3.413 8.533-8.533s-3.413-8.533-8.533-8.533z"/><path d="M504.32 137.467c-5.973-7.68-13.653-11.947-23.04-12.8l-20.48-2.482V81.147c0-18.773-15.36-34.133-34.133-34.133H34.133C15.36 47.013 0 62.373 0 81.147v273.067c0 15.413 10.357 28.518 24.453 32.718-.43 17.262 12.631 32.248 30.161 33.842l394.24 44.373h3.413c17.067 0 32.427-12.8 34.133-29.013l25.6-273.92c.853-8.534-1.707-17.921-7.68-24.747zm-487.253-30.72h426.667v51.2H17.067v-51.2zM34.133 64.08h392.533c9.387 0 17.067 7.68 17.067 17.067v8.533H17.067v-8.533c0-9.387 7.68-17.067 17.066-17.067zM17.067 354.213v-179.2h426.667v179.2c0 9.387-7.68 17.067-17.067 17.067H34.134c-9.387 0-17.067-7.68-17.067-17.067zM494.933 158.8l-25.6 273.92c-.853 9.387-9.387 16.213-18.773 15.36L57.173 403.707c-8.533-.853-14.507-7.68-15.36-15.36h384.853c18.773 0 34.133-15.36 34.133-34.133V138.32l19.627 1.707c4.267 0 8.533 2.56 11.093 5.973 2.561 3.413 4.268 8.533 3.414 12.8z"/></symbol><symbol viewBox="0 0 512 512" id="quick--catalog" xmlns="http://www.w3.org/2000/svg"><path d="M488.59 349V62.333H23.41V349H0v100.667h512V349h-23.41zM53.41 92.334h405.18V349H292.898l-6.087 18.5h-61.622l-6.087-18.5H53.41V92.334zM482 419.667H30V379h167.391l6.087 18.5h105.044l6.087-18.5H482v40.667z"/><path d="M91.666 143v92.667h112V143h-112zm82 62.667h-52V173h52v32.667zM239.67 143h174v30h-174zm0 62.67h174v30h-174zM91 268.33h322.67v30H91z"/></symbol><symbol viewBox="0 0 512 512" id="quick--feedback" xmlns="http://www.w3.org/2000/svg"><circle cx="53.333" cy="74.667" r="10.667"/><circle cx="96" cy="74.667" r="10.667"/><circle cx="138.667" cy="74.667" r="10.667"/><path d="M117.333 234.667H352c5.896 0 10.667-4.771 10.667-10.667s-4.771-10.667-10.667-10.667H117.333c-5.896 0-10.667 4.771-10.667 10.667s4.772 10.667 10.667 10.667zm128 106.666h-128A10.66 10.66 0 0 0 106.666 352a10.66 10.66 0 0 0 10.667 10.667h128A10.66 10.66 0 0 0 256 352a10.66 10.66 0 0 0-10.667-10.667z"/><path d="M471.167 149.333c-.618 0-1.217.155-1.833.184V64c0-23.531-19.146-42.667-42.667-42.667h-384C19.146 21.333 0 40.469 0 64v384c0 23.531 19.146 42.667 42.667 42.667h384c23.521 0 42.667-19.135 42.667-42.667V249.745l30.708-30.703v-.01c7.604-7.604 11.958-18.125 11.958-28.865 0-22.521-18.312-40.834-40.833-40.834zM21.333 64c0-11.76 9.563-21.333 21.333-21.333h384C438.438 42.667 448 52.24 448 64v42.667H21.333V64zM448 448c0 11.76-9.563 21.333-21.333 21.333h-384c-11.771 0-21.333-9.573-21.333-21.333V128H448v28.62c-2.025 1.392-3.962 2.923-5.708 4.672l-116.06 116.042H117.333c-5.896 0-10.667 4.771-10.667 10.667s4.771 10.667 10.667 10.667h191.785l-10.243 51.24c-.708 3.5.396 7.115 2.917 9.635a10.68 10.68 0 0 0 7.542 3.125c.688 0 1.396-.073 2.083-.208l53.313-10.667a10.601 10.601 0 0 0 5.458-2.917l77.812-77.8V448zm-90.604-116.49l-34.458 6.896 6.896-34.5 96.828-96.828 27.587 27.587-96.853 96.845zm127.562-127.552l-15.625 15.625-27.589-27.589 15.63-15.63a19.662 19.662 0 0 1 13.792-5.698c10.75 0 19.5 8.75 19.5 19.5.001 5.126-2.083 10.157-5.708 13.792z"/></symbol><symbol viewBox="0 0 60 60" id="quick--file" xmlns="http://www.w3.org/2000/svg"><path d="M45 25H20a1 1 0 1 0 0 2h25a1 1 0 1 0 0-2zm-25-6h10a1 1 0 1 0 0-2H20a1 1 0 1 0 0 2zm25 14H20a1 1 0 1 0 0 2h25a1 1 0 1 0 0-2zm0 8H20a1 1 0 1 0 0 2h25a1 1 0 1 0 0-2zm0 8H20a1 1 0 1 0 0 2h25a1 1 0 1 0 0-2z"/><path d="M49 14.586V0H6v55h5v5h43V19.586l-5-5zm-9-6.172l9 9L50.586 19H40V8.414zM8 53V2h39v10.586L39.414 5H11v48H8zm5 5V7h25v14h14v37H13z"/></symbol><symbol viewBox="0 0 512 512" id="quick--resume" xmlns="http://www.w3.org/2000/svg"><path d="M414.007 148.75c5.522 0 10-4.477 10-10V30c0-16.542-13.458-30-30-30h-364c-16.542 0-30 13.458-30 30v452c0 16.542 13.458 30 30 30h364c16.542 0 30-13.458 30-30v-73.672c0-5.523-4.478-10-10-10s-10 4.477-10 10V482c0 5.514-4.486 10-10 10h-364c-5.514 0-10-4.486-10-10V30c0-5.514 4.486-10 10-10h364c5.514 0 10 4.486 10 10v108.75c0 5.523 4.478 10 10 10z"/><path d="M212.007 54c-50.729 0-92 41.271-92 92 0 26.317 11.11 50.085 28.882 66.869.333.356.687.693 1.074 1 16.371 14.979 38.158 24.13 62.043 24.13 23.885 0 45.672-9.152 62.043-24.13a9.993 9.993 0 0 0 1.074-1c17.774-16.784 28.884-40.552 28.884-66.869 0-50.729-41.271-92-92-92zm0 164c-16.329 0-31.399-5.472-43.491-14.668 8.789-15.585 25.19-25.332 43.491-25.332s34.702 9.747 43.491 25.332C243.405 212.528 228.336 218 212.007 218zm-16-76v-6.5c0-8.822 7.178-16 16-16s16 7.178 16 16v6.5c0 8.822-7.178 16-16 16s-16-7.178-16-16zm73.94 46.683a69.375 69.375 0 0 0-29.463-24.697c4.71-6.087 7.523-13.712 7.523-21.986v-6.5c0-19.851-16.149-36-36-36s-36 16.149-36 36v6.5c0 8.274 2.813 15.899 7.523 21.986a69.375 69.375 0 0 0-29.463 24.697c-8.829-11.953-14.06-26.716-14.06-42.683 0-39.701 32.299-72 72-72s72 32.299 72 72c0 15.967-5.231 30.73-14.06 42.683zM266.007 438h-54c-5.522 0-10 4.477-10 10s4.478 10 10 10h54c5.522 0 10-4.477 10-10s-4.478-10-10-10zm0-56h-142c-5.522 0-10 4.477-10 10s4.478 10 10 10h142c5.522 0 10-4.477 10-10s-4.478-10-10-10zm0-56h-142c-5.522 0-10 4.477-10 10s4.478 10 10 10h142c5.522 0 10-4.477 10-10s-4.478-10-10-10zM88.366 272.93a10.077 10.077 0 0 0-7.079-2.93c-2.631 0-5.211 1.07-7.07 2.93-1.86 1.86-2.93 4.44-2.93 7.07s1.069 5.21 2.93 7.07a10.092 10.092 0 0 0 7.07 2.93c2.64 0 5.21-1.07 7.079-2.93 1.86-1.86 2.931-4.44 2.931-7.07s-1.07-5.21-2.931-7.07zm0 56a10.095 10.095 0 0 0-7.079-2.93c-2.631 0-5.2 1.07-7.07 2.93-1.86 1.86-2.93 4.44-2.93 7.07s1.069 5.21 2.93 7.07a10.092 10.092 0 0 0 7.07 2.93c2.64 0 5.21-1.07 7.079-2.93 1.86-1.86 2.931-4.44 2.931-7.07s-1.07-5.21-2.931-7.07zm0 56a10.095 10.095 0 0 0-7.079-2.93c-2.631 0-5.2 1.07-7.07 2.93-1.86 1.86-2.93 4.44-2.93 7.07s1.069 5.21 2.93 7.07a10.072 10.072 0 0 0 7.07 2.93c2.64 0 5.22-1.07 7.079-2.93 1.86-1.86 2.931-4.44 2.931-7.07s-1.07-5.21-2.931-7.07zM266.007 270h-142c-5.522 0-10 4.477-10 10s4.478 10 10 10h142c5.522 0 10-4.477 10-10s-4.478-10-10-10zm224.995-139.68c-9.715-5.609-21.033-7.099-31.871-4.196-10.836 2.904-19.894 9.854-25.502 19.569L307.787 363.656a10.016 10.016 0 0 0-1.278 3.891l-8.858 79.344a10.004 10.004 0 0 0 9.937 11.11 9.99 9.99 0 0 0 5.931-1.948l64.284-47.344a9.983 9.983 0 0 0 2.73-3.052l125.841-217.963c11.58-20.056 4.684-45.794-15.372-57.374zM320.063 426.394l4.626-41.432 28.942 16.71-33.568 24.722zm48.15-39.398l-38.105-22 100.985-174.91 38.105 22-100.985 174.91zm120.841-209.303l-9.857 17.073-38.105-22 9.857-17.073a21.855 21.855 0 0 1 13.358-10.25 21.85 21.85 0 0 1 16.694 2.198 21.855 21.855 0 0 1 10.25 13.358 21.856 21.856 0 0 1-2.197 16.694z"/></symbol><symbol viewBox="0 0 489.091 489.091" id="quick--structure" xmlns="http://www.w3.org/2000/svg"><path d="M122.346 281.291h243.8v40.9h21.4v-51.7c0-5.9-4.8-10.7-10.7-10.7h-121.9v-39h-21.4v39h-121.9c-5.9 0-10.7 4.8-10.7 10.7v50.2h21.4v-39.4zm122-82h86.4c-.5-35.9 1-55.1-22.3-63.6-21.2-8.1-33.8-16.3-33.8-16.3l-16.3 51.5-2.2 7-7.3-20.7c16.8-23.4-1.3-24.5-4.4-24.5h-.2c-3.1 0-21.2 1.1-4.4 24.5l-7.3 20.7-2.2-7-16.3-51.5s-12.7 8.3-33.8 16.3c-23.3 8.5-21.9 27.6-22.3 63.6h86.4z"/><path d="M207.846 86.591c1.9 12.1 11.2 27.5 26.6 32.9 6.3 2.2 13.2 2.2 19.5 0 15.1-5.4 24.8-20.8 26.6-32.9 2-.2 4.7-3 7.6-13.2 3.9-13.9-.2-16-3.8-15.7.7-1.9 1.2-3.8 1.5-5.7 6-36.1-11.8-37.3-11.8-37.3s-2.9-5.7-10.7-9.9c-5.2-3.1-12.4-5.5-22-4.6-3.1.1-6 .7-8.8 1.7-3.5 1.2-6.7 2.9-9.6 4.9-3.6 2.3-6.9 5-9.9 8.2-4.7 4.8-8.9 11-10.7 18.8-1.5 5.8-1.2 11.8.1 18.3.3 1.9.8 3.8 1.5 5.7-3.5-.3-7.7 1.7-3.8 15.7 3 10.1 5.7 12.9 7.7 13.1zm217.3 354.8c-15.9-6.1-25.4-12.3-25.4-12.3l-12.2 38.7-1.7 5.2-5.5-15.5c12.6-17.6-1-18.4-3.3-18.4s-15.9.9-3.3 18.4l-5.5 15.5-1.7-5.2-12.2-38.7s-9.5 6.2-25.4 12.3c-17.5 6.3-16.4 20.7-16.7 47.7h129.7c-.4-27 .7-41.4-16.8-47.7z"/><path d="M374.946 339.691c-2.3.1-4.5.6-6.6 1.3-2.6.9-5 2.2-7.2 3.7-2.7 1.7-5.2 3.8-7.4 6.1-3.5 3.6-6.7 8.3-8 14.1-1.1 4.3-.9 8.9.1 13.8.3 1.4.6 2.9 1.2 4.3-2.7-.3-5.8 1.3-2.8 11.7 2.2 7.6 4.2 9.8 5.7 9.9 1.4 9.1 8.4 20.6 19.9 24.7 4.7 1.7 9.9 1.7 14.6 0 11.3-4.1 18.6-15.6 20-24.7 1.5-.1 3.5-2.3 5.7-9.9 3-10.5-.2-12-2.8-11.7.5-1.4.9-2.9 1.2-4.3 4.5-27.1-8.8-28-8.8-28s-2.2-4.2-8-7.5c-4.2-2.4-9.6-4.2-16.8-3.5zm-214.9 101.7c-15.9-6.1-25.4-12.3-25.4-12.3l-12.2 38.7-1.7 5.2-5.5-15.5c12.6-17.6-1-18.4-3.3-18.4s-15.9.9-3.3 18.4l-5.5 15.5-1.7-5.2-12.2-38.7s-9.5 6.2-25.4 12.3c-17.5 6.3-16.4 20.7-16.7 47.7h129.7c-.4-27 .6-41.4-16.8-47.7z"/><path d="M84.646 404.591c1.4 9.1 8.4 20.6 19.9 24.7 4.7 1.7 9.9 1.7 14.6 0 11.3-4.1 18.6-15.6 20-24.7 1.5-.1 3.5-2.3 5.7-9.9 3-10.5-.2-12-2.8-11.7.5-1.4.9-2.9 1.2-4.3 4.5-27.1-8.8-28-8.8-28s-2.2-4.2-8-7.5c-3.9-2.3-9.3-4.1-16.5-3.5-2.3.1-4.5.6-6.6 1.3-2.6.9-5 2.2-7.2 3.7-2.7 1.7-5.2 3.8-7.4 6.1-3.5 3.6-6.7 8.3-8 14.1-1.1 4.3-.9 8.9.1 13.8.3 1.4.6 2.9 1.2 4.3-2.7-.3-5.8 1.3-2.8 11.7 1.8 7.6 3.9 9.7 5.4 9.9z"/></symbol><symbol viewBox="0 0 60 60" id="quick--time" xmlns="http://www.w3.org/2000/svg"><path d="M30 0C13.458 0 0 13.458 0 30s13.458 30 30 30 30-13.458 30-30S46.542 0 30 0zm0 58C14.561 58 2 45.439 2 30S14.561 2 30 2s28 12.561 28 28-12.561 28-28 28z"/><path d="M30 6a1 1 0 0 0-1 1v23H14a1 1 0 1 0 0 2h16a1 1 0 0 0 1-1V7a1 1 0 0 0-1-1z"/></symbol><symbol viewBox="0 0 286.052 286.052" id="refresh" xmlns="http://www.w3.org/2000/svg"><path d="M78.493 143.181H62.832v-.125c0-43.623 34.809-80.328 79.201-80.122 21.642.098 41.523 8.841 55.691 23.135l25.843-24.931c-20.864-21.043-49.693-34.049-81.534-34.049-63.629 0-115.208 51.955-115.298 116.075h-15.84c-9.708 0-13.677 6.49-8.823 14.437l33.799 33.504c6.704 6.704 10.736 6.91 17.646 0l33.799-33.504c4.854-7.939.876-14.42-8.823-14.42zm205.485-13.945l-33.799-33.433c-6.892-6.892-11.156-6.481-17.637 0l-33.799 33.433c-4.854 7.929-.894 14.419 8.814 14.419h15.635c-.25 43.337-34.943 79.72-79.183 79.514-21.633-.089-41.505-8.814-55.691-23.099l-25.843 24.896c20.873 21.007 49.702 33.996 81.534 33.996 63.432 0 114.869-51.579 115.28-115.298h15.867c9.716-.009 13.676-6.508 8.822-14.428z"/></symbol><symbol viewBox="0 0 512 512" id="sitemap" xmlns="http://www.w3.org/2000/svg"><path d="M110.933 426.667H42.667c-4.71 0-8.533 3.823-8.533 8.533s3.823 8.533 8.533 8.533h68.267c4.71 0 8.533-3.823 8.533-8.533s-3.823-8.533-8.534-8.533zm85.334-290.134h119.467c4.719 0 8.533-3.823 8.533-8.533s-3.814-8.533-8.533-8.533H196.267c-4.71 0-8.533 3.823-8.533 8.533s3.822 8.533 8.533 8.533z"/><path d="M76.8 324.267a8.536 8.536 0 0 0 8.533-8.533v-42.667h162.133v42.667a8.536 8.536 0 0 0 8.533 8.533 8.53 8.53 0 0 0 8.533-8.533v-42.667h162.133v42.667c0 4.71 3.814 8.533 8.533 8.533s8.533-3.823 8.533-8.533v-51.2a8.53 8.53 0 0 0-8.533-8.533H264.533v-59.733a8.53 8.53 0 0 0-8.533-8.533h-93.867c-14.114 0-25.6-11.486-25.6-25.6V42.667c0-14.114 11.486-25.6 25.6-25.6h187.733c14.114 0 25.6 11.486 25.6 25.6v119.467c0 14.114-11.486 25.6-25.6 25.6h-59.733c-4.719 0-8.533 3.823-8.533 8.533s3.814 8.533 8.533 8.533h59.733c23.526 0 42.667-19.14 42.667-42.667V42.667C392.533 19.14 373.393 0 349.867 0H162.133c-23.526 0-42.667 19.14-42.667 42.667v119.467c0 23.526 19.14 42.667 42.667 42.667h85.333V256H76.8a8.536 8.536 0 0 0-8.533 8.533v51.2c0 4.711 3.823 8.534 8.533 8.534z"/><path d="M196.267 85.333h102.4c4.719 0 8.533-3.823 8.533-8.533s-3.814-8.533-8.533-8.533h-102.4c-4.71 0-8.533 3.823-8.533 8.533s3.822 8.533 8.533 8.533zM42.667 409.6H76.8c4.71 0 8.533-3.823 8.533-8.533s-3.823-8.533-8.533-8.533H42.667c-4.71 0-8.533 3.823-8.533 8.533s3.822 8.533 8.533 8.533z"/><path d="M136.533 341.333H17.067C7.654 341.333 0 348.988 0 358.4v136.533C0 504.346 7.654 512 17.067 512h119.467c9.412 0 17.067-7.654 17.067-17.067V358.4c-.001-9.412-7.655-17.067-17.068-17.067zm-119.466 153.6V358.4h119.467l.009 136.533H17.067z"/><path d="M110.933 460.8H42.667c-4.71 0-8.533 3.823-8.533 8.533s3.823 8.533 8.533 8.533h68.267c4.71 0 8.533-3.823 8.533-8.533s-3.823-8.533-8.534-8.533zm358.4 0h-68.267c-4.719 0-8.533 3.823-8.533 8.533s3.814 8.533 8.533 8.533h68.267c4.719 0 8.533-3.823 8.533-8.533s-3.814-8.533-8.533-8.533zm0-34.133h-68.267c-4.719 0-8.533 3.823-8.533 8.533s3.814 8.533 8.533 8.533h68.267c4.719 0 8.533-3.823 8.533-8.533s-3.814-8.533-8.533-8.533z"/><path d="M494.933 341.333H375.467c-9.412 0-17.067 7.654-17.067 17.067v136.533c0 9.412 7.654 17.067 17.067 17.067h119.467c9.412 0 17.067-7.654 17.067-17.067V358.4c-.001-9.412-7.655-17.067-17.068-17.067zm-119.466 153.6V358.4h119.467l.009 136.533H375.467z"/><path d="M401.067 409.6H435.2c4.719 0 8.533-3.823 8.533-8.533s-3.814-8.533-8.533-8.533h-34.133c-4.719 0-8.533 3.823-8.533 8.533s3.814 8.533 8.533 8.533zm-110.934 17.067h-68.267c-4.71 0-8.533 3.823-8.533 8.533s3.823 8.533 8.533 8.533h68.267c4.719 0 8.533-3.823 8.533-8.533s-3.814-8.533-8.533-8.533zm0 34.133h-68.267c-4.71 0-8.533 3.823-8.533 8.533s3.823 8.533 8.533 8.533h68.267c4.719 0 8.533-3.823 8.533-8.533s-3.814-8.533-8.533-8.533z"/><path d="M315.733 341.333H196.267c-9.412 0-17.067 7.654-17.067 17.067v136.533c0 9.412 7.654 17.067 17.067 17.067h119.467c9.412 0 17.067-7.654 17.067-17.067V358.4c-.001-9.412-7.655-17.067-17.068-17.067zm-119.466 153.6V358.4h119.467l.009 136.533H196.267z"/><path d="M221.867 409.6H256c4.719 0 8.533-3.823 8.533-8.533s-3.814-8.533-8.533-8.533h-34.133c-4.71 0-8.533 3.823-8.533 8.533s3.822 8.533 8.533 8.533z"/></symbol><symbol viewBox="0 0 400.004 400.004" id="toLeft" xmlns="http://www.w3.org/2000/svg"><path d="M382.688 182.686H59.116l77.209-77.214c6.764-6.76 6.764-17.726 0-24.485-6.764-6.764-17.73-6.764-24.484 0L5.073 187.757c-6.764 6.76-6.764 17.727 0 24.485l106.768 106.775a17.252 17.252 0 0 0 12.242 5.072c4.43 0 8.861-1.689 12.242-5.072 6.764-6.76 6.764-17.726 0-24.484l-77.209-77.218h323.572c9.562 0 17.316-7.753 17.316-17.315 0-9.562-7.753-17.314-17.316-17.314z"/></symbol><symbol viewBox="0 0 268.832 268.832" id="toRight" xmlns="http://www.w3.org/2000/svg"><path d="M265.171 125.577l-80-80c-4.881-4.881-12.797-4.881-17.678 0-4.882 4.882-4.882 12.796 0 17.678l58.661 58.661H12.5c-6.903 0-12.5 5.597-12.5 12.5 0 6.902 5.597 12.5 12.5 12.5h213.654l-58.659 58.661c-4.882 4.882-4.882 12.796 0 17.678 2.44 2.439 5.64 3.661 8.839 3.661s6.398-1.222 8.839-3.661l79.998-80c4.882-4.882 4.882-12.796 0-17.678z"/></symbol></svg>