<?xml version="1.0" encoding="utf-8"?><svg xmlns="http://www.w3.org/2000/svg" xmlns:xlink="http://www.w3.org/1999/xlink"><symbol viewBox="0 0 299.997 299.997" id="email" xmlns="http://www.w3.org/2000/svg"><path d="M149.996 0C67.157 0 .001 67.158.001 149.997c0 82.837 67.156 150 149.995 150s150-67.163 150-150C299.996 67.158 232.835 0 149.996 0zm.003 52.686l88.763 55.35H61.236l88.763-55.35zm89.869 143.737h-.009c0 8.878-7.195 16.072-16.072 16.072H76.211c-8.878 0-16.072-7.195-16.072-16.072v-84.865c0-.939.096-1.852.252-2.749l84.808 52.883c.104.065.215.109.322.169.112.062.226.122.34.179a8.903 8.903 0 0 0 1.847.721c.065.018.13.026.195.041a9.148 9.148 0 0 0 2.093.265h.015c.7 0 1.401-.099 2.093-.265.065-.016.13-.023.195-.041a8.99 8.99 0 0 0 1.847-.721 9.19 9.19 0 0 0 .34-.179c.106-.06.218-.104.322-.169l84.808-52.883c.156.897.252 1.808.252 2.749v84.865z"/></symbol><symbol viewBox="0 0 487.803 487.803" id="glasses" xmlns="http://www.w3.org/2000/svg"><path d="M480.6 296.133L416 91.033c-9.1-29.9-40.9-46.8-70.8-37.7-7.1 2.2-11.2 9.7-9 16.8s9.7 11.2 16.8 9c15.7-4.8 32.3 4.1 37.1 19.8v.1l46.2 146.9c-14.7-8.3-31.6-13-49.6-13-51.8 0-94.6 39.2-100.4 89.4h-85c-6.6-49.4-49-87.6-100.2-87.6-18.1 0-35.1 4.8-49.8 13.1l46.8-148.8v-.1c4.8-15.7 21.4-24.6 37.1-19.8 7.1 2.2 14.7-1.9 16.8-9 2.2-7.1-1.9-14.7-9-16.8-29.9-9.1-61.6 7.8-70.8 37.7l-64.4 205.3c-.2.6-.3 1.1-.4 1.7-4.7 11.7-7.4 24.5-7.4 37.8 0 55.7 45.4 101.1 101.1 101.1 51.2 0 93.6-38.2 100.2-87.6h85.5c7.4 48.5 49.4 85.8 99.9 85.8 55.7 0 101.1-45.4 101.1-101.1.1-13.4-2.5-26.2-7.2-37.9zm-379.4 113.8c-40.9 0-74.1-33.2-74.1-74.1s33.2-74.1 74.1-74.1 74.1 33.2 74.1 74.1-33.3 74.1-74.1 74.1zm285.6-1.8c-40.9 0-74.1-33.2-74.1-74.1s33.3-74.1 74.1-74.1 74.1 33.2 74.1 74.1-33.2 74.1-74.1 74.1z"/></symbol><symbol viewBox="0 0 485.213 485.213" id="magnifier-tool" xmlns="http://www.w3.org/2000/svg"><path d="M363.909 181.955C363.909 81.473 282.44 0 181.956 0 81.474 0 .001 81.473.001 181.955s81.473 181.951 181.955 181.951c100.484 0 181.953-81.469 181.953-181.951zM181.956 318.416c-75.252 0-136.465-61.208-136.465-136.46 0-75.252 61.213-136.465 136.465-136.465 75.25 0 136.468 61.213 136.468 136.465 0 75.252-61.218 136.46-136.468 136.46zm289.926 89.151L360.567 296.243a214.267 214.267 0 0 1-64.331 64.321L407.56 471.888c17.772 17.768 46.587 17.768 64.321 0 17.773-17.739 17.773-46.554.001-64.321z"/></symbol><symbol viewBox="0 0 299.995 299.995" id="phone-book" xmlns="http://www.w3.org/2000/svg"><path d="M143.511 154.004c19.146 0 23.718-15.613 23.718-28.711 0-13.098-10.621-23.718-23.718-23.718s-23.721 10.621-23.721 23.718c0 13.098 6.292 28.711 23.721 28.711zm3.304 3.297h-6.608c-13.002 0-32.498 11.91-32.498 26.61s-4.409 26.615 8.59 26.615h54.428c12.999 0 8.59-11.915 8.59-26.615s-19.5-26.61-32.502-26.61z"/><path d="M149.992.001C67.156.001 0 67.159 0 149.998s67.156 149.997 149.992 149.997c82.842 0 150.003-67.161 150.003-149.997C299.995 67.157 232.834.001 149.992.001zm60.955 217.131v10.374c0 5.729-4.645 10.374-10.374 10.374H96.829c-11.458 0-20.749-9.29-20.749-20.749V86.589c0-11.458 9.29-20.749 20.749-20.749h103.743c5.729 0 10.374 4.645 10.374 10.374v10.375h.001v130.543zm20.748-130.543v140.917c0 5.729-4.645 10.374-10.374 10.374h-2.806a20.6 20.6 0 0 0 2.806-10.374V76.215c0-3.781-1.032-7.319-2.806-10.374h2.806c5.729 0 10.374 4.645 10.374 10.374v10.374z"/></symbol><symbol viewBox="0 0 485.213 485.212" id="phone-symbol-of-an-auricular-inside-a-circle" xmlns="http://www.w3.org/2000/svg"><path d="M242.607 0C108.629 0 .001 108.628.001 242.606c0 133.976 108.628 242.606 242.606 242.606s242.604-108.631 242.604-242.606C485.212 108.628 376.585 0 242.607 0zm128.112 353.989l-19.425 19.429c-3.468 3.463-13.623 5.624-13.949 5.624-61.452.536-120.621-23.602-164.095-67.08-43.593-43.618-67.759-102.998-67.11-164.657 0-.028 2.224-9.892 5.689-13.324l19.424-19.427c7.108-7.141 20.762-10.368 30.327-7.168l4.086 1.363c9.537 3.197 19.55 13.742 22.185 23.457l9.771 35.862c2.635 9.743-.919 23.604-8.025 30.712l-12.97 12.972c12.734 47.142 49.723 84.138 96.873 96.903l12.965-12.975c7.141-7.141 20.997-10.692 30.719-8.061l35.857 9.806c9.717 2.67 20.26 12.62 23.456 22.154l1.363 4.145c3.168 9.538-.034 23.189-7.141 30.265z"/></symbol><symbol viewBox="0 0 496 496" id="меню--corruption" xmlns="http://www.w3.org/2000/svg"><path d="M352 368v24h-21.496c-14.96 0-29.016-5.824-39.592-16.4l-54.632-54.624c-5.784-5.792-13.464-8.976-21.656-8.976-16.88 0-30.624 13.736-30.624 30.632 0 8.176 3.184 15.864 8.968 21.656l32 32c4.472 4.464 7.032 10.648 7.032 16.968V432h16v-18.744c0-10.68-4.168-20.728-11.72-28.28l-32-32a14.555 14.555 0 0 1-4.28-10.344c0-8.072 6.56-14.632 14.624-14.632 3.848 0 7.616 1.56 10.344 4.288l54.632 54.624c13.592 13.6 31.672 21.088 50.904 21.088H352v42.584l-17.808 7.12a87.6 87.6 0 0 1-32.68 6.296H191.528c-4.568 0-9.184-.36-13.72-1.08l-48.008-7.576c-11.768-1.856-22.44-7.296-30.864-15.712L60.28 400.976A14.555 14.555 0 0 1 56 390.632C56 382.56 62.56 376 70.624 376c3.848 0 7.616 1.56 10.344 4.288l27.312 27.32c10.584 10.576 24.648 16.4 39.6 16.4h40.792c8.648 0 17.304-2.04 25.04-5.912l-7.16-14.312a40.318 40.318 0 0 1-17.88 4.216H147.88c-10.68 0-20.728-4.16-28.288-11.712L92.28 368.976C86.496 363.184 78.816 360 70.624 360 53.744 360 40 373.736 40 390.632c0 8.176 3.184 15.864 8.968 21.656l38.656 38.664c10.84 10.832 24.56 17.816 39.68 20.2l48.008 7.576c5.36.84 10.824 1.272 16.216 1.272h109.984c13.288 0 26.28-2.504 38.616-7.44L352 467.816V496h112V368H352zm96 112h-80v-96h16v80h16v-80h48v96zM45.656 301.656l96.52-96.52C149.256 216.416 161.72 224 176 224v16h16v-16c22.056 0 40-17.944 40-40 0-18.608-12.84-34.16-30.08-38.608L219.312 128H232v-8c0-1.456-.28-2.84-.432-4.256L333.656 13.656 322.344 2.344l-36.8 36.8C257.6 13.944 221.912 0 184 0 100.184 0 32 68.184 32 152c0 37.912 13.936 73.6 39.144 101.544l-36.8 36.8 11.312 11.312zM216 184c0 13.232-10.768 24-24 24h-16c-9.904 0-18.416-6.032-22.08-14.608L187.312 160H192c13.232 0 24 10.768 24 24zm-35.312-40H176c-13.232 0-24-10.768-24-24s10.768-24 24-24h16c9.904 0 18.416 6.032 22.08 14.608L180.688 144zm45.128-45.128C218.744 87.584 206.28 80 192 80V64h-16v16c-22.056 0-40 17.944-40 40 0 18.608 12.84 34.16 30.08 38.608L148.688 176H136v8c0 1.456.28 2.84.432 4.256l-31.352 31.352C88.904 200.776 80 177.088 80 152c0-57.344 46.656-104 104-104 25.096 0 48.776 8.896 67.608 25.08l-25.792 25.792zM48 152c0-74.992 61.008-136 136-136 33.64 0 65.328 12.264 90.232 34.456L262.92 61.768C241.048 42.584 213.368 32 184 32 117.832 32 64 85.832 64 152c0 29.36 10.584 57.048 29.768 78.92l-11.312 11.312C60.264 217.32 48 185.64 48 152z"/><path d="M96.008 275.8C121.92 294.248 152.344 304 184 304c83.816 0 152-68.184 152-152 0-31.656-9.752-62.08-28.192-87.992l-13.032 9.28C311.272 96.472 320 123.688 320 152c0 74.992-61.008 136-136 136-28.304 0-55.52-8.728-78.712-25.232l-9.28 13.032z"/><path d="M184 256c-19.84 0-39.208-5.696-56.008-16.472L119.352 253c19.376 12.432 41.736 19 64.648 19 66.168 0 120-53.832 120-120 0-22.904-6.568-45.256-19-64.648l-13.472 8.632C282.304 112.8 288 132.168 288 152c0 57.344-46.656 104-104 104z"/></symbol><symbol viewBox="0 0 512 512" id="меню--exam" xmlns="http://www.w3.org/2000/svg"><path d="M375.451 315.733a8.536 8.536 0 0 0-8.533-8.533h-51.2c-4.71 0-8.533 3.823-8.533 8.533s3.823 8.533 8.533 8.533h51.2c4.71.001 8.533-3.822 8.533-8.533zM341.317 93.867V51.2c0-4.71-3.823-8.533-8.533-8.533s-8.533 3.823-8.533 8.533v42.667c0 23.526 19.14 42.667 42.667 42.667h76.8v162.133c0 4.71 3.823 8.533 8.533 8.533s8.533-3.823 8.533-8.533V128a8.536 8.536 0 0 0-8.533-8.533h-85.333c-14.115 0-25.601-11.486-25.601-25.6zm25.6 110.933H298.65a8.536 8.536 0 0 0-8.533 8.533 8.536 8.536 0 0 0 8.533 8.533h68.267a8.536 8.536 0 0 0 8.533-8.533c.001-4.71-3.822-8.533-8.533-8.533zm-93.866 8.533a8.536 8.536 0 0 0-8.533-8.533h-51.2a8.536 8.536 0 0 0-8.533 8.533 8.536 8.536 0 0 0 8.533 8.533h51.2c4.71.001 8.533-3.822 8.533-8.533zM213.317 256a8.536 8.536 0 0 0-8.533 8.533 8.536 8.536 0 0 0 8.533 8.533h17.067a8.536 8.536 0 0 0 8.533-8.533 8.536 8.536 0 0 0-8.533-8.533h-17.067zm0-85.333h85.333a8.536 8.536 0 0 0 8.533-8.533 8.536 8.536 0 0 0-8.533-8.533h-85.333a8.536 8.536 0 0 0-8.533 8.533 8.536 8.536 0 0 0 8.533 8.533zm51.2 102.4h85.333a8.536 8.536 0 0 0 8.533-8.533 8.536 8.536 0 0 0-8.533-8.533h-85.333a8.536 8.536 0 0 0-8.533 8.533 8.536 8.536 0 0 0 8.533 8.533zm51.2 85.333c-4.71 0-8.533 3.823-8.533 8.533s3.823 8.533 8.533 8.533h17.067c4.71 0 8.533-3.823 8.533-8.533s-3.823-8.533-8.533-8.533h-17.067zm-34.133-51.2h-68.267c-4.71 0-8.533 3.823-8.533 8.533s3.823 8.533 8.533 8.533h68.267c4.71 0 8.533-3.823 8.533-8.533s-3.823-8.533-8.533-8.533zm0 51.2h-68.267c-4.71 0-8.533 3.823-8.533 8.533s3.823 8.533 8.533 8.533h68.267c4.71 0 8.533-3.823 8.533-8.533s-3.823-8.533-8.533-8.533zm203.17-6.903l-17.067-17.067c-13.116-13.116-33.101-13.09-46.199 0L309.684 446.234a8.546 8.546 0 0 0-2.5 6.033v51.2a8.536 8.536 0 0 0 8.533 8.533h51.2a8.546 8.546 0 0 0 6.033-2.5l111.804-111.804c13.594-13.594 13.594-32.597 0-46.199zm-74.3 18.099l13.534 13.534-74.138 74.138-13.534-13.534 74.138-74.138zm-86.203 125.337v-39.134l39.134 39.134h-39.134zm51.2-12.066l-13.534-13.534 74.138-74.138 13.534 13.534-74.138 74.138zm97.237-97.237l-11.034 11.034-39.134-39.134 11.034-11.034c6.741-6.733 15.292-6.767 22.067 0l17.067 17.067c6.903 6.912 6.903 15.163 0 22.067z"/><path d="M281.584 494.933H59.717c-14.114 0-25.6-11.486-25.6-25.6V42.667c0-14.114 11.486-25.6 25.6-25.6h269.534L412.084 99.9a8.523 8.523 0 0 0 12.066 0 8.523 8.523 0 0 0 0-12.066L338.817 2.5a8.513 8.513 0 0 0-6.033-2.5H59.717C36.191 0 17.051 19.14 17.051 42.667v426.667c0 23.526 19.14 42.667 42.667 42.667h221.867c4.71 0 8.533-3.823 8.533-8.533s-3.824-8.535-8.534-8.535z"/><path d="M281.584 409.6h-68.267c-4.71 0-8.533 3.823-8.533 8.533s3.823 8.533 8.533 8.533h68.267c4.71 0 8.533-3.823 8.533-8.533s-3.823-8.533-8.533-8.533zM170.651 162.133a8.536 8.536 0 0 0-8.533-8.533h-51.2a8.536 8.536 0 0 0-8.533 8.533v51.2a8.536 8.536 0 0 0 8.533 8.533h51.2a8.536 8.536 0 0 0 8.533-8.533v-51.2zM153.584 204.8h-34.133v-34.133h34.133V204.8zm-42.667 221.867h51.2a8.536 8.536 0 0 0 8.533-8.533v-51.2a8.536 8.536 0 0 0-8.533-8.533h-51.2a8.536 8.536 0 0 0-8.533 8.533v51.2a8.536 8.536 0 0 0 8.533 8.533zm8.534-51.2h34.133V409.6h-34.133v-34.133zm2.5-53.701a8.54 8.54 0 0 0 6.878 2.457 8.513 8.513 0 0 0 6.255-3.755l34.133-51.2c2.611-3.925 1.553-9.225-2.364-11.836a8.533 8.533 0 0 0-11.836 2.364l-28.356 42.539-9.711-9.702c-3.336-3.337-8.73-3.337-12.066 0s-3.337 8.73 0 12.066l17.067 17.067z"/></symbol><symbol viewBox="0 0 480 480" id="меню--hospital" xmlns="http://www.w3.org/2000/svg"><path d="M368 208v48h64v-48h-64zm48 32h-32v-16h32v16zm-48 32v48h64v-48h-64zm48 32h-32v-16h32v16zm-48 32v48h64v-48h-64zm48 32h-32v-16h32v16zm-48 32v48h64v-48h-64zm48 32h-32v-16h32v16zM272 80V32h-64v48h-48v64h48v48h64v-48h48V80h-48zm32 48h-48v48h-32v-48h-48V96h48V48h32v48h48v32z"/><path d="M352 176V0H128v176H16v304h448V176H352zM128 464H32V192h96v272zm104 0h-40V320h40v144zm56 0h-40V320h40v144zm48 0h-32V304H176v160h-32V16h192v448zm112 0h-96V192h96v272z"/><path d="M48 208v48h64v-48H48zm48 32H64v-16h32v16zm-48 32v48h64v-48H48zm48 32H64v-16h32v16zm-48 32v48h64v-48H48zm48 32H64v-16h32v16zm-48 32v48h64v-48H48zm48 32H64v-16h32v16z"/></symbol><symbol viewBox="0 0 64 64" id="меню--localization-placeholder-outline-symbol-in-circular-button" xmlns="http://www.w3.org/2000/svg"><path d="M32 25a2 2 0 1 0 .001 4.001A2 2 0 0 0 32 25zm0-7c-4.971 0-9 4.029-9 9s5.546 21 9 21 9-16.029 9-21-4.029-9-9-9zm0 13a4 4 0 1 1 0-8 4 4 0 0 1 0 8zm0-31C14.327 0 0 14.327 0 32s14.327 32 32 32 32-14.327 32-32S49.673 0 32 0zm0 50c-3.678 0-11-16.925-11-23s4.925-11 11-11 11 4.925 11 11-7.32 23-11 23z"/></symbol><symbol viewBox="0 0 479.981 479.981" id="меню--patient" xmlns="http://www.w3.org/2000/svg"><path d="M207.99 167.981v16c0 17.673 14.327 32 32 32 17.673 0 32-14.327 32-32v-16h-64zm32 32c-8.837 0-16-7.163-16-16h32c0 8.836-7.163 16-16 16zm-32-80v8a8 8 0 0 1-16 0v-8h-16v8c0 13.255 10.745 24 24 24s24-10.745 24-24v-8h-16zm80 0v8a8 8 0 0 1-16 0v-8h-16v8c0 13.255 10.745 24 24 24s24-10.745 24-24v-8h-16z"/><path d="M330.07 264.085v-.104h-50.08a8 8 0 0 1-8-8v-12.72c47.418-14.189 79.927-57.785 80-107.28v-24C352.033 50.178 301.966.042 240.163 0c-39.996-.027-76.965 21.293-96.973 55.925l-1.224.32.312 1.176a111.207 111.207 0 0 0-14.288 54.56v24c.073 49.495 32.582 93.091 80 107.28v12.72a8 8 0 0 1-8 8h-48c-39.746.044-71.956 32.254-72 72v104c.026 22.08 17.92 39.974 40 40h280v-144c-.04-38.926-31.01-70.772-69.92-71.896zm-35.744 15.896h15.56l-28.232 120h-15.56l28.232-120zm38.176-193.272L291.83 59.597l22.176-8.68a95.789 95.789 0 0 1 18.496 35.792zM239.99 15.981a95.346 95.346 0 0 1 32.704 5.856L167.19 49.581a95.752 95.752 0 0 1 72.8-33.6zm-86.024 53.64l140.128-36.84a95.722 95.722 0 0 1 7.6 5.8L144.83 99.925a95.136 95.136 0 0 1 9.136-30.304zm-9.976 66.36v-18.536l129.664-50.736 62.144 41.424c.048 1.288.192 2.552.192 3.848v24c0 53.019-42.981 96-96 96s-96-42.981-96-96zm-7.144 280l-7.68 48h-9.176c-13.255 0-24-10.745-24-24v-104c.035-30.913 25.087-55.965 56-56h6.616l-19.2 120H127.99v16h8.856zm39.144 48h-30.616l29.44-184h18.36l29.44 184H175.99zm33.088-185.816a24 24 0 0 0 14.912-22.184v-8h32v8c.04 12.424 9.572 22.755 21.952 23.792l-28.288 120.208h-21.08l-19.496-121.816zm94.912 185.816h-65.176l-7.68-48h72.856c13.255 0 24 10.745 24 24s-10.745 24-24 24zm80 0h-48.208a39.607 39.607 0 0 0 8.208-24c-.026-22.08-17.92-39.974-40-40h-5.896l28.24-120h1.656c30.913.035 55.965 25.087 56 56v128z"/></symbol><symbol viewBox="0 0 512 512" id="меню--survey" xmlns="http://www.w3.org/2000/svg"><circle cx="53.333" cy="74.667" r="10.667"/><circle cx="96" cy="74.667" r="10.667"/><circle cx="138.667" cy="74.667" r="10.667"/><path d="M117.333 234.667H352c5.896 0 10.667-4.771 10.667-10.667s-4.771-10.667-10.667-10.667H117.333c-5.896 0-10.667 4.771-10.667 10.667s4.772 10.667 10.667 10.667zm128 106.666h-128A10.66 10.66 0 0 0 106.666 352a10.66 10.66 0 0 0 10.667 10.667h128A10.66 10.66 0 0 0 256 352a10.66 10.66 0 0 0-10.667-10.667z"/><path d="M471.167 149.333c-.618 0-1.217.155-1.833.184V64c0-23.531-19.146-42.667-42.667-42.667h-384C19.146 21.333 0 40.469 0 64v384c0 23.531 19.146 42.667 42.667 42.667h384c23.521 0 42.667-19.135 42.667-42.667V249.745l30.708-30.703v-.01c7.604-7.604 11.958-18.125 11.958-28.865 0-22.521-18.312-40.834-40.833-40.834zM21.333 64c0-11.76 9.563-21.333 21.333-21.333h384C438.438 42.667 448 52.24 448 64v42.667H21.333V64zM448 448c0 11.76-9.563 21.333-21.333 21.333h-384c-11.771 0-21.333-9.573-21.333-21.333V128H448v28.62c-2.025 1.392-3.962 2.923-5.708 4.672l-116.06 116.042H117.333c-5.896 0-10.667 4.771-10.667 10.667s4.771 10.667 10.667 10.667h191.785l-10.243 51.24c-.708 3.5.396 7.115 2.917 9.635a10.68 10.68 0 0 0 7.542 3.125c.688 0 1.396-.073 2.083-.208l53.313-10.667a10.601 10.601 0 0 0 5.458-2.917l77.812-77.8V448zm-90.604-116.49l-34.458 6.896 6.896-34.5 96.828-96.828 27.587 27.587-96.853 96.845zm127.562-127.552l-15.625 15.625-27.589-27.589 15.63-15.63a19.662 19.662 0 0 1 13.792-5.698c10.75 0 19.5 8.75 19.5 19.5.001 5.126-2.083 10.157-5.708 13.792z"/></symbol><symbol viewBox="0 0 60 60" id="меню--time" xmlns="http://www.w3.org/2000/svg"><path d="M30 0C13.458 0 0 13.458 0 30s13.458 30 30 30 30-13.458 30-30S46.542 0 30 0zm0 58C14.561 58 2 45.439 2 30S14.561 2 30 2s28 12.561 28 28-12.561 28-28 28z"/><path d="M30 6a1 1 0 0 0-1 1v23H14a1 1 0 1 0 0 2h16a1 1 0 0 0 1-1V7a1 1 0 0 0-1-1z"/></symbol><symbol viewBox="0 0 512 512" id="меню--writing" xmlns="http://www.w3.org/2000/svg"><path d="M352.459 220c0-11.046-8.954-20-20-20h-206c-11.046 0-20 8.954-20 20s8.954 20 20 20h206c11.046 0 20-8.954 20-20zm-226 60c-11.046 0-20 8.954-20 20s8.954 20 20 20H251.57c11.046 0 20-8.954 20-20s-8.954-20-20-20H126.459z"/><path d="M173.459 472H106.57c-22.056 0-40-17.944-40-40V80c0-22.056 17.944-40 40-40h245.889c22.056 0 40 17.944 40 40v123c0 11.046 8.954 20 20 20s20-8.954 20-20V80c0-44.112-35.888-80-80-80H106.57c-44.112 0-80 35.888-80 80v352c0 44.112 35.888 80 80 80h66.889c11.046 0 20-8.954 20-20s-8.954-20-20-20z"/><path d="M467.884 289.572c-23.394-23.394-61.458-23.395-84.837-.016l-109.803 109.56a20.005 20.005 0 0 0-5.01 8.345l-23.913 78.725a20 20 0 0 0 24.476 25.087l80.725-22.361a19.993 19.993 0 0 0 8.79-5.119l109.573-109.367c23.394-23.394 23.394-61.458-.001-84.854zM333.776 451.768l-40.612 11.25 11.885-39.129 74.089-73.925 28.29 28.29-73.652 73.514zM439.615 346.13l-3.875 3.867-28.285-28.285 3.862-3.854c7.798-7.798 20.486-7.798 28.284 0 7.798 7.798 7.798 20.486.014 28.272zM332.459 120h-206c-11.046 0-20 8.954-20 20s8.954 20 20 20h206c11.046 0 20-8.954 20-20s-8.954-20-20-20z"/></symbol></svg>